<?xml version="1.0" encoding="utf-8"?>
<!-- Generator: Adobe Illustrator 27.2.0, SVG Export Plug-In . SVG Version: 6.00 Build 0)  -->
<svg version="1.1" id="Ebene_1" xmlns="http://www.w3.org/2000/svg" xmlns:xlink="http://www.w3.org/1999/xlink" x="0px" y="0px"
	 viewBox="0 0 180 180" style="enable-background:new 0 0 180 180;" xml:space="preserve">
<style type="text/css">
	.st0{fill:#0069B3;}
</style>
<g>
	<path class="st0" d="M58.6,74.1c-6.7,0-12.1,5.9-12.1,13.2c0,7.3,5.4,13.2,12.1,13.2c6.7,0,12.1-5.9,12.1-13.2
		C70.7,80,65.3,74.1,58.6,74.1z"/>
	<path class="st0" d="M78,111.3c-2.2-4.3-10-7.4-19.4-7.4s-17.2,3.1-19.4,7.4H78z"/>
</g>
<g>
	<path class="st0" d="M121.4,74.1c-6.7,0-12.1,5.9-12.1,13.2c0,7.3,5.4,13.2,12.1,13.2c6.7,0,12.1-5.9,12.1-13.2
		C133.6,80,128.1,74.1,121.4,74.1z"/>
	<path class="st0" d="M140.8,111.3c-2.2-4.3-10-7.4-19.4-7.4s-17.2,3.1-19.4,7.4H140.8z"/>
</g>
<g>
	<path class="st0" d="M90,55.9c-5.7,0-10.2,5-10.2,11.1c0,6.1,4.6,11.1,10.2,11.1c5.7,0,10.2-5,10.2-11.1
		C100.2,60.9,95.7,55.9,90,55.9z"/>
	<path class="st0" d="M106.4,87.3C104.5,83.7,97.9,81,90,81s-14.5,2.7-16.4,6.3H106.4z"/>
</g>
</svg>
