<?xml version="1.0" encoding="utf-8"?>
<!-- Generator: Adobe Illustrator 27.2.0, SVG Export Plug-In . SVG Version: 6.00 Build 0)  -->
<svg version="1.1" id="Ebene_1" xmlns="http://www.w3.org/2000/svg" xmlns:xlink="http://www.w3.org/1999/xlink" x="0px" y="0px"
	 viewBox="0 0 180 180" style="enable-background:new 0 0 180 180;" xml:space="preserve">
<style type="text/css">
	.st0{fill:#0069B3;}
</style>
<g>
	<path class="st0" d="M104,92.9c-0.5-7.4-4-13.5-8.8-16.3V85c-0.6-0.2-1.2-0.3-1.8-0.5V76c0-0.5-0.4-0.9-0.9-0.9h-5.8
		c-0.5,0-0.9,0.4-0.9,0.9v8.5c-0.6,0.1-1.2,0.3-1.8,0.5v-8.4c-4.8,2.7-8.2,8.9-8.8,16.3c-1.9,0.8-3,1.8-3,2.9c0,0.6,0.4,1.2,1.1,1.8
		c-0.1,0.4-0.2,0.8-0.2,1.2c1.9,0.4,3.3,1.4,3.3,2.5c0,1.2-1.3,2.2-3.3,2.6c0.2,1.3,0.5,2.5,1,3.7c1.9-0.7,3.5-0.5,4.1,0.5
		c0.6,1-0.1,2.6-1.6,4c0.8,1,1.7,1.9,2.6,2.7c1.3-1.5,2.8-2.3,3.8-1.7c1,0.6,1.1,2.3,0.6,4.2c1.1,0.4,2.3,0.8,3.6,0.9
		c0.4-2,1.3-3.4,2.4-3.4c1.1,0,2.1,1.4,2.5,3.4c1.2-0.2,2.4-0.5,3.5-1c-0.6-1.9-0.5-3.6,0.5-4.2c1-0.6,2.5,0.1,3.8,1.6
		c1-0.8,1.8-1.7,2.6-2.7c-1.5-1.3-2.2-2.9-1.6-3.9c0.5-1,2.2-1.2,4.1-0.6c0.4-1.2,0.8-2.5,0.9-3.8c-1.9-0.4-3.3-1.4-3.3-2.5
		c0-1.2,1.3-2.2,3.3-2.6c0-0.3-0.1-0.5-0.2-0.7c0.7-0.6,1.2-1.2,1.2-1.8C107.1,94.8,105.9,93.8,104,92.9z M78.1,92.3
		c2.1,2.1,6.5,3.5,11.6,3.5s9.5-1.4,11.6-3.5C100.2,95,95.4,97,89.7,97S79.1,95,78.1,92.3z M100.4,101c0.1,6.1-4.6,11.1-10.5,11.2
		c-5.9,0.1-10.7-4.8-10.8-10.9c0-0.5,0.1-0.9,0.1-1.4c1.1,0.3,2.3,0.5,3.6,0.6c0.5,1,3.4,1.8,7,1.8s6.5-0.8,7-1.8
		c1.3-0.2,2.5-0.4,3.6-0.6C100.3,100.3,100.4,100.7,100.4,101z"/>
	<path class="st0" d="M127.2,116.5L94.6,58c-1-1.7-2.7-2.7-4.6-2.7c-1.9,0-3.6,1-4.6,2.7l-32.6,58.4c-1,1.7-1,3.8,0,5.5
		c1,1.7,2.7,2.7,4.6,2.7h65.2c1.9,0,3.6-1,4.6-2.7C128.2,120.2,128.2,118.2,127.2,116.5z M125,120.7c-0.5,0.9-1.4,1.4-2.4,1.4H57.4
		c-1,0-1.9-0.5-2.4-1.4c-0.5-0.9-0.5-2,0-2.9l32.6-58.5c0.5-0.9,1.4-1.4,2.4-1.4c1,0,1.9,0.5,2.4,1.4l32.6,58.5
		C125.5,118.7,125.5,119.8,125,120.7z"/>
</g>
</svg>
