<?xml version="1.0" encoding="utf-8"?>
<!-- Generator: Adobe Illustrator 27.2.0, SVG Export Plug-In . SVG Version: 6.00 Build 0)  -->
<svg version="1.1" id="Ebene_1" xmlns="http://www.w3.org/2000/svg" xmlns:xlink="http://www.w3.org/1999/xlink" x="0px" y="0px"
	 viewBox="0 0 180 180" style="enable-background:new 0 0 180 180;" xml:space="preserve">
<style type="text/css">
	.st0{fill:#0069B3;}
</style>
<g>
	<path class="st0" d="M90.4,47.5C81,47.5,73.3,66.6,73.3,90s7.7,42.5,17.1,42.5c9.4,0,17.1-19.1,17.1-42.5S99.8,47.5,90.4,47.5
		 M90.4,132.9c-4.7,0-9.1-4.5-12.4-12.6c-3.3-8.1-5.1-18.8-5.1-30.3s1.8-22.2,5.1-30.3c3.3-8.1,7.7-12.6,12.4-12.6
		c4.7,0,9.1,4.5,12.4,12.6c3.3,8.1,5.1,18.8,5.1,30.3s-1.8,22.2-5.1,30.3C99.5,128.4,95.1,132.9,90.4,132.9"/>
	<path class="st0" d="M119.6,64.3c-8.4-2.3-23.2,1.5-37.8,10.4c-9.4,5.7-17.4,12.8-22.4,19.7c-5,6.9-6.5,13-4.2,17.1
		c4.8,8.5,24.4,5.7,43.8-6.1l0.1,0.2l-0.1-0.2c19.4-11.8,31.3-28.4,26.6-36.8C124.5,66.5,122.4,65.1,119.6,64.3 M61.2,116.2
		c-2.9-0.8-5.1-2.3-6.3-4.4c-2.4-4.2-0.9-10.4,4.2-17.5c5-7,13-14.1,22.5-19.9c9.5-5.8,19.3-9.6,27.6-10.7
		c8.4-1.2,14.4,0.5,16.7,4.8c2.4,4.2,0.9,10.4-4.2,17.5c-5,7-13,14.1-22.5,19.9c-9.5,5.8-19.3,9.6-27.6,10.7
		C67.5,117.1,64,117,61.2,116.2"/>
	<path class="st0" d="M55.3,68.6c-4.8,8.5,7.2,25,26.6,36.8l-0.1,0.2l0.1-0.2c19.4,11.8,39,14.6,43.8,6.1c2.3-4.1,0.8-10.1-4.2-17.1
		c-5-7-13-14-22.4-19.7c-14.6-8.9-29.3-12.7-37.8-10.4C58.5,65.1,56.5,66.5,55.3,68.6 M109.3,116.5c-8.4-1.1-18.2-5-27.6-10.7
		c-9.5-5.8-17.5-12.8-22.5-19.9c-5.1-7.1-6.6-13.3-4.2-17.5c2.4-4.2,8.3-5.9,16.7-4.8c8.4,1.1,18.2,5,27.6,10.7
		c9.5,5.8,17.5,12.8,22.5,19.9c5.1,7.1,6.6,13.3,4.2,17.5c-1.2,2.2-3.3,3.6-6.3,4.4C116.9,117,113.4,117.1,109.3,116.5"/>
	<path class="st0" d="M51.7,80.7c0,2.7,2.1,4.9,4.7,4.9c2.6,0,4.7-2.2,4.7-4.9c0-2.7-2.1-4.9-4.7-4.9C53.8,75.8,51.7,78,51.7,80.7"
		/>
	<path class="st0" d="M118.9,97.2c0,2.7,2.1,4.9,4.7,4.9c2.6,0,4.7-2.2,4.7-4.9c0-2.7-2.1-4.9-4.7-4.9
		C121,92.3,118.9,94.5,118.9,97.2"/>
	<path class="st0" d="M85.7,90.6c0,2.7,2.1,4.9,4.7,4.9c2.6,0,4.7-2.2,4.7-4.9s-2.1-4.9-4.7-4.9C87.8,85.6,85.7,87.8,85.7,90.6"/>
</g>
</svg>
