<?xml version="1.0" encoding="utf-8"?>
<!-- Generator: Adobe Illustrator 27.2.0, SVG Export Plug-In . SVG Version: 6.00 Build 0)  -->
<svg version="1.1" id="Ebene_1" xmlns="http://www.w3.org/2000/svg" xmlns:xlink="http://www.w3.org/1999/xlink" x="0px" y="0px"
	 viewBox="0 0 180 180" style="enable-background:new 0 0 180 180;" xml:space="preserve">
<style type="text/css">
	.st0{fill:#0069B3;}
</style>
<path class="st0" d="M121.9,103.6c-0.6-0.1-1.3-0.2-1.9,0c-2.1,0.5-4.1,1.2-6.1,1.8c-0.2,0.1-0.5,0.1-0.7,0.1
	c-0.6,0-1.2-0.3-1.7-0.2c-2.7,0.4-5,1.6-7.4,2.7c-0.1,0,2,0.6,2.6,0.8c1.6,0.5,2,0.6,2.4,1.8c0.5,1.3,0.2,2.8-1,3.7
	c-1,0.7-2,1.2-3.7,1.8c-2.1,0.8-4.7,1-6.8,1.1c-3.4,0.1-7-0.4-10.4-1.2c-0.8-0.3-1.7-0.6-2.5-1c0,0,0-0.1,0-0.1
	c0.7,0.1,1.5,0.2,2.2,0.2c5.6,0.2,11.1-0.2,16.6-0.6c0.8-0.1,1.7-0.3,2.5-0.6c0.7-0.2,1.4-0.7,1.3-1.6c0-0.9-0.5-1.7-1.4-2
	c-0.4-0.2-0.8-0.2-1.3-0.4c-2.7-0.9-5.4-1.4-8.2-1.4c0-2.3,0-4.6,0-6.9c0-1.6,0.3-3,1.1-4.4c0.8-1.5,1.6-3,2.3-4.5
	c0.3-0.7,0.7-0.9,1.5-0.7c1.2,0.3,2.3,0.5,3.5,0.5c0,0,0.1,0,0.1,0c4.9,1.6,10.4-2.1,12.4-8.1c1.7-5.4,0-10.8-3.9-13.1
	c-0.6-0.4-1.3-0.7-2-0.9c-0.9-0.2-1.3-0.5-1.4-1.5c-0.5-6.6-5-11.9-11.3-12.6c-6.4-0.8-12.1,1.1-16.2,6.3c-0.3,0.4-0.9,0.7-1.3,0.7
	c-2.3,0.1-4.4,0.6-6.3,1.8c-3.5,2.1-4.9,6-3.5,10.3c0.4,1.2,0.4,2.1-0.1,3.3c-1.3,2.7,0.3,6,3.3,6.9c-0.5,3.1,1,5.7,3.5,6.6
	c0.5,0.4,0.9,0.8,1.4,1.1c1.5,0.9,3.3,1.2,5,1.3c0.5,0,1.1,0.3,1.5,0.7c1.5,1.4,2.8,2.9,4.3,4.3c1,1,1.5,2.2,1.5,3.6
	c0,1.5,0,3.1,0,4.6c-0.2,0-0.3-0.1-0.5-0.1c-1.2-0.2-2.4-0.7-3-2c-0.2-0.4-0.5-0.7-0.9-0.9c-1-0.5-2-1.1-3-1.4
	c-3.3-0.9-6.7-0.7-10.1-0.2c-4.4,0.6-8.9,1.3-13.3,1.8c-2.5,0.3-4,1.9-3.9,4.4c0,1.9,0.1,3.7,0.1,5.6c0,0.5,0,1,0.1,1.5
	c0.2,1.4,1.4,2.3,2.8,2c0.8-0.2,1.5-0.3,2.2-0.5c4.9-1.3,9.8-1.2,14.7,0.4c0.5,0.2,3.7,1.6,4.7,2c2.6,1,5.1,2.1,7.7,3.1
	c2.9,1.2,5.8,0.8,8.5-0.8c1.9-1.2,3.8-2.1,5.8-3c3.3-1.4,6.5-3,9.2-5.5c1.4-1.3,3-2.6,4.5-3.8c1.7-1.3,3.6-2.5,5.4-3.7
	c0.6-0.4,1-0.9,0.9-1.7C123.2,104.2,122.7,103.7,121.9,103.6z M91.3,95.8c-0.1,0.6-0.5,0.9-1.1,0.4c-0.5-0.5-1.1-1-1.5-1.6
	c-0.1-0.2-0.1-0.8,0.1-0.9c0.8-0.5,1.6-0.8,2.6-1.3C91.3,93.6,91.4,94.7,91.3,95.8z M96.2,91.4c0.7,0.5,1.3,0.6,1.8,0.5
	c-0.2,0.6-0.4,1.1-0.7,1.7c-0.1,0.2-0.4,0.3-0.6,0.3c-0.2,0-0.3-0.3-0.4-0.5c-0.1-0.5,0-1,0-1.5C96.3,91.7,96.3,91.6,96.2,91.4
	C96.2,91.4,96.2,91.4,96.2,91.4z"/>
</svg>
