<?xml version="1.0" encoding="utf-8"?>
<!-- Generator: Adobe Illustrator 27.2.0, SVG Export Plug-In . SVG Version: 6.00 Build 0)  -->
<svg version="1.1" id="Ebene_1" xmlns="http://www.w3.org/2000/svg" xmlns:xlink="http://www.w3.org/1999/xlink" x="0px" y="0px"
	 viewBox="0 0 180 180" style="enable-background:new 0 0 180 180;" xml:space="preserve">
<style type="text/css">
	.st0{fill:#0069B4;}
</style>
<g>
	<path class="st0" d="M127.1,74.8l-8.4,2.9c-0.3,0.1-0.5,0.4-0.5,0.8v6.1v6.3v6.1c0,0.4,0.2,0.7,0.5,0.8l8.4,2.9
		c0.5,0.2,0.9-0.3,0.9-0.8v-8.9v-6.3v-8.9C128,75,127.6,74.6,127.1,74.8z"/>
	<path class="st0" d="M132.8,74.8h-3.3c-0.4,0-0.8,0.4-0.8,0.9v24.1c0,0.5,0.3,0.9,0.8,0.9h3.3c0.4,0,0.8-0.4,0.8-0.9V75.6
		C133.6,75.2,133.2,74.8,132.8,74.8z"/>
	<path class="st0" d="M110.8,72.2H79.6v12.9h-2.2V72.2h-2.8v12.9h-2.2V72.2h-2.8v12.9h-2.2V72.2h-2.8v12.9h-2.2V72.2h-2.8v12.9h-2.2
		V72.2h-2.8v12.9h-2.2V72.2h-0.1c-3.3,0-5.9,2.7-5.9,5.9v19.2c0,3.3,2.7,5.9,5.9,5.9h58.5c3.3,0,5.9-2.7,5.9-5.9V78.2
		C116.7,74.9,114.1,72.2,110.8,72.2z"/>
	<path class="st0" d="M63.2,104.1H55c-0.8,0-1.5,0.7-1.5,1.5v0.8c0,0.8,0.7,1.5,1.5,1.5h8.2c0.8,0,1.5-0.7,1.5-1.5v-0.8
		C64.6,104.7,64,104.1,63.2,104.1z"/>
	<path class="st0" d="M107.7,104.1h-8.2c-0.8,0-1.5,0.7-1.5,1.5v0.8c0,0.8,0.7,1.5,1.5,1.5h8.2c0.8,0,1.5-0.7,1.5-1.5v-0.8
		C109.2,104.7,108.5,104.1,107.7,104.1z"/>
</g>
</svg>
