<?xml version="1.0" encoding="utf-8"?>
<!-- Generator: Adobe Illustrator 27.2.0, SVG Export Plug-In . SVG Version: 6.00 Build 0)  -->
<svg version="1.1" id="Ebene_1" xmlns="http://www.w3.org/2000/svg" xmlns:xlink="http://www.w3.org/1999/xlink" x="0px" y="0px"
	 viewBox="0 0 180 180" style="enable-background:new 0 0 180 180;" xml:space="preserve">
<style type="text/css">
	.st0{fill:#0069B3;}
</style>
<g>
	<polygon class="st0" points="118.6,115.9 120.3,116.9 120.3,115.1 118.6,114.2 	"/>
	<polygon class="st0" points="118.6,113.1 120.3,114 120.3,112.3 118.6,111.3 	"/>
	<polygon class="st0" points="118.6,118.7 119.5,119.9 120.3,118.7 120.3,118 118.6,117.1 	"/>
	<path class="st0" d="M120.6,105.6l7.5-5.1l2.1,11.7L120.6,105.6z M111,100.5l7.5,5.1l-9.5,6.5L111,100.5z M116.3,70.6l2.4,3.3v0.3
		l-3.9,5.5L116.3,70.6z M118.6,63.7v8.2l-2.1-2.9l0.9-5.3H118.6z M122.5,68.8l-2.2,3v-8.2h1.3L122.5,68.8z M120.3,100.2h6l-6,4.1
		V100.2z M118.6,100.2v4.1l-5.9-4.1H118.6z M118.6,92.2v0.2l-7.2,5.4l1.7-9.7L118.6,92.2z M118.6,82.3h-4.4l0,0l4.4-6.1V82.3z
		 M120.3,74.2v-0.3l2.5-3.4l1.7,9.5L120.3,74.2z M120.3,82.3v-6.2l4.4,6.2H120.3z M125.6,86.4h-5.3v-2.5h4.8L125.6,86.4z
		 M120.7,92.3l5.2-4l1.6,9.2L120.7,92.3z M118.6,98.8h-6.5l6.5-4.9V98.8z M120.3,93.4l7,5.3h-7V93.4z M120.3,87.9h4.2l-4.2,3.2V87.9
		z M118.6,87.9v2.8l-3.7-2.8H118.6z M114,83.9h4.7v2.5h-5.1L114,83.9z M130.5,114l1.2-0.2l-4.6-25.8h1.4v-5.6h-2.4l-3.3-18.6h1.5
		v-2.9h-1.9v-0.7h-5.9v0.7h-1.9v2.9h1.7l-3.2,18.1l-0.4,0.5h-2.4v5.6h1.6l-4.6,25.8l1.2,0.2l0-0.2l10-6.8v3.2v0l1.6,1v-1h0v-3.3
		l10.1,6.9L130.5,114z"/>
	<polygon class="st0" points="99.8,100.8 95.8,100.1 100.9,109 89.2,106.7 95.6,113.9 56.9,113.9 93.8,87.6 130.6,113.9 98.1,96.4 	
		"/>
	<polygon class="st0" points="71,87.6 68.9,87.3 71.6,92 65.4,90.8 68.8,94.6 48.4,94.6 67.8,80.7 87.2,94.6 70.1,85.3 	"/>
</g>
</svg>
