<?xml version="1.0" encoding="utf-8"?>
<!-- Generator: Adobe Illustrator 27.2.0, SVG Export Plug-In . SVG Version: 6.00 Build 0)  -->
<svg version="1.1" id="Ebene_1" xmlns="http://www.w3.org/2000/svg" xmlns:xlink="http://www.w3.org/1999/xlink" x="0px" y="0px"
	 viewBox="0 0 180 180" style="enable-background:new 0 0 180 180;" xml:space="preserve">
<style type="text/css">
	.st0{fill:#0069B3;}
</style>
<path class="st0" d="M113.6,61.4c-8.1,7.6-15.7,14.8-23.4,22.1c0.2,0.2,0.3,0.5,0.5,0.7H112c0,0.1,0.1,0.3,0.1,0.4
	C97.9,96,83.6,107.3,69.3,118.7c-0.1-0.1-0.2-0.1-0.3-0.2c5-8.1,10.1-16.2,15.3-24.5H66.4c0.6-0.8,0.9-1.3,1.2-1.8
	c7.8-9.9,15.7-19.7,23.5-29.6c0.8-1,1.6-1.4,2.9-1.4c5.7,0.1,11.3,0,17,0C111.6,61.3,112.3,61.3,113.6,61.4"/>
</svg>
