<?xml version="1.0" encoding="utf-8"?>
<!-- Generator: Adobe Illustrator 27.2.0, SVG Export Plug-In . SVG Version: 6.00 Build 0)  -->
<svg version="1.1" id="Ebene_1" xmlns="http://www.w3.org/2000/svg" xmlns:xlink="http://www.w3.org/1999/xlink" x="0px" y="0px"
	 viewBox="0 0 180 180" style="enable-background:new 0 0 180 180;" xml:space="preserve">
<style type="text/css">
	.st0{fill:#0069B3;}
</style>
<g>
	<path class="st0" d="M61.6,58.5c-2.2,0-3.9,1.7-3.9,3.8v55.4c0,2.1,1.8,3.8,3.9,3.8h56.8c2.2,0,3.9-1.7,3.9-3.8V62.3
		c0-2.1-1.8-3.8-3.9-3.8H61.6z M118.4,124.8H61.6c-4,0-7.3-3.2-7.3-7.1V62.3c0-3.9,3.3-7.1,7.3-7.1h56.8c4,0,7.3,3.2,7.3,7.1v55.4
		C125.7,121.6,122.4,124.8,118.4,124.8"/>
	<path class="st0" d="M66.3,63.2c-2.3,0-4.2,1.9-4.2,4.1v46.2c0,2.3,1.9,4.1,4.2,4.1h47.4c2.3,0,4.2-1.9,4.2-4.1V67.3
		c0-2.3-1.9-4.1-4.2-4.1H66.3z M113.7,118.5H66.3c-2.8,0-5.1-2.2-5.1-4.9V67.3c0-2.7,2.3-4.9,5.1-4.9h47.4c2.8,0,5.1,2.2,5.1,4.9
		v46.2C118.8,116.3,116.5,118.5,113.7,118.5"/>
	<path class="st0" d="M68.4,65.6c-2.1,0-3.8,1.7-3.8,3.7v42.1c0,2.1,1.7,3.7,3.8,3.7h43.1c2.1,0,3.8-1.7,3.8-3.7V69.4
		c0-2.1-1.7-3.7-3.8-3.7H68.4z M111.6,116H68.4c-2.6,0-4.7-2-4.7-4.5V69.4c0-2.5,2.1-4.5,4.7-4.5h43.1c2.6,0,4.7,2,4.7,4.5v42.1
		C116.2,114,114.1,116,111.6,116"/>
	<path class="st0" d="M70.7,68.3c-1.9,0-3.4,1.5-3.4,3.3v37.7c0,1.8,1.5,3.3,3.4,3.3h38.6c1.9,0,3.4-1.5,3.4-3.3V71.6
		c0-1.8-1.5-3.3-3.4-3.3H70.7z M109.3,113.4H70.7c-2.3,0-4.2-1.8-4.2-4.1V71.6c0-2.3,1.9-4.1,4.2-4.1h38.6c2.3,0,4.2,1.8,4.2,4.1
		v37.7C113.5,111.5,111.6,113.4,109.3,113.4"/>
	<path class="st0" d="M72.9,70.8c-1.6,0-2.9,1.3-2.9,2.9v33.5c0,1.6,1.3,2.9,2.9,2.9h34.3c1.6,0,2.9-1.3,2.9-2.9V73.7
		c0-1.6-1.3-2.9-2.9-2.9H72.9z M107.1,110.8H72.9c-2.1,0-3.8-1.7-3.8-3.7V73.7c0-2,1.7-3.7,3.8-3.7h34.3c2.1,0,3.8,1.7,3.8,3.7v33.5
		C110.9,109.2,109.2,110.8,107.1,110.8"/>
	<path class="st0" d="M75.4,73.8c-1.3,0-2.4,1.1-2.4,2.4v28.4c0,1.3,1.1,2.4,2.4,2.4h29.1c1.3,0,2.4-1.1,2.4-2.4V76.2
		c0-1.3-1.1-2.4-2.4-2.4H75.4z M104.6,107.8H75.4c-1.8,0-3.3-1.4-3.3-3.2V76.2c0-1.8,1.5-3.2,3.3-3.2h29.1c1.8,0,3.3,1.4,3.3,3.2
		v28.4C107.8,106.4,106.4,107.8,104.6,107.8"/>
	<path class="st0" d="M98.6,100.1H81.4c-0.8,0-1.4-0.6-1.4-1.4V82.1c0-0.8,0.6-1.4,1.4-1.4h17.1c0.8,0,1.4,0.6,1.4,1.4v16.7
		C100,99.5,99.3,100.1,98.6,100.1"/>
</g>
</svg>
