<?xml version="1.0" encoding="utf-8"?>
<!-- Generator: Adobe Illustrator 27.2.0, SVG Export Plug-In . SVG Version: 6.00 Build 0)  -->
<svg version="1.1" id="Ebene_1" xmlns="http://www.w3.org/2000/svg" xmlns:xlink="http://www.w3.org/1999/xlink" x="0px" y="0px"
	 viewBox="0 0 180 180" style="enable-background:new 0 0 180 180;" xml:space="preserve">
<style type="text/css">
	.st0{fill:#0069B3;}
</style>
<path class="st0" d="M113.8,81.4c0-0.1,0-0.1,0-0.2c0-7.9-6.5-14.4-14.5-14.4c-6.2,0-11.5,3.9-13.5,9.3c-1.3-0.6-2.7-0.9-4.2-0.9
	c-4.3,0-7.9,2.6-9.4,6.3c-0.9-0.2-1.9-0.3-2.8-0.3c-6.8,0-12.2,5.4-12.2,12.1c0,6.7,5.5,12.1,12.2,12.1h41c6.8,0,12.4-5.5,12.4-12.3
	C122.8,87.6,119,82.9,113.8,81.4"/>
</svg>
