<?xml version="1.0" encoding="utf-8"?>
<!-- Generator: Adobe Illustrator 27.2.0, SVG Export Plug-In . SVG Version: 6.00 Build 0)  -->
<svg version="1.1" id="Ebene_1" xmlns="http://www.w3.org/2000/svg" xmlns:xlink="http://www.w3.org/1999/xlink" x="0px" y="0px"
	 viewBox="0 0 180 180" style="enable-background:new 0 0 180 180;" xml:space="preserve">
<style type="text/css">
	.st0{fill:#0E69B1;}
</style>
<path class="st0" d="M124,86.4v-6.6h-7.4L124,86.4z M109.7,78.4l-1.7-1.5l-1.6,1.5H109.7z M124,101.7h-21.3v19H124V101.7z
	 M124,100.3V91l-12.7-11.3h-6.2l-2.4,2.3v18.2H124z M124,78.4v-19h-21.3v17.9l5.3-5.2l7.1,6.3H124z M101.3,101.7H78.6v19h22.8V101.7
	z M101.3,100.3V83.4L84.8,99.6l-6.2-5.4v6H101.3z M100.1,79.8H78.6v9.8l6.1,5.2L100.1,79.8z M101.3,59.4H78.6v19h22.8V59.4z
	 M77.2,100.3v-7.2L72.4,89l-13.1,11.3H77.2z M77.2,120.6v-19H57.7l-1.7,1.5v17.5H77.2z M77.2,88.5v-8.7H56v18.7l16.4-14.2L77.2,88.5
	z M77.2,59.4H56v19h21.2V59.4z M126.2,122.9H53.8V57.1h72.3V122.9z"/>
</svg>
