<?xml version="1.0" encoding="utf-8"?>
<!-- Generator: Adobe Illustrator 27.2.0, SVG Export Plug-In . SVG Version: 6.00 Build 0)  -->
<svg version="1.1" id="Ebene_1" xmlns="http://www.w3.org/2000/svg" xmlns:xlink="http://www.w3.org/1999/xlink" x="0px" y="0px"
	 viewBox="0 0 180 180" style="enable-background:new 0 0 180 180;" xml:space="preserve">
<style type="text/css">
	.st0{fill:#0069B3;}
</style>
<g>
	<path class="st0" d="M90.3,57.3c-1.8,0-3.5,0.2-5.2,0.4c1.3,1.1,2.5,2.3,3.7,3.5c0.5,0,1,0,1.5,0c15.4,0,28,13,28,28.9
		c0,15.9-12.6,28.9-28,28.9c-13.7,0-25.1-10.2-27.5-23.6c-1.4-0.8-2.8-1.8-4.1-2.8c1.2,16.9,15,30.2,31.6,30.2
		c17.5,0,31.7-14.7,31.7-32.8C122.1,71.9,107.8,57.3,90.3,57.3"/>
	<polygon class="st0" points="57.9,107.5 70.6,103.7 58.4,84.7 	"/>
	<rect x="76.7" y="87.3" class="st0" width="3.4" height="21"/>
	<rect x="84.5" y="92.4" class="st0" width="3.4" height="15.9"/>
	<rect x="92.3" y="82.6" class="st0" width="3.4" height="25.6"/>
	<rect x="100.1" y="76" class="st0" width="3.4" height="32.2"/>
	<rect x="71.8" y="108.3" class="st0" width="37.2" height="1.4"/>
</g>
</svg>
