<?xml version="1.0" encoding="utf-8"?>
<!-- Generator: Adobe Illustrator 27.2.0, SVG Export Plug-In . SVG Version: 6.00 Build 0)  -->
<svg version="1.1" id="Ebene_1" xmlns="http://www.w3.org/2000/svg" xmlns:xlink="http://www.w3.org/1999/xlink" x="0px" y="0px"
	 viewBox="0 0 180 180" style="enable-background:new 0 0 180 180;" xml:space="preserve">
<style type="text/css">
	.st0{fill:#0E69B1;}
</style>
<g>
	<path class="st0" d="M115.5,98c0,1.2-1,2.2-2.3,2.2H67.1c-1.3,0-2.3-1-2.3-2.2V72.2c0-1.2,1-2.2,2.3-2.2h46.1c1.3,0,2.3,1,2.3,2.2
		V98z M115.8,66.3H64.2c-1.9,0-3.5,1.6-3.5,3.5v30.6c0,1.9,1.6,3.5,3.5,3.5h51.6c1.9,0,3.5-1.6,3.5-3.5V69.8
		C119.3,67.9,117.7,66.3,115.8,66.3"/>
	<polygon class="st0" points="82.3,106.7 81.5,113.7 98.5,113.7 97.7,106.7 	"/>
	<rect x="72.7" y="86.9" class="st0" width="5.3" height="12.6"/>
	<rect x="81.9" y="79.4" class="st0" width="5.2" height="19.8"/>
	<rect x="90.9" y="82.1" class="st0" width="5.2" height="17.1"/>
	<rect x="100.3" y="73.7" class="st0" width="5.2" height="25.8"/>
</g>
</svg>
