<?xml version="1.0" encoding="utf-8"?>
<!-- Generator: Adobe Illustrator 27.2.0, SVG Export Plug-In . SVG Version: 6.00 Build 0)  -->
<svg version="1.1" id="Ebene_1" xmlns="http://www.w3.org/2000/svg" xmlns:xlink="http://www.w3.org/1999/xlink" x="0px" y="0px"
	 viewBox="0 0 180 180" style="enable-background:new 0 0 180 180;" xml:space="preserve">
<style type="text/css">
	.st0{fill:#0069B3;}
</style>
<g>
	<rect x="66.1" y="65.1" class="st0" width="30.6" height="5.1"/>
	<rect x="66.2" y="72.7" class="st0" width="30.6" height="5.1"/>
	<rect x="66.2" y="80.3" class="st0" width="30.6" height="5.1"/>
	<rect x="66.3" y="88" class="st0" width="30.6" height="5.1"/>
	<rect x="66.4" y="95.6" class="st0" width="30.6" height="5.1"/>
	<rect x="66.5" y="103.3" class="st0" width="22.4" height="5.1"/>
	<path class="st0" d="M116.9,121.7h-34v-5.2h19.4v0h4.5v-4.8h-4.5v-2.4h12.1v-4.8h-12.1v-2.4h12v-4.8h-12V95h12v-4.8h-12v-2.4h11.9
		v-4.8h-11.9v-2.4h11.9V76h-11.9v-6h14.6V121.7z M63.3,58.6h36.4V114H63.3V58.6z M102.3,67.5V56H60.7v60.5h19.7v7.6h38.8V67.5H102.3
		z"/>
</g>
</svg>
