<?xml version="1.0" encoding="utf-8"?>
<!-- Generator: Adobe Illustrator 27.2.0, SVG Export Plug-In . SVG Version: 6.00 Build 0)  -->
<svg version="1.1" id="Ebene_1" xmlns="http://www.w3.org/2000/svg" xmlns:xlink="http://www.w3.org/1999/xlink" x="0px" y="0px"
	 viewBox="0 0 180 180" style="enable-background:new 0 0 180 180;" xml:space="preserve">
<style type="text/css">
	.st0{fill:#0069B3;}
</style>
<path class="st0" d="M135.3,79l-4.8,3.6c-0.1,0.8-0.6,1.2-1.4,1.3c-1,0-1.5-0.4-1.5-1.3c0-0.9,0.5-1.4,1.5-1.4c0.1,0,0.3,0,0.6,0.1
	l3.9-2.9c2.2-1.6,3.4-3.2,3.8-4.7l1.5,1.7C138.5,76.3,137.3,77.5,135.3,79 M140.5,70.7c-1-0.8-2.2-1.2-3.6-1.2c-2,0.1-4.2,1-6.4,2.7
	l-10,7.6c-0.7,0.6-1.1,1-1.1,1.4c0,0.2,0.1,0.4,0.2,0.6l-8.5,6.6c-3.6,2.8-6.6,5.9-8.9,9.4l-1.8,2.7c-0.5,0.7-0.7,1.2-0.7,1.4
	c0,0.8,0.4,1.1,1.2,1.1c0.2,0,0.4-0.1,0.7-0.2l0.5-0.2l3.3-1.2c4.2-1.5,8.4-3.9,12.8-7.3l7.2-5.6c0.3,0.3,0.7,0.4,1,0.4
	c0.3,0,0.5-0.1,0.8-0.4c0.1-0.1,0.2-0.2,0.3-0.3l10.2-7.9c2.9-2.3,4.4-4.4,4.3-6.4C142,72.6,141.5,71.5,140.5,70.7"/>
<path class="st0" d="M67.1,98c-0.7,3.9-3.9,7.8-7.2,7.8c-2.8,0-4.1-1.8-4.1-4.5c0-5.7,4.3-10.5,9.7-10.5c1.2,0,2.1,0.2,2.8,0.4
	L67.1,98z M43.8,100.2c0-12.9,9.5-21.1,20.7-21.1c11,0,17.1,6.7,17.1,15.8c0,7.7-3.9,11.7-7.2,11.6c-2.1-0.1-2.8-2.1-1.9-6.5
	l2.2-12.1c-1.8-0.9-5-1.5-8.1-1.5c-10,0-16.6,7.3-16.6,15.5c0,5.3,3.4,8.5,7.8,8.5c4,0,7.2-1.8,9.6-5.4h0.2c0.1,3.7,2.6,5.4,5.7,5.4
	c7.2,0,13-6,13-15.7c0-11.1-8.6-19.2-21-19.2C49.3,75.5,39,87.2,39,100.8c0,12.9,10.1,20.8,21.8,20.8c14.4,0,24.2-4.9,34.3-12.8
	l2.5-3.8c-14,8.8-23.5,12.9-35.7,12.9C51.4,117.9,43.8,111.3,43.8,100.2"/>
</svg>
