<?xml version="1.0" encoding="utf-8"?>
<!-- Generator: Adobe Illustrator 27.2.0, SVG Export Plug-In . SVG Version: 6.00 Build 0)  -->
<svg version="1.1" id="Ebene_1" xmlns="http://www.w3.org/2000/svg" xmlns:xlink="http://www.w3.org/1999/xlink" x="0px" y="0px"
	 viewBox="0 0 180 180" style="enable-background:new 0 0 180 180;" xml:space="preserve">
<style type="text/css">
	.st0{fill:#0069B3;}
</style>
<path class="st0" d="M85.1,98.5c0,2.1,0.9,3.5,2.9,3.5c2.3,0,4.5-3.1,5-6.1l0.8-5.4c-0.4-0.2-1.1-0.3-1.9-0.3
	C88.1,90.3,85.1,94.1,85.1,98.5"/>
<path class="st0" d="M129.5,119.8V62.7l-21.8,22.8c-0.3-0.7-0.7-1.3-1.1-1.9l21.5-22.5H52.9l21.3,22.3c-0.4,0.6-0.8,1.2-1.1,1.9
	L51.5,62.7v57.2L70,100.4c0.1,0.9,0.2,1.7,0.4,2.6l-17.6,18.4h75.2l-15.9-16.6c-7,6-13.8,9.8-23.7,9.8c-8.2,0-15.3-6.2-15.3-16.4
	c0-10.7,7.3-19.9,18.4-19.9c8.7,0,14.8,6.4,14.8,15.1c0,7.7-4.1,12.4-9.2,12.4c-2.2,0-3.9-1.4-4-4.3H93c-1.6,2.8-3.9,4.3-6.7,4.3
	c-3.1,0-5.5-2.5-5.5-6.7c0-6.4,4.7-12.2,11.7-12.2c2.2,0,4.4,0.5,5.7,1.2l-1.5,9.5c-0.6,3.4-0.2,5.1,1.3,5.1
	c2.3,0.1,5.1-3.1,5.1-9.1c0-7.1-4.2-12.4-12-12.4c-7.9,0-14.5,6.5-14.5,16.7c0,8.7,5.3,13.9,12.7,13.9c8.6,0,15.3-3.2,25.1-10.2
	l-0.9,1.6L129.5,119.8z"/>
</svg>
