<?xml version="1.0" encoding="utf-8"?>
<!-- Generator: Adobe Illustrator 27.2.0, SVG Export Plug-In . SVG Version: 6.00 Build 0)  -->
<svg version="1.1" id="Ebene_1" xmlns="http://www.w3.org/2000/svg" xmlns:xlink="http://www.w3.org/1999/xlink" x="0px" y="0px"
	 viewBox="0 0 180 180" style="enable-background:new 0 0 180 180;" xml:space="preserve">
<style type="text/css">
	.st0{fill:#0069B4;}
</style>
<g>
	<path class="st0" d="M112.5,111.9c2,0,3.5-1.6,3.5-3.5c0-1.9-1.6-3.5-3.5-3.5c-2,0-3.5,1.6-3.5,3.5
		C108.9,110.3,110.5,111.9,112.5,111.9"/>
	<path class="st0" d="M102.1,97.1c-0.6,2.7-3.1,4.8-6.1,4.8c-3.4,0-6.2-2.7-6.2-6.1c0-3.3,2.8-6.1,6.2-6.1c3,0,5.4,2,6.1,4.8h23.6
		V64.7c0-5.2-4.3-9.5-9.7-9.5H97.3v17.4c2.8,0.6,4.9,3,4.9,5.9c0,3.3-2.8,6.1-6.2,6.1s-6.2-2.7-6.2-6.1c0-2.9,2.1-5.3,4.9-5.9V55.2
		H82v21.4h0l0.1,0.1l-8.5,6.7c0.4,0.8,0.7,1.7,0.7,2.7c0,3.3-2.8,6.1-6.2,6.1s-6.2-2.7-6.2-6.1c0-3.3,2.8-6.1,6.2-6.1
		c1.4,0,2.8,0.5,3.8,1.3l7.5-5.9V55.2H64c-5.4,0-9.7,4.2-9.7,9.5v42.5h16.1c0.6-2.7,3.1-4.8,6.1-4.8c3.4,0,6.2,2.7,6.2,6.1
		c0,3.3-2.8,6.1-6.2,6.1c-3,0-5.4-2-6.1-4.8H54.3v5.6c0,5.2,4.3,9.5,9.7,9.5h37.8v-9.5h0l0,0l5.1-4.1c-0.4-0.8-0.7-1.7-0.7-2.7
		c0-3.3,2.8-6.1,6.2-6.1c3.4,0,6.2,2.7,6.2,6.1c0,3.3-2.8,6.1-6.2,6.1c-1.5,0-2.8-0.5-3.9-1.4l-4.1,3.3v8.3H116
		c5.4,0,9.7-4.2,9.7-9.5V97.1H102.1z"/>
	<path class="st0" d="M92.5,78.5c0,1.9,1.6,3.5,3.5,3.5c2,0,3.5-1.6,3.5-3.5c0-1.9-1.6-3.5-3.5-3.5C94.1,75.1,92.5,76.6,92.5,78.5"
		/>
	<path class="st0" d="M92.5,95.8c0,1.9,1.6,3.5,3.5,3.5c2,0,3.5-1.6,3.5-3.5c0-1.9-1.6-3.5-3.5-3.5C94.1,92.4,92.5,93.9,92.5,95.8"
		/>
	<path class="st0" d="M80,108.4c0-1.9-1.6-3.5-3.5-3.5c-2,0-3.5,1.6-3.5,3.5s1.6,3.5,3.5,3.5C78.4,111.9,80,110.3,80,108.4"/>
	<path class="st0" d="M68,82.6c-2,0-3.5,1.6-3.5,3.5c0,1.9,1.6,3.5,3.5,3.5c2,0,3.5-1.6,3.5-3.5C71.6,84.2,70,82.6,68,82.6"/>
</g>
</svg>
