<?xml version="1.0" encoding="utf-8"?>
<!-- Generator: Adobe Illustrator 27.2.0, SVG Export Plug-In . SVG Version: 6.00 Build 0)  -->
<svg version="1.1" id="Ebene_1" xmlns="http://www.w3.org/2000/svg" xmlns:xlink="http://www.w3.org/1999/xlink" x="0px" y="0px"
	 viewBox="0 0 180 180" style="enable-background:new 0 0 180 180;" xml:space="preserve">
<style type="text/css">
	.st0{fill:#0069B3;}
</style>
<g>
	<path class="st0" d="M112,67c-7.7,7.3-15,14.2-22.3,21.1c0.1,0.2,0.3,0.4,0.4,0.7h20.4c0,0.1,0.1,0.3,0.1,0.4
		C97,99.9,83.4,110.8,69.8,121.7c-0.1-0.1-0.2-0.1-0.3-0.2c4.8-7.7,9.6-15.4,14.6-23.4H67c0.5-0.8,0.8-1.2,1.2-1.7
		c7.5-9.4,15-18.8,22.4-28.2c0.7-0.9,1.5-1.4,2.8-1.4c5.4,0.1,10.8,0,16.2,0C110.2,66.9,110.8,66.9,112,67"/>
	<path class="st0" d="M87.8,50.1c-23.5,0-42.6,19.1-42.6,42.6c0,14.2,7,26.8,17.7,34.5l2.4-1.9c-10.4-7.2-17.2-19.1-17.2-32.6
		C48.1,70.8,66,53,87.8,53s39.7,17.8,39.7,39.7c0,0.8-0.1,1.6-0.1,2.4l3-1.5c0-0.3,0-0.6,0-0.9C130.4,69.2,111.3,50.1,87.8,50.1z"/>
	<path class="st0" d="M131.5,82.7h-7.9c-1.8,0-3.3,1.5-3.3,3.3v0.7v3v7.2h1.7v7.3c0,0.9,0.8,1.7,1.7,1.7c0.9,0,1.7-0.8,1.7-1.7v-7.3
		h4.4v7.3c0,0.9,0.8,1.7,1.7,1.7c0.9,0,1.7-0.8,1.7-1.7v-7.3h1.7v-7.2v-3V86C134.8,84.2,133.3,82.7,131.5,82.7z"/>
	<path class="st0" d="M127.4,116.1h-2.6v-3.8c0-0.5-0.4-1-1-1h-1.5H90.9c-0.8,0-1.4,0.6-1.4,1.4v15.8c0,0.8,0.6,1.4,1.4,1.4h31.5
		h1.5c0.5,0,1-0.4,1-1v-3.8h2.6c0.5,0,1-0.4,1-1v-7C128.4,116.6,128,116.1,127.4,116.1z M99.9,127.1c0,0.4-0.3,0.7-0.7,0.7h-6.3
		c-0.4,0-0.7-0.3-0.7-0.7v-13c0-0.4,0.3-0.7,0.7-0.7h6.3c0.4,0,0.7,0.3,0.7,0.7V127.1z M109.5,127.1c0,0.4-0.3,0.7-0.7,0.7h-6.3
		c-0.4,0-0.7-0.3-0.7-0.7v-13c0-0.4,0.3-0.7,0.7-0.7h6.3c0.4,0,0.7,0.3,0.7,0.7V127.1z M119,127.1c0,0.4-0.3,0.7-0.7,0.7h-6.3
		c-0.4,0-0.7-0.3-0.7-0.7v-13c0-0.4,0.3-0.7,0.7-0.7h6.3c0.4,0,0.7,0.3,0.7,0.7V127.1z"/>
</g>
</svg>
