<?xml version="1.0" encoding="utf-8"?>
<!-- Generator: Adobe Illustrator 27.2.0, SVG Export Plug-In . SVG Version: 6.00 Build 0)  -->
<svg version="1.1" id="Ebene_1" xmlns="http://www.w3.org/2000/svg" xmlns:xlink="http://www.w3.org/1999/xlink" x="0px" y="0px"
	 viewBox="0 0 180 180" style="enable-background:new 0 0 180 180;" xml:space="preserve">
<style type="text/css">
	.st0{fill:#0069B3;}
</style>
<g>
	<path class="st0" d="M90.3,106c-8.9,0-16.1-7.1-16.1-15.8c0-8.7,7.2-15.8,16.1-15.8c8.9,0,16.1,7.1,16.1,15.8
		C106.4,99,99.2,106,90.3,106 M90.3,65.4c-14,0-25.4,11.1-25.4,24.9c0,13.7,11.4,24.9,25.4,24.9c14,0,25.4-11.1,25.4-24.9
		C115.7,76.5,104.3,65.4,90.3,65.4"/>
	<path class="st0" d="M63.3,77.5l-0.6-18h-0.5h-0.4L61.6,74c0,0.2-0.2,0.4-0.5,0.4c-0.3,0-0.5-0.2-0.5-0.4l-0.1-14.5h-0.6h-0.5
		L59.3,74c0,0.2-0.2,0.4-0.5,0.4c-0.3,0-0.5-0.2-0.5-0.4l-0.1-14.5h-0.5h-0.5L57.1,74c0,0.2-0.2,0.4-0.5,0.4c-0.3,0-0.5-0.2-0.5-0.4
		L56,59.5h-0.5h-0.5l-0.6,18.3c0.2,1.8,1.5,3.3,3.1,3.8l-0.9,38h0c0,0.6,1,1,2.2,1c1.2,0,2.2-0.5,2.2-1h0l-0.9-38
		C61.9,81,63.1,79.4,63.3,77.5"/>
	<path class="st0" d="M125.1,93.4L125.1,93.4c0-0.7,0-1.5,0-2.2h0l0-0.1v-0.4c0.1-9.8,0.1-19.5,0.2-29.3c0-0.5-0.1-1.1-0.3-1.6
		c-0.3-0.7-0.9-0.8-1.4-0.2c-0.5,0.6-1,1.2-1.3,1.9c-1.3,2.8-1.7,5.7-2.1,8.7c-0.7,5.4-0.6,10.8-0.7,16.3c0,1.9,0.3,3.3,2,4.3
		c0.3,0.2,0.4,0.4,0.5,0.7l-0.6,28.4h0c0,0.6,1,1,2.2,1c1.2,0,2.2-0.5,2.2-1h0L125.1,93.4z"/>
</g>
</svg>
