<?xml version="1.0" encoding="utf-8"?>
<!-- Generator: Adobe Illustrator 27.2.0, SVG Export Plug-In . SVG Version: 6.00 Build 0)  -->
<svg version="1.1" id="Ebene_1" xmlns="http://www.w3.org/2000/svg" xmlns:xlink="http://www.w3.org/1999/xlink" x="0px" y="0px"
	 viewBox="0 0 180 180" style="enable-background:new 0 0 180 180;" xml:space="preserve">
<style type="text/css">
	.st0{fill:#0069B3;}
</style>
<g>
	<path class="st0" d="M120.2,83.2V63.7h-6.6v19.4h-2.8V63.7h-6.6v19.4h-4.9v-8.8h-6.6v8.8H80.8v6.3h20.5v18.5h28.5V83.2H120.2z
		 M107.8,103.3h-4.9v-6h4.9V103.3z M107.8,95.5h-4.9v-6h4.9V95.5z M114.7,103.3h-4.9v-6h4.9V103.3z M114.7,95.5h-4.9v-6h4.9V95.5z
		 M121.5,103.3h-4.9v-6h4.9V103.3z M121.5,95.5h-4.9v-6h4.9V95.5z M128.4,103.3h-4.9v-6h4.9V103.3z M128.4,95.5h-4.9v-6h4.9V95.5z"
		/>
	<path class="st0" d="M50.2,116.3h26.6V99.4h8v16.9h1.5V99.4h8v16.9h4.9V91.5H50.2V116.3z M68.6,99.4h4.9v13.4h-4.9V99.4z
		 M61.3,99.4h4.9v13.4h-4.9V99.4z M53.9,99.4h4.9v13.4h-4.9V99.4z"/>
</g>
</svg>
