<?xml version="1.0" encoding="utf-8"?>
<!-- Generator: Adobe Illustrator 27.2.0, SVG Export Plug-In . SVG Version: 6.00 Build 0)  -->
<svg version="1.1" id="Ebene_1" xmlns="http://www.w3.org/2000/svg" xmlns:xlink="http://www.w3.org/1999/xlink" x="0px" y="0px"
	 viewBox="0 0 180 180" style="enable-background:new 0 0 180 180;" xml:space="preserve">
<style type="text/css">
	.st0{fill:#0069B4;}
</style>
<path class="st0" d="M115,108.6c0,1-0.8,1.9-1.8,1.9H67.4c-1,0-1.8-0.8-1.8-1.9v-3.4c0-1,0.8-1.9,1.8-1.9h45.7c1,0,1.8,0.8,1.8,1.9
	V108.6z M75.7,88.5h29.2v2H75.7V88.5z M75.7,84h29.2v2H75.7V84z M75.7,79.5h29.2v2H75.7V79.5z M75.7,75.1h29.2v2H75.7V75.1z
	 M75.7,70.6h29.2v2H75.7V70.6z M75.7,66.1h29.2v2H75.7V66.1z M118.2,91.3h-8.4V58h-39v33.3h-8.4c-2.5,0-4.6,2.1-4.6,4.7v21.9
	c0,2.6,2.1,4.7,4.6,4.7h48.8c6.4,0,11.6-5.3,11.6-11.8V96C122.8,93.4,120.7,91.3,118.2,91.3"/>
</svg>
