<?xml version="1.0" encoding="utf-8"?>
<!-- Generator: Adobe Illustrator 27.2.0, SVG Export Plug-In . SVG Version: 6.00 Build 0)  -->
<svg version="1.1" id="Ebene_1" xmlns="http://www.w3.org/2000/svg" xmlns:xlink="http://www.w3.org/1999/xlink" x="0px" y="0px"
	 viewBox="0 0 180 180" style="enable-background:new 0 0 180 180;" xml:space="preserve">
<style type="text/css">
	.st0{fill:#0069B3;}
</style>
<g>
	<g>
		<g>
			
				<rect x="109.1" y="69" transform="matrix(0.8091 0.5876 -0.5876 0.8091 63.3863 -52.0054)" class="st0" width="5.2" height="5.2"/>
			
				<rect x="110.3" y="76.3" transform="matrix(0.8091 0.5876 -0.5876 0.8091 67.9023 -51.2914)" class="st0" width="5.2" height="5.2"/>
			
				<rect x="111.4" y="83.6" transform="matrix(0.8091 0.5876 -0.5876 0.8091 72.4182 -50.5774)" class="st0" width="5.2" height="5.2"/>
			
				<rect x="103" y="77.4" transform="matrix(0.8091 0.5876 -0.5876 0.8091 67.1882 -46.7755)" class="st0" width="5.2" height="5.2"/>
			
				<rect x="104.1" y="84.7" transform="matrix(0.8091 0.5876 -0.5876 0.8091 71.7042 -46.0614)" class="st0" width="5.2" height="5.2"/>
			
				<rect x="112.6" y="90.9" transform="matrix(0.8091 0.5876 -0.5876 0.8091 76.9341 -49.8633)" class="st0" width="5.2" height="5.2"/>
			
				<rect x="117.6" y="75.1" transform="matrix(0.8091 0.5876 -0.5876 0.8091 68.6163 -55.8073)" class="st0" width="5.2" height="5.2"/>
			
				<rect x="118.8" y="82.4" transform="matrix(0.8091 0.5876 -0.5876 0.8091 73.1322 -55.0933)" class="st0" width="5.2" height="5.2"/>
			
				<rect x="119.9" y="89.7" transform="matrix(0.8091 0.5876 -0.5876 0.8091 77.6482 -54.3793)" class="st0" width="5.2" height="5.2"/>
			
				<rect x="121.1" y="97" transform="matrix(0.8091 0.5876 -0.5876 0.8091 82.1641 -53.6652)" class="st0" width="5.2" height="5.2"/>
			
				<rect x="126.1" y="81.3" transform="matrix(0.8091 0.5876 -0.5876 0.8091 73.8463 -59.6092)" class="st0" width="5.2" height="5.2"/>
			
				<rect x="127.2" y="88.6" transform="matrix(0.8091 0.5876 -0.5876 0.8091 78.3622 -58.8952)" class="st0" width="5.2" height="5.2"/>
			
				<rect x="128.4" y="95.9" transform="matrix(0.8091 0.5876 -0.5876 0.8091 82.8781 -58.1811)" class="st0" width="5.2" height="5.2"/>
			
				<rect x="105.3" y="92" transform="matrix(0.8091 0.5876 -0.5876 0.8091 76.2201 -45.3474)" class="st0" width="5.2" height="5.2"/>
			
				<rect x="96.8" y="85.9" transform="matrix(0.8091 0.5876 -0.5876 0.8091 70.9901 -41.5455)" class="st0" width="5.2" height="5.2"/>
			
				<rect x="113.8" y="98.2" transform="matrix(0.8091 0.5876 -0.5876 0.8091 81.4501 -49.1493)" class="st0" width="5.2" height="5.2"/>
			
				<rect x="122.2" y="104.3" transform="matrix(0.8091 0.5876 -0.5876 0.8091 86.68 -52.9512)" class="st0" width="5.2" height="5.2"/>
			
				<rect x="129.5" y="103.2" transform="matrix(0.8091 0.5876 -0.5876 0.8091 87.3941 -57.4671)" class="st0" width="5.2" height="5.2"/>
			
				<rect x="134.5" y="87.4" transform="matrix(0.8091 0.5876 -0.5876 0.8091 79.0762 -63.4111)" class="st0" width="5.2" height="5.2"/>
			
				<rect x="136.8" y="102" transform="matrix(0.8091 0.5876 -0.5876 0.8091 88.1081 -61.983)" class="st0" width="5.2" height="5.2"/>
			
				<rect x="130.7" y="110.5" transform="matrix(0.8091 0.5876 -0.5876 0.8091 91.91 -56.7531)" class="st0" width="5.2" height="5.2"/>
			
				<rect x="143" y="93.5" transform="matrix(0.8091 0.5876 -0.5876 0.8091 84.3062 -67.213)" class="st0" width="5.2" height="5.2"/>
			
				<rect x="135.7" y="94.7" transform="matrix(0.8091 0.5876 -0.5876 0.8091 83.5922 -62.6971)" class="st0" width="5.2" height="5.2"/>
			<path class="st0" d="M76.9,111.6l0.7,0.5c0.1,0.1,0.2,0,0.3,0L111.4,66c0.1-0.1,0-0.2,0-0.3l-0.7-0.5c-0.1-0.1-0.2,0-0.3,0
				l-33.5,46.2C76.8,111.5,76.8,111.6,76.9,111.6z"/>
		</g>
		<path class="st0" d="M112.5,67.4l-3.6-2.6c-0.1-0.1-0.2-0.3-0.1-0.4l0.7-1c0.1-0.1,0.3-0.2,0.4-0.1l3.6,2.6
			c0.1,0.1,0.2,0.3,0.1,0.4l-0.7,1C112.8,67.4,112.6,67.5,112.5,67.4z"/>
	</g>
	<g>
		<g>
			
				<rect x="65.6" y="69" transform="matrix(-0.8091 0.5876 -0.5876 -0.8091 165.5377 89.3651)" class="st0" width="5.2" height="5.2"/>
			
				<rect x="64.5" y="76.3" transform="matrix(-0.8091 0.5876 -0.5876 -0.8091 167.7359 103.2678)" class="st0" width="5.2" height="5.2"/>
			
				<rect x="63.3" y="83.6" transform="matrix(-0.8091 0.5876 -0.5876 -0.8091 169.9342 117.1706)" class="st0" width="5.2" height="5.2"/>
			
				<rect x="71.8" y="77.4" transform="matrix(-0.8091 0.5876 -0.5876 -0.8091 181.6387 101.0696)" class="st0" width="5.2" height="5.2"/>
			
				<rect x="70.6" y="84.7" transform="matrix(-0.8091 0.5876 -0.5876 -0.8091 183.8369 114.9723)" class="st0" width="5.2" height="5.2"/>
			
				<rect x="62.2" y="90.9" transform="matrix(-0.8091 0.5876 -0.5876 -0.8091 172.1324 131.0733)" class="st0" width="5.2" height="5.2"/>
			
				<rect x="57.2" y="75.1" transform="matrix(-0.8091 0.5876 -0.5876 -0.8091 153.8332 105.4661)" class="st0" width="5.2" height="5.2"/>
			
				<rect x="56" y="82.4" transform="matrix(-0.8091 0.5876 -0.5876 -0.8091 156.0314 119.3688)" class="st0" width="5.2" height="5.2"/>
			
				<rect x="54.9" y="89.7" transform="matrix(-0.8091 0.5876 -0.5876 -0.8091 158.2297 133.2715)" class="st0" width="5.2" height="5.2"/>
			
				<rect x="53.7" y="97" transform="matrix(-0.8091 0.5876 -0.5876 -0.8091 160.4279 147.1743)" class="st0" width="5.2" height="5.2"/>
			
				<rect x="48.7" y="81.3" transform="matrix(-0.8091 0.5876 -0.5876 -0.8091 142.1287 121.5671)" class="st0" width="5.2" height="5.2"/>
			
				<rect x="47.5" y="88.6" transform="matrix(-0.8091 0.5876 -0.5876 -0.8091 144.3269 135.4698)" class="st0" width="5.2" height="5.2"/>
			
				<rect x="46.4" y="95.9" transform="matrix(-0.8091 0.5876 -0.5876 -0.8091 146.5252 149.3725)" class="st0" width="5.2" height="5.2"/>
			
				<rect x="69.5" y="92" transform="matrix(-0.8091 0.5876 -0.5876 -0.8091 186.0351 128.875)" class="st0" width="5.2" height="5.2"/>
			
				<rect x="77.9" y="85.9" transform="matrix(-0.8091 0.5876 -0.5876 -0.8091 197.7396 112.7741)" class="st0" width="5.2" height="5.2"/>
			
				<rect x="61" y="98.2" transform="matrix(-0.8091 0.5876 -0.5876 -0.8091 174.3307 144.976)" class="st0" width="5.2" height="5.2"/>
			
				<rect x="52.5" y="104.3" transform="matrix(-0.8091 0.5876 -0.5876 -0.8091 162.6262 161.077)" class="st0" width="5.2" height="5.2"/>
			
				<rect x="45.2" y="103.2" transform="matrix(-0.8091 0.5876 -0.5876 -0.8091 148.7234 163.2753)" class="st0" width="5.2" height="5.2"/>
			
				<rect x="40.2" y="87.4" transform="matrix(-0.8091 0.5876 -0.5876 -0.8091 130.4242 137.668)" class="st0" width="5.2" height="5.2"/>
			
				<rect x="37.9" y="102" transform="matrix(-0.8091 0.5876 -0.5876 -0.8091 134.8207 165.4735)" class="st0" width="5.2" height="5.2"/>
			
				<rect x="44.1" y="110.5" transform="matrix(-0.8091 0.5876 -0.5876 -0.8091 150.9217 177.178)" class="st0" width="5.2" height="5.2"/>
			
				<rect x="31.8" y="93.5" transform="matrix(-0.8091 0.5876 -0.5876 -0.8091 118.7197 153.769)" class="st0" width="5.2" height="5.2"/>
			
				<rect x="39.1" y="94.7" transform="matrix(-0.8091 0.5876 -0.5876 -0.8091 132.6225 151.5708)" class="st0" width="5.2" height="5.2"/>
			<path class="st0" d="M103.1,111.6l-0.7,0.5c-0.1,0.1-0.2,0-0.3,0L68.6,66c-0.1-0.1,0-0.2,0-0.3l0.7-0.5c0.1-0.1,0.2,0,0.3,0
				l33.5,46.2C103.2,111.5,103.2,111.6,103.1,111.6z"/>
		</g>
		<path class="st0" d="M67.5,67.4l3.6-2.6c0.1-0.1,0.2-0.3,0.1-0.4l-0.7-1c-0.1-0.1-0.3-0.2-0.4-0.1l-3.6,2.6
			c-0.1,0.1-0.2,0.3-0.1,0.4l0.7,1C67.2,67.4,67.4,67.5,67.5,67.4z"/>
	</g>
</g>
</svg>
