<?xml version="1.0" encoding="utf-8"?>
<!-- Generator: Adobe Illustrator 27.2.0, SVG Export Plug-In . SVG Version: 6.00 Build 0)  -->
<svg version="1.1" id="Ebene_1" xmlns="http://www.w3.org/2000/svg" xmlns:xlink="http://www.w3.org/1999/xlink" x="0px" y="0px"
	 viewBox="0 0 180 180" style="enable-background:new 0 0 180 180;" xml:space="preserve">
<style type="text/css">
	.st0{fill:#096AB2;}
</style>
<g>
	<path class="st0" d="M121,72H59c-2.4,0-4.3,1.9-4.3,4.3v30.7c0,2.4,1.9,4.3,4.3,4.3h12.8c-2.9-3.9-4.6-8.6-4.6-13.8
		c0-12.8,10.4-23.2,23.2-23.2s23.2,10.4,23.2,23.2c0,5.2-1.7,10-4.6,13.8H121c2.4,0,4.3-1.9,4.3-4.3V76.4C125.4,74,123.4,72,121,72z
		"/>
	<path class="st0" d="M80.9,70.6H88h5h7.1c0.5,0,0.8-0.4,0.7-0.8l-2.3-7.4c-0.1-0.3-0.4-0.5-0.7-0.5h-4.8h-5h-4.8
		c-0.3,0-0.6,0.2-0.7,0.5l-2.3,7.4C80.1,70.2,80.5,70.6,80.9,70.6z"/>
	<path class="st0" d="M90.5,77.1C79.2,77.1,70,86.3,70,97.6c0,11.3,9.2,20.5,20.5,20.5c11.3,0,20.5-9.2,20.5-20.5
		C110.9,86.3,101.8,77.1,90.5,77.1z M90.5,114c-9.1,0-16.4-7.4-16.4-16.4c0-9.1,7.4-16.4,16.4-16.4s16.4,7.4,16.4,16.4
		C106.9,106.7,99.5,114,90.5,114z"/>
	<path class="st0" d="M63.6,70.3h8.6c1.1,0,2-0.9,2-2c0-1.1-0.9-2-2-2h-8.6c-1.1,0-2,0.9-2,2C61.6,69.4,62.5,70.3,63.6,70.3z"/>
</g>
</svg>
