<?xml version="1.0" encoding="utf-8"?>
<!-- Generator: Adobe Illustrator 27.2.0, SVG Export Plug-In . SVG Version: 6.00 Build 0)  -->
<svg version="1.1" id="Ebene_1" xmlns="http://www.w3.org/2000/svg" xmlns:xlink="http://www.w3.org/1999/xlink" x="0px" y="0px"
	 viewBox="0 0 180 180" style="enable-background:new 0 0 180 180;" xml:space="preserve">
<style type="text/css">
	.st0{fill:#0069B3;}
</style>
<g>
	<rect x="57.1" y="114.5" class="st0" width="65.9" height="2.9"/>
	<rect x="60.2" y="110" class="st0" width="59.6" height="2.9"/>
	<rect x="60.2" y="76.9" class="st0" width="59.6" height="2.9"/>
	<polygon class="st0" points="90,62.6 60.2,75.6 119.8,75.6 	"/>
	<path class="st0" d="M72.8,82.8c0.2,0.4,0.6,0.7,1,0.7c0.6,0,1.1-0.5,1.1-1.1c0-0.6-0.5-1.1-1-1.1v0h-8.2v0c-0.6,0.1-1,0.5-1,1.1
		c0,0.6,0.5,1.1,1.1,1.1c0.5,0,0.9-0.3,1-0.7h0v24.3h-1.2v1.3h1.2h5.9h1.1v-1.3h-1.1L72.8,82.8L72.8,82.8z"/>
	<path class="st0" d="M93,82.8c0.2,0.4,0.6,0.7,1,0.7c0.6,0,1.1-0.5,1.1-1.1c0-0.6-0.5-1.1-1-1.1v0h-8.2v0c-0.6,0.1-1,0.5-1,1.1
		c0,0.6,0.5,1.1,1.1,1.1c0.5,0,0.9-0.3,1-0.7h0v24.3h-1.2v1.3h1.2H93h1.1v-1.3H93L93,82.8L93,82.8z"/>
	<path class="st0" d="M113.1,82.8c0.2,0.4,0.6,0.7,1,0.7c0.6,0,1.1-0.5,1.1-1.1c0-0.6-0.5-1.1-1-1.1v0H106v0c-0.6,0.1-1,0.5-1,1.1
		c0,0.6,0.5,1.1,1.1,1.1c0.5,0,0.9-0.3,1-0.7h0v24.3H106v1.3h1.2h5.9h1.1v-1.3h-1.1L113.1,82.8L113.1,82.8z"/>
</g>
</svg>
