<?xml version="1.0" encoding="utf-8"?>
<!-- Generator: Adobe Illustrator 27.2.0, SVG Export Plug-In . SVG Version: 6.00 Build 0)  -->
<svg version="1.1" id="Ebene_1" xmlns="http://www.w3.org/2000/svg" xmlns:xlink="http://www.w3.org/1999/xlink" x="0px" y="0px"
	 viewBox="0 0 180 180" style="enable-background:new 0 0 180 180;" xml:space="preserve">
<style type="text/css">
	.st0{fill:#0069B4;}
</style>
<g>
	<path class="st0" d="M113.4,110.3l6.3,0.9l6.4-11.4l-10.8-1.6c-3.8,10.3-13.6,17.6-25.1,17.6c-14.8,0-26.8-12.2-26.8-27.2
		c0-13.4,9.5-24.5,22-26.8L81,58.2c0,0,0,0,0,0l-5-4l-11.2,6.6l4.9,3.9c-0.8,0.7-1.6,1.5-2.4,2.4L61,66.1l-6.5,11.4l6.2,0.9
		c-0.4,1.1-0.7,2.2-0.9,3.3l-5.9,2.4v13.1l5.8-2.3c0.2,1.1,0.5,2.2,0.8,3.3l-4,5.1l6.5,11.4l3.9-5c0.7,0.9,1.5,1.7,2.3,2.4l-0.9,6.4
		l11.2,6.6l0.9-6.2c1.1,0.4,2.1,0.7,3.2,0.9l2.4,6h12.9l-2.3-5.9c1.1-0.2,2.2-0.5,3.2-0.8l5,4l11.2-6.6l-4.9-3.9
		C111.8,111.9,112.6,111.1,113.4,110.3z"/>
	<path class="st0" d="M87.4,74.1c-0.4,0.3-0.8,0.5-1,0.9c-0.4,0.7-1.2,0.9-1.4,1.7c-0.1-0.1-0.3-0.2-0.5-0.2
		c-0.1,0.3-0.1,0.5-0.2,0.8c-0.2,0-0.3-0.4-0.6,0c0.4,0.5,0.8,1,1.1,1.5c-0.3,0.6-0.7,1-1.3,0.8c-0.6-0.3-1,0-1.4,0.1
		c0,1,0.1,1.8,0.1,2.7c1.4,1,2.1-0.4,3.1-0.9c0-0.3-0.1-0.6-0.1-0.9c1-0.5,1-0.5,1.4-1.6c0.2,0.1,0.4,0.1,0.7,0.2
		c0.3-0.3,0.6-0.5,0.8-0.7c1,0.6,1.9,1.1,3.1,1.8c-0.7,0.1-1.1,0.2-2,0.4c0.6,0.3,0.9,0.4,1.1,0.5c0.7-0.4,1.2-1,1.2-2
		c-0.3-0.1-0.6-0.3-0.8-0.3c-0.6-0.2-1.2-0.4-1.4-1.4c0.7,0.4,1.1,0.9,1.5,1c0.7,0,0.9,0.4,1.2,0.8c0.2,0.3,0.3,0.7,0.5,0.9
		c0.2,0.2,0.5,0.3,0.8,0.4c0.1,0.1,0.2,0.2,0.2,0.2c0.3-0.4,0.5-0.7,0.7-1c-0.5-0.3-0.7-0.7,0.1-0.9c0.3,0.3,0.6,0.6,0.7,1
		c0.3,0.7,1,0.7,1.5,0.6c0.3-0.1,0.5-0.3,0.9-0.2c0.2,0.1,0.6-0.2,0.9-0.4c0.1,0.9,0.6,1.6-0.2,2.3c-1.3,0.1-2.6,1-4,0.1
		c-0.2-0.1-0.6,0.1-0.9,0.2c-0.1,0-0.2,0.1-0.3,0.2c0,0.3,0,0.7,0.1,1c-1-0.1-1.8-0.5-2.6-0.5c-0.8-0.1-1.1-0.5-1.3-1
		c-0.5-1.1-0.4-1.1-1.3-0.6c-0.2,0.1-0.4,0.3-0.6,0.3c-0.3,0-0.7-0.2-1-0.1c-0.3,0.1-0.5,0.4-0.9,0.5c-0.7,0.2-1.2,0.9-2.1,0.8
		c-0.1,0.5-1.1,0.3-0.9,1.1c-0.7,0.5-0.3,1.3-0.8,2c-0.3,0.4-0.9,0.9-1,1.4c-0.1,0.7-0.6,1.1-0.8,1.8c-0.1,0.4-0.1,0.8-0.2,1.2
		c0.3,0,0.5,0.1,0.8,0.1c0.1,1.1,0.2,2.3,0.2,3.2c0.6,0.6,1.3,0.6,1.5,1.4c0,0.1,2.2,1.2,2.3,1.2c1-0.3,2.1-0.2,3-0.9
		c0.4-0.3,1.3-0.5,1.6-0.2c0.7,0.4,1.2,0.2,1.9,0.1c0.2,0.9,0.4,1.8,0.6,2.7c1,0.4,1.1,1.4,1.7,2c0.4,0.4,0.4,0.7,0.3,1.2
		c-0.1,0.7-0.6,1.5,0,2c0.8,0.6,1.1,1.5,1.4,2.3c0.4,0.9,1.4,1.4,1.4,2.5c0.4-0.1,0.7-0.2,1-0.2c1.4-0.1,1.9-1.4,2.8-2.2
		c-0.3-0.9,0.5-1.3,0.9-1.9c0.4-0.6,0-1,0-1.4c0.4-0.4,0.6-0.7,0.9-1c0.4-0.4,1-0.6,0.9-1.4c-0.1-0.6,0.2-1.1,0-1.7
		c-0.2-0.6-0.3-1.3-0.4-1.9c0.6-1,1.1-2.1,1.8-2.8c1.3-1.2,1.8-2.5,1.8-4.2c-0.9,0-1.4,1.1-2.3,0.7c0.3-1.1,0.3-1.2,0.9-1.5
		c1.5-0.9,2.8-2,3.5-3.7c-0.1-0.2,0-0.5-0.2-0.7c-0.2-0.4-0.5-0.7-0.7-1.1c-0.1,0.2-0.2,0.3-0.3,0.4c-0.2-0.2-0.3-0.4-0.5-0.7
		c-0.1,0.4-0.1,0.6-0.1,0.9c-1-0.6-2.3-0.6-2.7-2.1c1.1-0.1,1.8,1.6,3.1,0.9c1,0.6,2.1,0.4,3,0.1c0.5,0.6,1,1.1,1.4,1.6
		c0.2-0.2,0.3-0.3,0.4-0.5c0.6,1.8,1.1,3.5,1.7,5.2c0.3,0.1,0.5,0.1,0.7,0.2c0.2,0.2,0.2,0.5,0.3,0.8c0.6-1-0.8-1.4-0.4-2.4
		c0.3-0.6-0.3-1.4,0.2-2.2c0.3-0.5,0.2-1.1,0.4-1.7c-1.9-9.1-9-16.1-17.9-18.1c-0.2,0.3-0.4,0.6-0.6,0.8c-0.1-0.1-0.2-0.1-0.4-0.3
		c-0.1,0.3-0.3,0.6-0.6,1.5c-0.3-0.5-0.5-0.8-0.6-1.1c0.2,0.7,0.4,1.3,0,1.9c-0.5-0.1-0.9-0.1-1.4-0.2c0,0,0-0.1,0-0.1
		c0.4-0.2,0.7-0.4,1-0.6c-0.2-0.2-0.2-0.4-0.3-0.4c-0.9-0.2-1.8-0.1-2.6-0.5c-0.1,0-0.2-0.1-0.3,0c-0.6,0.1-1.2,0.3-1.7,0.7
		c-0.4,0.4-1,0.8-1,1.4c0,0.9-0.7,1.2-1.1,1.6c-0.9,0.9-0.9,1.3,0,2.1c0.4-0.2,0.8-0.3,1.3-0.6c0.1,0.5,0.1,0.8,0.2,1.4
		c-0.3-0.4-0.5-0.7-0.8-1.1C87.5,72.9,87.4,73.4,87.4,74.1z M100,84.1c-0.1,0.9,1,1,1.2,1.9c0.2,0.6,1,1.1,1.4,1.6
		c0.4,0.5,0.5,1,0.6,1.5c-0.6-0.4-1.3-0.8-2-1.4c-0.2-1.7-1.9-2.6-2.7-4.3C99.1,83.3,99.5,83.9,100,84.1z M89.6,72.5
		c0-1.2-0.1-1.8-0.3-2.2c0.3-0.6,0.6-1.3,1-2c0.1,0.1,0.3,0.2,0.6,0.4c-0.1,0.2-0.2,0.3-0.3,0.5c-0.3,0.4-0.4,0.9,0.1,1.3
		c0.4,0.4,0.8,0.4,1.3,0c0.2-0.1,0.3-0.3,0.6-0.5c0.1,1.2-0.9,0.9-1.3,1.2c-0.2,0.7-0.3,1.3-0.5,1.9c-0.7,0.2-1.4,0.3-2.4,0.5
		C88.9,73.1,89.2,72.8,89.6,72.5z"/>
	<path class="st0" d="M69.9,97.1c-0.1-0.1-0.1-0.2-0.2-0.3c1.8,4.6,5,8.4,9.1,11c0.2-0.1,0.3-0.2,0.5-0.3c0-1.1-0.5-2-1-2.9
		c-0.2-0.3-0.5-0.8-0.4-0.9c0.5-0.7-0.1-1.3,0-1.9c-0.8-0.5-1.4-0.9-2.4-1c-1.2-0.2-2.6-0.5-3.2-2c-0.1-0.3-0.4-0.7-0.7-0.7
		C70.8,98,70.1,97.5,69.9,97.1z"/>
	<path class="st0" d="M81.1,68.7c0.5-0.9,1.4-1.5,2.1-2.2c-3.1,1.2-5.9,3-8.2,5.3c-0.1,0.3-0.2,0.6-0.4,1c-0.1,0.2,0.2,0.6,0.4,1
		c0.4-0.6,0.7-1.1,1-1.5c1.1-1.2,2.4-2.3,4-2.8C80.1,68.8,80.9,69.1,81.1,68.7z"/>
	<path class="st0" d="M71.6,75.9c-0.5,0.7-0.9,1.5-1.2,2.3c0.7-0.4,1.2-1,1.2-1.9C71.6,76.2,71.6,76.1,71.6,75.9z"/>
	<path class="st0" d="M69.3,80.9c0.1-0.2,0.2-0.3,0.2-0.5C69.4,80.6,69.3,80.8,69.3,80.9z"/>
	<path class="st0" d="M104.4,100.3c-0.1,0-0.2,0.2-0.2,0.2c0.1,1.1-0.9,2-0.4,3.3c0.4-0.1,0.6-0.1,0.8-0.2c0.3-0.7,0.5-1.4,0.9-2.1
		c0.4-0.8,1-1.7,0.4-2.7C105.3,99.3,105.3,100.2,104.4,100.3z"/>
	<path class="st0" d="M83.5,73.1c0,0-0.3-0.1-0.4-0.1c-0.7,1.1,1,1,0.9,2.2c0,0-0.3,0.2-0.5,0.4c0.6,0.9,1.2,0.3,1.8,0.3
		c0.1-0.3,0.2-0.5,0.3-0.8c-0.4-0.6-1.6-0.8-1.2-1.9C84,73.1,83.8,72.5,83.5,73.1z"/>
	<path class="st0" d="M79.8,70.8c0.5,0.4,1,0.6,1.4,0.1c0.2-0.3,1.1-0.3,0.5-1.1C81.1,70.1,80.2,69.8,79.8,70.8z"/>
	<path class="st0" d="M81.9,75.1c-0.1,0.3,0.1,0.7,0.2,1.3c0.5-0.7,0.8-1.2,1.3-1.9C82.3,74.6,82,74.7,81.9,75.1z"/>
</g>
</svg>
