<?xml version="1.0" encoding="utf-8"?>
<!-- Generator: Adobe Illustrator 27.2.0, SVG Export Plug-In . SVG Version: 6.00 Build 0)  -->
<svg version="1.1" id="Ebene_1" xmlns="http://www.w3.org/2000/svg" xmlns:xlink="http://www.w3.org/1999/xlink" x="0px" y="0px"
	 viewBox="0 0 180 180" style="enable-background:new 0 0 180 180;" xml:space="preserve">
<style type="text/css">
	.st0{fill:#0069B4;}
</style>
<g>
	<path class="st0" d="M119.7,111.4l6.4-11.2l-10.8-1.6c-3.8,10.1-13.6,17.3-25.1,17.3c-14.8,0-26.8-12-26.8-26.8
		c0-13.2,9.5-24.1,22-26.4L81,59.3c0,0,0,0,0,0l-5-4l-11.2,6.5l4.9,3.9c-0.8,0.7-1.6,1.5-2.4,2.3L61,67l-6.5,11.2l6.2,0.9
		c-0.4,1-0.7,2.1-0.9,3.2l-5.9,2.4v12.9l5.8-2.3c0.2,1.1,0.5,2.2,0.8,3.2l-4,5l6.5,11.2l3.9-4.9c0.7,0.8,1.5,1.6,2.3,2.4l-0.9,6.3
		l11.2,6.5l0.9-6.1c1.1,0.4,2.1,0.7,3.2,0.9l2.4,5.9h12.9l-2.3-5.8c1.1-0.2,2.2-0.5,3.2-0.8l5,4l11.2-6.5l-4.9-3.9
		c0.8-0.7,1.6-1.5,2.4-2.3L119.7,111.4z"/>
	<polygon class="st0" points="94.6,103.7 96.1,104.5 96.1,103 94.6,102.2 	"/>
	<polygon class="st0" points="94.6,101.2 96.1,102 96.1,100.5 94.6,99.6 	"/>
	<polygon class="st0" points="94.6,106.1 95.3,107.2 96.1,106.1 96.1,105.6 94.6,104.7 	"/>
	<path class="st0" d="M102.9,90l1.8,10.4l-8.5-5.8L102.9,90z M96.1,89.8h5.3l-5.3,3.6V89.8z M96.1,83.8l6.2,4.7h-6.2V83.8z
		 M96.1,78.9h3.7l-3.7,2.8V78.9z M96.1,75.4h4.3l0.4,2.2h-4.7V75.4z M96.1,68.5L100,74h-3.9V68.5z M96.1,66.5l2.2-3l1.5,8.4
		l-3.7-5.1V66.5z M96.1,57.5h1.1L98,62l-1.9,2.7V57.5z M102.5,87.4l-6.1-4.6l4.6-3.5L102.5,87.4z M94.6,64.7l-1.8-2.5l0.8-4.7h1
		V64.7z M94.6,66.7l-3.5,4.9l1.4-8l2.1,2.9V66.7z M94.6,74h-3.9l0,0l3.9-5.4V74z M94.6,77.6h-4.5l0.4-2.2h4.2V77.6z M94.6,81.4
		l-3.2-2.5h3.2V81.4z M94.6,82.9l-6.3,4.8l1.5-8.6l4.8,3.6V82.9z M94.6,88.5h-5.7l5.7-4.4V88.5z M94.6,93.4l-5.2-3.6h5.2V93.4z
		 M86,100.3l1.8-10.3l6.6,4.5L86,100.3z M106,101.4l-4-22.5h1.3v-5h-2.1l-2.9-16.5h1.3v-2.6h-1.7v-0.6h-5.2v0.6H91v2.6h1.5l-2.8,16
		L89.4,74h-2.1v5h1.4l-4,22.5h-2.3v1.1h5.1v-1.1h-1.3l8.3-5.7v2.9v0l1.5,0.8v-0.9h0v-2.9l8.4,5.7h-1.4v1.1h5.1v-1.1H106z"/>
</g>
</svg>
