<?xml version="1.0" encoding="utf-8"?>
<!-- Generator: Adobe Illustrator 27.3.1, SVG Export Plug-In . SVG Version: 6.00 Build 0)  -->
<svg version="1.1" id="Ebene_1" xmlns="http://www.w3.org/2000/svg" xmlns:xlink="http://www.w3.org/1999/xlink" x="0px" y="0px"
	 viewBox="0 0 180 180" style="enable-background:new 0 0 180 180;" xml:space="preserve">
<style type="text/css">
	.st0{fill:#0069B3;}
</style>
<path class="st0" d="M127.4,115.4l-14.2-13.3l-0.6-0.6l-10.2-7.4c-0.1,0-0.1-0.1-0.2-0.1l-9.6-9.6l7.3-7.3h0l12.4-12.4l0.7,0.7
	c1,1,2.7,1,3.8,0l4.2-4.9c0.9-1,0.9-2.7-0.1-3.7l-2.7-2.7c-1-1-2.6-1-3.7-0.1l-4.9,4.2c-1,1-1,2.7,0,3.8l0.9,0.9L98,75.6h0l-5.8,5.8
	V57.8h0.3v0h0.8c1.3,0,2.4-1.1,2.4-2.4l-0.3-8h-2.2l0.3,7c0,0.7-0.5,1.2-1.2,1.2h-2.4c-0.7,0-1.2-0.5-1.2-1.2l0.3-7h-2.2l-0.3,8
	c0,1.3,1.1,2.4,2.4,2.4h1v23.9l-7-7l-16-16l-1.8-1.8l-5.8,5.8l1.8,1.8l4.1-4.1l17.8,17.8l6.2,6.2l-9.6,9.6c0,0-0.1,0.1-0.2,0.1
	l-10.2,7.4l-0.6,0.6l-14.2,13.3c-0.5,0.5-0.5,1.3,0,1.8l3.7,3.7c0.5,0.5,1.3,0.5,1.8,0l13.3-14.2l0.6-0.6L81.2,96
	c0-0.1,0.1-0.1,0.1-0.2l8.6-8.6v12.7l-1.8,11.3v0.7l-0.3,10.3l-0.2,7.3c0,0.6,0.5,1.2,1.1,1.2h4.8c0.6,0,1.1-0.5,1.1-1.2l-0.2-7.3
	L94,112v-0.7l-1.8-11.3V87.5l8.3,8.3c0,0,0.1,0.1,0.1,0.2l7.4,10.2l0.6,0.6l7.6,8.1v0l5.7,6.1c0.5,0.5,1.3,0.5,1.8,0l3.7-3.7
	C127.9,116.7,127.9,115.9,127.4,115.4z M112.2,59.2l3.8-3.6c0.5-0.5,1.8-0.5,2.4,0l1.2,1.2c0.5,0.5,0.5,1.8,0,2.4l-3.6,3.8
	c-0.5,0.5-1.4,0.5-1.9,0l-1.9-1.9C111.6,60.5,111.6,59.7,112.2,59.2z"/>
</svg>
