<?xml version="1.0" encoding="utf-8"?>
<!-- Generator: Adobe Illustrator 27.2.0, SVG Export Plug-In . SVG Version: 6.00 Build 0)  -->
<svg version="1.1" id="Ebene_1" xmlns="http://www.w3.org/2000/svg" xmlns:xlink="http://www.w3.org/1999/xlink" x="0px" y="0px"
	 viewBox="0 0 180 180" style="enable-background:new 0 0 180 180;" xml:space="preserve">
<style type="text/css">
	.st0{fill:#0069B3;}
</style>
<path class="st0" d="M96,82C96,82,96,82,96,82L96,82C95.9,82.1,95.9,82,96,82c-0.1,0-0.1,0-0.1,0l0,0c0,0,0,0,0,0l-0.1-0.1l-2.8-2.4
	l-2.8,2.4L90.1,82c0,0,0,0,0,0l0,0c0,0,0,0,0,0c0,0,0,0,0,0l0,0c0,0,0,0,0,0l-0.1-0.1L87,79.5l-2.8,2.4L84.1,82c0,0,0,0,0,0l0,0
	c0,0,0,0,0,0c0,0,0,0,0,0l0,0c0,0,0,0,0,0l-0.1-0.1l-2.2-2l5.2,20.6h6.4l5.2-20.6L96,82L96,82z"/>
<path class="st0" d="M94.9,103.4H99c0.1,0,0.3,0.1,0.3,0.3v1.5c0,0.2-0.1,0.3-0.3,0.3H81c-0.1,0-0.3-0.1-0.3-0.3v-1.5
	c0-0.1,0.1-0.3,0.3-0.3h3.8L78.4,78c0,0,0-0.1,0.1-0.1l1.1-0.3c0,0,0.1,0,0.1,0.1l0,0.2l3.2,2.8l3.3-2.9l0-0.1c0,0,0,0,0,0l0,0
	c0,0,0,0,0.1,0c0,0,0,0,0.1,0l0,0c0,0,0,0,0,0l0,0.1l3.3,2.9l3.2-2.8l0.1-0.2c0,0,0,0,0,0l0,0c0,0,0,0,0,0c0,0,0,0,0,0l0,0
	c0,0,0,0,0,0l0.1,0.1l3.3,2.8l3.3-2.9l0-0.1c0,0,0.1-0.1,0.1-0.1l1.1,0.3c0,0,0.1,0.1,0.1,0.1L94.9,103.4z M99.3,109.1
	c0,0.2-0.1,0.3-0.3,0.3H81c-0.1,0-0.3-0.1-0.3-0.3v-1.5c0-0.1,0.1-0.3,0.3-0.3h18c0.1,0,0.3,0.1,0.3,0.3V109.1z M99.3,112.9
	c0,0.1-0.1,0.3-0.3,0.3H81c-0.1,0-0.3-0.1-0.3-0.3v-1.5c0-0.2,0.1-0.3,0.3-0.3h18c0.1,0,0.3,0.1,0.3,0.3V112.9z M99.3,116.6
	c0,0.2-0.1,0.3-0.3,0.3H81c-0.1,0-0.3-0.1-0.3-0.3v-1.5c0-0.2,0.1-0.3,0.3-0.3h18c0.1,0,0.3,0.1,0.3,0.3V116.6z M90,55.2
	c-13.2,0-23.9,10.7-23.9,23.9c0,8.8,4.8,16.6,12,20.7v20.8c0,1.2,1,2.2,2.2,2.2h1.6v0.9c0,0.7,0.5,1.2,1.2,1.2H97
	c0.7,0,1.2-0.5,1.2-1.2v-0.9h1.6c1.2,0,2.2-1,2.2-2.2V99.8c7.2-4.1,12-11.8,12-20.7C113.9,65.9,103.2,55.2,90,55.2"/>
</svg>
