<?xml version="1.0" encoding="utf-8"?>
<!-- Generator: Adobe Illustrator 27.3.1, SVG Export Plug-In . SVG Version: 6.00 Build 0)  -->
<svg version="1.1" id="Ebene_1" xmlns="http://www.w3.org/2000/svg" xmlns:xlink="http://www.w3.org/1999/xlink" x="0px" y="0px"
	 viewBox="0 0 180 180" style="enable-background:new 0 0 180 180;" xml:space="preserve">
<style type="text/css">
	.st0{fill:#0069B3;}
</style>
<path class="st0" d="M117.9,68.7l4,4l7.8,15.7L114,80.5l-3.8-3.8L94.8,92.6l25,24.2c0.6,0.6,0.7,1.6,0.1,2.2
	c-1.1,1.2-2.2,2.4-3.5,3.5c-0.6,0.6-1.6,0.5-2.2-0.1L90.2,97.4l-24,24.9c-0.6,0.6-1.6,0.7-2.2,0.1c-1.2-1.1-2.4-2.2-3.5-3.5
	c-0.6-0.6-0.5-1.6,0.1-2.2l25-24.1L69,75.5c-3,3.4-5.5,7.1-7.5,11.2l-8.6-7.5c5.5-10.1,13.8-18.3,23.8-23.8l7.5,8.6
	c-4.1,2-7.9,4.5-11.2,7.5l17.2,16.6l15.9-15.4l-9-9l7.9-7.9l9.2,9.2l1.1-1.1l3.7,3.7L117.9,68.7z"/>
</svg>
