<?xml version="1.0" encoding="utf-8"?>
<!-- Generator: Adobe Illustrator 27.2.0, SVG Export Plug-In . SVG Version: 6.00 Build 0)  -->
<svg version="1.1" id="Ebene_1" xmlns="http://www.w3.org/2000/svg" xmlns:xlink="http://www.w3.org/1999/xlink" x="0px" y="0px"
	 viewBox="0 0 180 180" style="enable-background:new 0 0 180 180;" xml:space="preserve">
<style type="text/css">
	.st0{fill:#0069B3;}
</style>
<g>
	<path class="st0" d="M113.5,122.5c0,1.8-1.4,3.2-3.2,3.2H71.9c-1.8,0-3.2-1.5-3.2-3.2V58c0-1.8,1.5-3.2,3.2-3.2h38.4
		c1.8,0,3.2,1.4,3.2,3.2V122.5z M111.3,51.4H70.7c-2.5,0-4.6,2.1-4.6,4.6V124c0,2.5,2.1,4.5,4.6,4.5h40.6c2.5,0,4.6-2,4.6-4.5V56
		C115.9,53.5,113.8,51.4,111.3,51.4"/>
	<path class="st0" d="M91,114.9c-2.6,0-4.7,2.1-4.7,4.7c0,2.6,2.1,4.7,4.7,4.7c2.6,0,4.7-2.1,4.7-4.7C95.7,117,93.6,114.9,91,114.9"
		/>
	<rect x="72" y="58.2" class="st0" width="37.5" height="54.7"/>
</g>
</svg>
