<?xml version="1.0" encoding="utf-8"?>
<!-- Generator: Adobe Illustrator 27.2.0, SVG Export Plug-In . SVG Version: 6.00 Build 0)  -->
<svg version="1.1" id="Ebene_1" xmlns="http://www.w3.org/2000/svg" xmlns:xlink="http://www.w3.org/1999/xlink" x="0px" y="0px"
	 viewBox="0 0 180 180" style="enable-background:new 0 0 180 180;" xml:space="preserve">
<style type="text/css">
	.st0{fill:#096AB2;}
</style>
<path class="st0" d="M119.1,89.8h-0.8c0.3-2.1,0.5-4.2,0.5-6.4c0-18.6-12.9-33.7-28.9-33.7c-15.9,0-28.9,15.1-28.9,33.7
	c0,2.2,0.2,4.3,0.5,6.4h-0.8c-2,0-3.5,1.6-3.5,3.5v5.4c0,1.3,0.8,2.5,1.9,3.1c-0.8,11,4.4,21.2,13.1,25c0.3,2,2,3.5,4,3.5
	c2.2,0,4-1.8,4-4c0-2.2-1.8-4-4-4c-1.4,0-2.5,0.7-3.3,1.7c-7.3-3.5-11.5-12.2-10.9-21.7h0.9v5.6c0,2,1.6,3.5,3.5,3.5h3.7
	c2,0,3.5-1.6,3.5-3.5V84.2c0-2-1.6-3.5-3.5-3.5h-3.7c-0.7,0-1.4,0.2-2,0.6C68.1,64.7,78.1,52.7,90,52.7s21.9,12,25.4,28.6
	c-0.6-0.4-1.2-0.6-2-0.6h-3.7c-2,0-3.5,1.6-3.5,3.5v23.7c0,2,1.6,3.5,3.5,3.5h3.7c2,0,3.5-1.6,3.5-3.5v-5.6h2.2c2,0,3.5-1.6,3.5-3.5
	v-5.4C122.6,91.4,121.1,89.8,119.1,89.8z"/>
</svg>
