<?xml version="1.0" encoding="utf-8"?>
<!-- Generator: Adobe Illustrator 27.3.1, SVG Export Plug-In . SVG Version: 6.00 Build 0)  -->
<svg version="1.1" id="Ebene_1" xmlns="http://www.w3.org/2000/svg" xmlns:xlink="http://www.w3.org/1999/xlink" x="0px" y="0px"
	 viewBox="0 0 180 180" style="enable-background:new 0 0 180 180;" xml:space="preserve">
<style type="text/css">
	.st0{fill:#0069B3;}
</style>
<g>
	<path class="st0" d="M135.9,95.2c-0.1-1-0.2-2-0.5-3c-0.2-1-0.6-1.9-1-2.8c-0.8-1.8-1.8-3.4-3.1-4.7c-1.3-1.4-2.7-2.5-4.4-3.5
		c-1.7-1-3.6-1.6-5.5-1.9c-1.9-0.3-3.7-0.3-5.6-0.1c-1,0.2-1.9,0.5-2.9,0.7c-0.1,0-0.2,0-0.2,0c0,0-0.1-0.1-0.1-0.2
		c-0.5-1.1-1-2.3-1.6-3.4c-0.6-1.3-1.2-2.7-1.8-4c-0.6-1.3-1.2-2.7-1.8-4c-0.6-1.4-1.2-2.7-1.9-4c-1-1.9-2.6-3.1-4.7-3.7
		c-0.8-0.2-1.6-0.3-2.4-0.3c-2,0-4,0-6.1,0c-1.2,0-1.7,0.9-1.6,1.7c0.1,0.8,0.8,1.3,1.8,1.3c2,0,4,0,5.9,0c2.2,0,4,1.4,4.8,3.3
		c0.5,1.3,1.1,2.5,1.7,3.7l0,0l0,0.1c0,0,0,0.1,0.1,0.1c0.2,0.4,0.4,0.8,0.6,1.3c-0.2,0-0.3,0-0.4,0c-7.9,0-15.7,0-23.6,0
		c-0.2,0-0.4,0-0.5-0.3c-0.6-1.3-1.2-2.5-1.8-3.8c-0.2-0.4-0.1-0.4,0.3-0.4c1.2,0,2.3,0,3.5,0c0.4,0,0.7-0.1,1-0.3
		c0.3-0.2,0.5-0.5,0.6-0.9c0.1-0.2,0.1-0.4,0-0.6c0-0.2-0.1-0.4-0.3-0.6c-0.3-0.3-0.7-0.6-1.1-0.6c-4.1,0-8.2,0-12.3,0l0,0h0
		c-0.2,0-0.4,0-0.6,0.1c-0.5,0.2-0.9,0.7-1,1.4c0,0.7,0.5,1.5,1.5,1.5c1.4,0,2.8,0,4.2,0c0.5,0,0.7,0.1,0.9,0.6
		c0.7,1.5,1.4,3,2.1,4.5c0.1,0.1,0.1,0.2,0.1,0.3c0,0.1,0,0.2-0.1,0.3c-1.7,2.6-3.4,5.2-5.1,7.8c-0.2,0.3-0.3,0.3-0.6,0.1
		c-1.5-0.8-3.2-1.4-4.9-1.6c-0.7-0.1-1.4-0.2-2.2-0.3s-1.4,0-2.2,0c-1.7,0.1-3.4,0.5-5,1.1c-0.8,0.3-1.5,0.7-2.3,1.1
		c-0.7,0.4-1.5,0.9-2.1,1.4c-0.9,0.7-1.8,1.5-2.6,2.4c-0.8,0.9-1.4,1.9-2,2.9c-0.4,0.7-0.7,1.5-1,2.2c-0.3,0.8-0.5,1.5-0.7,2.3
		c-0.2,0.8-0.3,1.6-0.4,2.4c-0.1,0.8-0.1,1.6,0,2.4c0.1,2.1,0.6,4.1,1.4,6c1.1,2.6,2.8,4.7,4.9,6.5c1.1,0.9,2.3,1.7,3.6,2.3
		c1.3,0.6,2.6,1,4,1.3c1.6,0.3,3.2,0.4,4.8,0.3c1.4-0.1,2.7-0.4,4-0.8c0.7-0.2,1.4-0.5,2.1-0.8c0.7-0.3,1.3-0.7,1.9-1.1
		c2.6-1.7,4.6-3.8,6-6.5c0.4-0.7,0.7-1.4,1-2.1c0.3-0.7,0.5-1.5,0.6-2.2c0.1-0.6,0.2-1.2,0.3-1.8c0-0.3,0.2-0.4,0.5-0.4
		c3.2,0,6.5,0,9.7,0c0.2,0,0.3-0.1,0.5-0.1c0.5-0.1,0.8-0.3,1.1-0.8c1.1-1.8,2.3-3.5,3.5-5.3c1.4-2.1,2.8-4.3,4.2-6.4
		c1.4-2.1,2.7-4.2,4.1-6.3c0.6-1,1.3-2,1.9-2.9c0,0,0.1-0.1,0.1-0.1c0,0,0.1-0.1,0.1-0.1c0.2,0.4,0.4,0.8,0.5,1.1
		c0.5,1.2,1.1,2.4,1.6,3.6c0.2,0.5,0.2,0.5-0.2,0.7c-2.7,1.6-4.8,3.8-6.3,6.5c-0.6,1.1-1.1,2.2-1.5,3.4c-0.6,1.9-0.8,3.8-0.7,5.7
		c0,1.5,0.3,2.9,0.7,4.3c0.6,1.9,1.4,3.7,2.6,5.3c1.4,1.9,3.1,3.5,5.2,4.7c1.2,0.7,2.4,1.3,3.8,1.7c1.6,0.5,3.3,0.8,5,0.8
		c1.3,0,2.7-0.1,4-0.4c1.5-0.3,2.9-0.9,4.3-1.6c2-1.1,3.7-2.4,5.2-4.2c0.6-0.7,1.1-1.3,1.5-2.1c0.5-0.7,0.8-1.5,1.2-2.3
		c0.5-1.2,0.9-2.5,1.2-3.8C136,98.1,136,96.7,135.9,95.2z M73.6,85.6c0.2-0.2,0.3-0.3,0.5-0.1c0.6,0.5,1.1,1,1.6,1.6
		c0.5,0.6,0.9,1.2,1.3,1.9c0.5,0.8,0.9,1.7,1.2,2.6c0.3,0.9,0.5,1.8,0.7,2.8C79,95,79,95,78.4,95c-3.5,0-7,0-10.5,0
		c-0.1,0-0.2,0-0.4,0c0.3-0.5,0.6-0.9,0.9-1.3C70.2,90.9,71.9,88.3,73.6,85.6z M76.1,105.2c-1.9,2.5-4.4,4.2-7.4,5.1
		c-1.5,0.4-3,0.6-4.5,0.6c-1.7-0.1-3.4-0.4-5-1.1c-2.2-0.9-4.1-2.3-5.6-4.2c-1.7-2-2.7-4.4-3.1-7c-0.3-1.6-0.2-3.2,0.1-4.7
		c0.1-0.7,0.3-1.4,0.6-2.1c0.2-0.7,0.5-1.4,0.9-2c0.4-0.7,0.8-1.4,1.2-2c0.5-0.6,1-1.2,1.6-1.7c0.7-0.7,1.4-1.2,2.2-1.7
		c0.8-0.5,1.6-0.9,2.5-1.3c1.4-0.5,2.8-0.9,4.3-1c1.8-0.1,3.6,0.1,5.4,0.7c0.7,0.2,1.4,0.6,2.1,0.9c-0.1,0.2-0.1,0.2-0.2,0.3
		c-1.4,2.1-2.7,4.1-4.1,6.2c-1.2,1.8-2.4,3.7-3.6,5.5c-0.3,0.5-0.4,1.1-0.1,1.6c0.2,0.3,0.4,0.5,0.6,0.6c0.2,0.1,0.5,0.2,0.9,0.2
		c4.5,0,9,0,13.6,0c0.1,0,0.2,0,0.3,0c0.2,0,0.3,0.1,0.3,0.3c-0.1,0.6-0.2,1.3-0.4,1.9C78.2,102,77.3,103.7,76.1,105.2z M82,94.6
		c-0.1-0.8-0.2-1.6-0.4-2.3c-0.2-0.8-0.4-1.5-0.7-2.2c-0.8-2-1.9-3.8-3.3-5.3c-0.5-0.5-1-1-1.5-1.5c-0.5-0.5-0.6-0.5-0.2-1.1
		c1.3-2,2.6-4,3.9-6c0-0.1,0.1-0.1,0.2-0.2c3,6.3,5.9,12.6,8.8,18.9c-0.2,0-0.2,0.1-0.3,0.1c-2.1,0-4.1,0-6.2,0
		C82.1,95,82,94.9,82,94.6z M100.9,80.6c-1.7,2.5-3.3,5-5,7.6c-1,1.6-2.1,3.2-3.1,4.8c-0.3,0.4-0.6,0.9-0.9,1.3
		c-0.1-0.2-0.2-0.3-0.2-0.4c-0.9-2-1.9-4.1-2.8-6.1c-0.8-1.6-1.5-3.3-2.3-4.9c-1.2-2.5-2.4-5.1-3.6-7.6c-0.2-0.4-0.2-0.4,0.3-0.4
		c4.7,0,9.5,0,14.2,0c2.3,0,4.5,0,6.8,0c0.4,0,0.4,0.1,0.2,0.4c-0.2,0.2-0.3,0.5-0.5,0.7l0,0c-0.2,0.3-0.4,0.6-0.5,0.8
		C102.6,78.1,101.8,79.3,100.9,80.6z M131.8,102.2c-0.9,2.1-2.3,3.9-4.2,5.4c-1.8,1.4-3.8,2.4-6,2.9c-1.2,0.3-2.4,0.4-3.7,0.3
		c-0.9,0-1.8-0.2-2.6-0.4c-0.9-0.2-1.7-0.5-2.5-0.8c-0.9-0.4-1.7-0.9-2.5-1.4c-0.8-0.6-1.5-1.2-2.2-1.9c-1.2-1.2-2.1-2.6-2.7-4.1
		s-1-3-1.2-4.7c-0.1-0.7-0.1-1.4,0-2.1c0.1-2.1,0.8-4.1,1.8-6c0.3-0.6,0.6-1.1,1-1.6c1.1-1.5,2.4-2.7,4-3.7c0.2-0.1,0.3-0.1,0.4,0.1
		c0.2,0.4,0.4,0.8,0.6,1.3c0.8,1.7,1.5,3.4,2.3,5.1c1,2.1,1.9,4.3,2.9,6.4c0.3,0.6,0.7,0.8,1.4,0.9c0.3,0,0.5-0.1,0.7-0.2
		c0.4-0.2,0.7-0.6,0.8-1.1c0-0.2,0-0.5-0.1-0.7c-0.3-0.8-0.6-1.5-1-2.3c-0.6-1.3-1.2-2.7-1.8-4c-0.7-1.6-1.4-3.1-2.1-4.7
		c-0.3-0.7-0.7-1.5-1-2.3c0.2-0.1,0.3-0.2,0.4-0.2c0.9-0.2,1.7-0.4,2.6-0.5c2.2-0.2,4.3,0,6.4,0.8c1.8,0.7,3.5,1.7,4.9,3
		c1.3,1.2,2.3,2.6,3.1,4.1c0.8,1.5,1.2,3.1,1.5,4.9c0.1,0.6,0.1,1.3,0.1,1.9C132.9,98.6,132.5,100.5,131.8,102.2z"/>
	<path class="st0" d="M110.6,72.7h1h0.4h1c0,0,0,0,0.1,0c0,0,0.1,0,0.1,0c0.6,0,1-0.7,1-1.6c0-0.9-0.5-1.6-1-1.6c0,0-0.1,0-0.1,0
		c0,0,0,0-0.1,0h-1h-0.4h-1c-0.3,0-0.5,0.2-0.5,0.5v1v0.1v1C110.1,72.5,110.3,72.7,110.6,72.7z"/>
</g>
</svg>
