<?xml version="1.0" encoding="utf-8"?>
<!-- Generator: Adobe Illustrator 27.2.0, SVG Export Plug-In . SVG Version: 6.00 Build 0)  -->
<svg version="1.1" id="Ebene_1" xmlns="http://www.w3.org/2000/svg" xmlns:xlink="http://www.w3.org/1999/xlink" x="0px" y="0px"
	 viewBox="0 0 180 180" style="enable-background:new 0 0 180 180;" xml:space="preserve">
<style type="text/css">
	.st0{fill:#0069B3;}
</style>
<g>
	<path class="st0" d="M115.5,97.9c0,1.2-1,2.2-2.3,2.2H67.1c-1.3,0-2.3-1-2.3-2.2V72.4c0-1.2,1-2.2,2.3-2.2h46.1
		c1.3,0,2.3,1,2.3,2.2V97.9z M115.8,66.7H64.2c-1.9,0-3.5,1.5-3.5,3.4v30.2c0,1.9,1.6,3.4,3.5,3.4h51.6c1.9,0,3.5-1.5,3.5-3.4V70.1
		C119.3,68.2,117.7,66.7,115.8,66.7"/>
	<polygon class="st0" points="82.3,106.5 81.5,113.3 98.5,113.3 97.7,106.5 	"/>
	<path class="st0" d="M68.4,78.5c-0.5,0-0.8-0.6-0.8-1.8c0-1.2,0.3-1.8,0.8-1.8c0.5,0,0.8,0.6,0.8,1.8
		C69.2,77.8,68.9,78.5,68.4,78.5 M68.4,74.2c-1.1,0-1.8,1-1.8,2.5c0,1.4,0.6,2.4,1.7,2.4c1.2,0,1.8-1,1.8-2.5
		C70.1,75.3,69.6,74.2,68.4,74.2"/>
	<path class="st0" d="M72.3,78.5c-0.5,0-0.8-0.6-0.8-1.8c0-1.2,0.3-1.8,0.8-1.8c0.5,0,0.8,0.6,0.8,1.8
		C73.1,77.8,72.9,78.5,72.3,78.5 M72.4,74.2c-1.1,0-1.8,1-1.8,2.5c0,1.4,0.6,2.4,1.7,2.4c1.2,0,1.8-1,1.8-2.5
		C74.1,75.3,73.5,74.2,72.4,74.2"/>
	<polygon class="st0" points="76.2,74.3 75,74.9 75.2,75.6 76,75.1 76.1,75.1 76.1,79.1 76.9,79.1 76.9,74.3 	"/>
	<polygon class="st0" points="80.1,74.3 79,74.9 79.1,75.6 80,75.1 80,75.1 80,79.1 80.9,79.1 80.9,74.3 	"/>
	<path class="st0" d="M84.2,78.5c-0.5,0-0.8-0.6-0.8-1.8c0-1.2,0.3-1.8,0.8-1.8c0.5,0,0.8,0.6,0.8,1.8C85,77.8,84.8,78.5,84.2,78.5
		 M84.2,74.2c-1.1,0-1.8,1-1.8,2.5c0,1.4,0.6,2.4,1.7,2.4c1.2,0,1.8-1,1.8-2.5C85.9,75.3,85.4,74.2,84.2,74.2"/>
	<polygon class="st0" points="88.1,74.3 86.9,74.9 87,75.6 87.9,75.1 87.9,75.1 87.9,79.1 88.8,79.1 88.8,74.3 	"/>
	<path class="st0" d="M92.1,78.5c-0.5,0-0.8-0.6-0.8-1.8c0-1.2,0.3-1.8,0.8-1.8c0.5,0,0.8,0.6,0.8,1.8
		C92.9,77.8,92.7,78.5,92.1,78.5 M92.2,74.2c-1.1,0-1.8,1-1.8,2.5c0,1.4,0.6,2.4,1.7,2.4c1.2,0,1.8-1,1.8-2.5
		C93.9,75.3,93.3,74.2,92.2,74.2"/>
	<polygon class="st0" points="96,74.3 94.8,74.9 95,75.6 95.8,75.1 95.9,75.1 95.9,79.1 96.7,79.1 96.7,74.3 	"/>
	<polygon class="st0" points="99.9,74.3 98.8,74.9 98.9,75.6 99.8,75.1 99.8,75.1 99.8,79.1 100.7,79.1 100.7,74.3 	"/>
	<path class="st0" d="M104,78.5c-0.5,0-0.8-0.6-0.8-1.8c0-1.2,0.3-1.8,0.8-1.8c0.5,0,0.8,0.6,0.8,1.8
		C104.8,77.8,104.6,78.5,104,78.5 M104,74.2c-1.1,0-1.8,1-1.8,2.5c0,1.4,0.6,2.4,1.7,2.4c1.2,0,1.8-1,1.8-2.5
		C105.7,75.3,105.2,74.2,104,74.2"/>
	<path class="st0" d="M108,78.5c-0.5,0-0.8-0.6-0.8-1.8c0-1.2,0.3-1.8,0.8-1.8c0.5,0,0.8,0.6,0.8,1.8
		C108.8,77.8,108.5,78.5,108,78.5 M108,74.2c-1.1,0-1.8,1-1.8,2.5c0,1.4,0.6,2.4,1.7,2.4c1.2,0,1.8-1,1.8-2.5
		C109.7,75.3,109.2,74.2,108,74.2"/>
	<path class="st0" d="M111.9,78.5c-0.5,0-0.8-0.6-0.8-1.8c0-1.2,0.3-1.8,0.8-1.8c0.5,0,0.8,0.6,0.8,1.8
		C112.7,77.8,112.5,78.5,111.9,78.5 M112,74.2c-1.1,0-1.8,1-1.8,2.5c0,1.4,0.6,2.4,1.7,2.4c1.2,0,1.8-1,1.8-2.5
		C113.7,75.3,113.1,74.2,112,74.2"/>
	<polygon class="st0" points="68.3,83.1 67.1,83.6 67.2,84.3 68.1,83.9 68.1,83.9 68.1,87.8 69,87.8 69,83.1 	"/>
	<path class="st0" d="M72.3,87.2c-0.5,0-0.8-0.6-0.8-1.8c0-1.2,0.3-1.8,0.8-1.8c0.5,0,0.8,0.6,0.8,1.8
		C73.1,86.6,72.9,87.2,72.3,87.2 M72.4,83c-1.1,0-1.8,1-1.8,2.5c0,1.4,0.6,2.4,1.7,2.4c1.2,0,1.8-1,1.8-2.5C74.1,84,73.5,83,72.4,83
		"/>
	<polygon class="st0" points="76.2,83.1 75,83.6 75.2,84.3 76,83.9 76.1,83.9 76.1,87.8 76.9,87.8 76.9,83.1 	"/>
	<polygon class="st0" points="80.1,83.1 79,83.6 79.1,84.3 80,83.9 80,83.9 80,87.8 80.9,87.8 80.9,83.1 	"/>
	<polygon class="st0" points="84.1,83.1 82.9,83.6 83.1,84.3 84,83.9 84,83.9 84,87.8 84.9,87.8 84.9,83.1 	"/>
	<path class="st0" d="M88.2,87.2c-0.5,0-0.8-0.6-0.8-1.8c0-1.2,0.3-1.8,0.8-1.8c0.5,0,0.8,0.6,0.8,1.8C89,86.6,88.7,87.2,88.2,87.2
		 M88.2,83c-1.1,0-1.8,1-1.8,2.5c0,1.4,0.6,2.4,1.7,2.4c1.2,0,1.8-1,1.8-2.5C89.9,84,89.4,83,88.2,83"/>
	<polygon class="st0" points="92,83.1 90.8,83.6 91,84.3 91.9,83.9 91.9,83.9 91.9,87.8 92.8,87.8 92.8,83.1 	"/>
	<path class="st0" d="M96.1,87.2c-0.5,0-0.8-0.6-0.8-1.8c0-1.2,0.3-1.8,0.8-1.8c0.5,0,0.8,0.6,0.8,1.8
		C96.9,86.6,96.6,87.2,96.1,87.2 M96.1,83c-1.1,0-1.8,1-1.8,2.5c0,1.4,0.6,2.4,1.7,2.4c1.2,0,1.8-1,1.8-2.5C97.8,84,97.3,83,96.1,83
		"/>
	<polygon class="st0" points="99.9,83.1 98.8,83.6 98.9,84.3 99.8,83.9 99.8,83.9 99.8,87.8 100.7,87.8 100.7,83.1 	"/>
	<path class="st0" d="M104,87.2c-0.5,0-0.8-0.6-0.8-1.8c0-1.2,0.3-1.8,0.8-1.8c0.5,0,0.8,0.6,0.8,1.8
		C104.8,86.6,104.6,87.2,104,87.2 M104,83c-1.1,0-1.8,1-1.8,2.5c0,1.4,0.6,2.4,1.7,2.4c1.2,0,1.8-1,1.8-2.5
		C105.7,84,105.2,83,104,83"/>
	<polygon class="st0" points="107.9,83.1 106.7,83.6 106.8,84.3 107.7,83.9 107.7,83.9 107.7,87.8 108.6,87.8 108.6,83.1 	"/>
	<path class="st0" d="M111.9,87.2c-0.5,0-0.8-0.6-0.8-1.8c0-1.2,0.3-1.8,0.8-1.8c0.5,0,0.8,0.6,0.8,1.8
		C112.7,86.6,112.5,87.2,111.9,87.2 M112,83c-1.1,0-1.8,1-1.8,2.5c0,1.4,0.6,2.4,1.7,2.4c1.2,0,1.8-1,1.8-2.5
		C113.7,84,113.1,83,112,83"/>
	<polygon class="st0" points="68.3,91.8 67.1,92.4 67.2,93.1 68.1,92.6 68.1,92.6 68.1,96.6 69,96.6 69,91.8 	"/>
	<polygon class="st0" points="72.2,91.8 71,92.4 71.2,93.1 72.1,92.6 72.1,92.6 72.1,96.6 73,96.6 73,91.8 	"/>
	<path class="st0" d="M76.3,96c-0.5,0-0.8-0.6-0.8-1.8c0-1.2,0.3-1.8,0.8-1.8c0.5,0,0.8,0.6,0.8,1.8C77.1,95.3,76.8,96,76.3,96
		 M76.3,91.7c-1.1,0-1.8,1-1.8,2.5c0,1.4,0.6,2.4,1.7,2.4c1.2,0,1.8-1,1.8-2.5C78,92.8,77.5,91.7,76.3,91.7"/>
	<path class="st0" d="M80.2,96c-0.5,0-0.8-0.6-0.8-1.8c0-1.2,0.3-1.8,0.8-1.8c0.5,0,0.8,0.6,0.8,1.8C81.1,95.3,80.8,96,80.2,96
		 M80.3,91.7c-1.1,0-1.8,1-1.8,2.5c0,1.4,0.6,2.4,1.7,2.4c1.2,0,1.8-1,1.8-2.5C82,92.8,81.4,91.7,80.3,91.7"/>
	<path class="st0" d="M84.2,96c-0.5,0-0.8-0.6-0.8-1.8c0-1.2,0.3-1.8,0.8-1.8c0.5,0,0.8,0.6,0.8,1.8C85,95.3,84.8,96,84.2,96
		 M84.2,91.7c-1.1,0-1.8,1-1.8,2.5c0,1.4,0.6,2.4,1.7,2.4c1.2,0,1.8-1,1.8-2.5C85.9,92.8,85.4,91.7,84.2,91.7"/>
	<polygon class="st0" points="88.1,91.8 86.9,92.4 87,93.1 87.9,92.6 87.9,92.6 87.9,96.6 88.8,96.6 88.8,91.8 	"/>
	<path class="st0" d="M92.1,96c-0.5,0-0.8-0.6-0.8-1.8c0-1.2,0.3-1.8,0.8-1.8c0.5,0,0.8,0.6,0.8,1.8C92.9,95.3,92.7,96,92.1,96
		 M92.2,91.7c-1.1,0-1.8,1-1.8,2.5c0,1.4,0.6,2.4,1.7,2.4c1.2,0,1.8-1,1.8-2.5C93.9,92.8,93.3,91.7,92.2,91.7"/>
	<polygon class="st0" points="96,91.8 94.8,92.4 95,93.1 95.8,92.6 95.9,92.6 95.9,96.6 96.7,96.6 96.7,91.8 	"/>
	<polygon class="st0" points="99.9,91.8 98.8,92.4 98.9,93.1 99.8,92.6 99.8,92.6 99.8,96.6 100.7,96.6 100.7,91.8 	"/>
	<polygon class="st0" points="103.9,91.8 102.7,92.4 102.9,93.1 103.8,92.6 103.8,92.6 103.8,96.6 104.7,96.6 104.7,91.8 	"/>
	<path class="st0" d="M108,96c-0.5,0-0.8-0.6-0.8-1.8c0-1.2,0.3-1.8,0.8-1.8c0.5,0,0.8,0.6,0.8,1.8C108.8,95.3,108.5,96,108,96
		 M108,91.7c-1.1,0-1.8,1-1.8,2.5c0,1.4,0.6,2.4,1.7,2.4c1.2,0,1.8-1,1.8-2.5C109.7,92.8,109.2,91.7,108,91.7"/>
	<path class="st0" d="M111.9,96c-0.5,0-0.8-0.6-0.8-1.8c0-1.2,0.3-1.8,0.8-1.8c0.5,0,0.8,0.6,0.8,1.8C112.7,95.3,112.5,96,111.9,96
		 M112,91.7c-1.1,0-1.8,1-1.8,2.5c0,1.4,0.6,2.4,1.7,2.4c1.2,0,1.8-1,1.8-2.5C113.7,92.8,113.1,91.7,112,91.7"/>
</g>
</svg>
