<?xml version="1.0" encoding="utf-8"?>
<!-- Generator: Adobe Illustrator 27.2.0, SVG Export Plug-In . SVG Version: 6.00 Build 0)  -->
<svg version="1.1" id="Ebene_1" xmlns="http://www.w3.org/2000/svg" xmlns:xlink="http://www.w3.org/1999/xlink" x="0px" y="0px"
	 viewBox="0 0 180 180" style="enable-background:new 0 0 180 180;" xml:space="preserve">
<style type="text/css">
	.st0{fill:#0069B3;}
</style>
<g>
	<path class="st0" d="M117.2,92.9c-3.9,3.7-9,5.7-14.3,5.7c-5.8,0-11.1-2.3-15.1-6.5c-7.9-8.3-7.5-21.4,0.8-29.3
		c3.9-3.7,9-5.7,14.3-5.7c5.8,0,11.1,2.3,15.1,6.5c3.8,4,5.8,9.3,5.7,14.8C123.5,83.9,121.2,89.1,117.2,92.9 M121.3,60.4
		c-4.9-5.1-11.4-7.9-18.5-7.9c-6.6,0-12.8,2.5-17.5,7c-9.1,8.6-10.4,22.2-3.8,32.3l-29.9,28.2l7.3,7.6L89,99.1
		c4.1,2.7,8.8,4.1,13.9,4.1c6.6,0,12.8-2.5,17.5-7c4.9-4.7,7.8-11,7.9-17.7C128.5,71.7,126,65.3,121.3,60.4"/>
	<path class="st0" d="M85.5,83.5c-0.7-0.3-1.3-0.8-1.8-1.3l1.9-2.3c0.7,0.9,1.4,1.3,2.1,1.3c0.5,0,0.9-0.2,1.2-0.5
		c0.3-0.3,0.4-0.8,0.4-1.3v-5.3H85v-2.7h7.7v7.8c0,1.6-0.4,2.8-1.2,3.6c-0.8,0.8-2,1.2-3.6,1.2C87.1,84,86.2,83.8,85.5,83.5"/>
	<path class="st0" d="M103,80.7c0.5-0.3,0.9-0.7,1.2-1.2c0.3-0.5,0.4-1.1,0.4-1.8c0-0.7-0.1-1.3-0.4-1.8c-0.3-0.5-0.7-0.9-1.2-1.2
		c-0.5-0.3-1.1-0.4-1.7-0.4c-0.6,0-1.2,0.1-1.7,0.4c-0.5,0.3-0.9,0.7-1.2,1.2c-0.3,0.5-0.4,1.2-0.4,1.8c0,0.7,0.1,1.3,0.4,1.8
		c0.3,0.5,0.7,1,1.2,1.2c0.5,0.3,1.1,0.4,1.7,0.4C102,81.1,102.5,81,103,80.7 M97.8,83.2c-1-0.6-1.9-1.3-2.5-2.3
		c-0.6-1-0.9-2.1-0.9-3.3c0-1.2,0.3-2.3,0.9-3.3c0.6-1,1.4-1.7,2.5-2.3c1-0.6,2.2-0.8,3.5-0.8c1.3,0,2.5,0.3,3.5,0.8
		c1,0.6,1.9,1.3,2.5,2.3c0.6,1,0.9,2.1,0.9,3.3c0,1.2-0.3,2.3-0.9,3.3c-0.6,1-1.4,1.7-2.5,2.3c-1,0.6-2.2,0.8-3.5,0.8
		C100,84,98.9,83.7,97.8,83.2"/>
	<path class="st0" d="M118.3,80c0-0.8-0.6-1.3-1.8-1.3h-2.9v2.5h2.9C117.7,81.2,118.3,80.8,118.3,80 M113.5,73.9v2.4h2.4
		c1.2,0,1.8-0.4,1.8-1.2c0-0.8-0.6-1.2-1.8-1.2H113.5z M121.2,78.5c0.4,0.5,0.6,1.2,0.6,1.9c0,1.1-0.4,1.9-1.3,2.5
		c-0.9,0.6-2.1,0.9-3.8,0.9h-6.7V71.4h6.3c1.6,0,2.8,0.3,3.6,0.9c0.8,0.6,1.2,1.4,1.2,2.4c0,0.6-0.1,1.1-0.4,1.6
		c-0.3,0.5-0.7,0.8-1.2,1.1C120.3,77.6,120.8,77.9,121.2,78.5"/>
</g>
</svg>
