<?xml version="1.0" encoding="utf-8"?>
<!-- Generator: Adobe Illustrator 27.2.0, SVG Export Plug-In . SVG Version: 6.00 Build 0)  -->
<svg version="1.1" id="Ebene_1" xmlns="http://www.w3.org/2000/svg" xmlns:xlink="http://www.w3.org/1999/xlink" x="0px" y="0px"
	 viewBox="0 0 180 180" style="enable-background:new 0 0 180 180;" xml:space="preserve">
<style type="text/css">
	.st0{fill:#0069B3;}
</style>
<path class="st0" d="M114.9,115.6c0,1.8-1.4,3.2-3.1,3.2H69.2c-1.7,0-3.1-1.4-3.1-3.2V75.7h48.9V115.6z M74.3,62.2
	c0-1.2,0.9-2.3,2.1-2.3c1.1,0,2.1,1,2.1,2.3v8.9c0,1.2-0.9,2.3-2.1,2.3c-1.1,0-2.1-1-2.1-2.3V62.2z M88.7,62.2
	c0-1.2,0.9-2.3,2.1-2.3c1.1,0,2.1,1,2.1,2.3v8.9c0,1.2-0.9,2.3-2.1,2.3c-1.1,0-2.1-1-2.1-2.3V62.2z M103.1,62.2
	c0-1.2,0.9-2.3,2.1-2.3c1.1,0,2.1,1,2.1,2.3v8.9c0,1.2-0.9,2.3-2.1,2.3c-1.1,0-2.1-1-2.1-2.3V62.2z M111.8,64.4h-2v-2.2
	c0-2.7-2.1-5-4.7-5c-2.6,0-4.7,2.2-4.7,5v2.2h-4.9v-2.2c0-2.7-2.1-5-4.7-5c-2.6,0-4.7,2.2-4.7,5v2.2h-4.9v-2.2c0-2.7-2.1-5-4.7-5
	c-2.6,0-4.7,2.2-4.7,5v2.2h-2.5c-4.2,0-7.6,3.5-7.6,7.7v43.5c0,4.3,3.4,7.7,7.6,7.7h42.7c4.2,0,7.6-3.5,7.6-7.7V72.1
	C119.4,67.8,116,64.4,111.8,64.4"/>
<rect x="102.8" y="83.8" class="st0" width="8.2" height="7.4"/>
<rect x="102.8" y="93.7" class="st0" width="8.2" height="7.4"/>
<rect x="70.1" y="103.5" class="st0" width="8.2" height="7.4"/>
<rect x="81" y="103.5" class="st0" width="8.2" height="7.4"/>
<rect x="91.9" y="103.5" class="st0" width="8.2" height="7.4"/>
<rect x="102.8" y="103.5" class="st0" width="8.2" height="7.4"/>
<path class="st0" d="M84.3,96.7h-7.3v0c0.8-0.5,1.6-0.9,2.4-1.4c0.8-0.4,1.6-0.9,2.3-1.5c0.7-0.5,1.3-1.2,1.7-1.9
	c0.4-0.7,0.7-1.6,0.7-2.7c0-0.9-0.2-1.6-0.5-2.3c-0.3-0.6-0.8-1.2-1.3-1.6c-0.6-0.4-1.3-0.7-2.1-1c-0.8-0.2-1.7-0.3-2.7-0.3
	c-1.1,0-2,0.2-2.9,0.5c-0.9,0.3-1.6,0.8-2.2,1.4c-0.6,0.6-1,1.4-1.3,2.2c-0.3,0.9-0.4,1.9-0.3,3h4.3c0-1,0.1-1.8,0.5-2.4
	c0.4-0.6,1-0.9,1.9-0.9c0.5,0,1,0.1,1.4,0.4c0.4,0.3,0.6,0.8,0.6,1.6c0,0.3-0.1,0.6-0.2,0.8c-0.1,0.2-0.3,0.4-0.6,0.6
	c-0.2,0.2-0.5,0.4-0.7,0.5c-0.2,0.2-0.5,0.3-0.7,0.4c-0.5,0.3-1,0.6-1.6,1c-0.5,0.3-1.1,0.7-1.6,1c-0.5,0.4-1,0.7-1.4,1.1
	c-0.4,0.4-0.8,0.8-1.2,1.3c-0.4,0.6-0.7,1.2-0.9,1.8c-0.2,0.7-0.3,1.4-0.2,2.2h13.9V96.7z"/>
<path class="st0" d="M92.5,97.1c-0.3,0-0.7,0-1-0.1c-0.3-0.1-0.6-0.2-0.8-0.4c-0.3-0.3-0.6-0.6-0.6-1.1h-4.6c0,0.3,0,0.6,0,1
	c0.1,0.4,0.2,0.8,0.4,1.2c0.2,0.4,0.4,0.8,0.8,1.2c0.3,0.4,0.8,0.7,1.3,1c0.5,0.3,1.1,0.6,1.9,0.7c0.7,0.2,1.6,0.3,2.6,0.3
	c1.2,0,2.2-0.1,3.1-0.4c0.9-0.3,1.7-0.7,2.3-1.2c0.6-0.5,1.1-1.1,1.4-1.8c0.3-0.7,0.5-1.5,0.5-2.3c0-1-0.1-1.8-0.4-2.5
	c-0.3-0.7-0.7-1.3-1.1-1.7c-0.5-0.5-1-0.8-1.7-1c-0.6-0.2-1.3-0.3-2-0.3c-0.6,0-1.2,0.1-1.8,0.2c-0.6,0.1-1.2,0.4-1.7,0.8l0,0
	l0.5-2.2h7.5v-4H87.6l-1.7,9.4h4.3c0.2-0.4,0.6-0.6,0.9-0.8c0.4-0.2,0.9-0.3,1.4-0.3c0.7,0,1.2,0.2,1.7,0.6c0.4,0.4,0.6,1,0.6,1.7
	c0,0.7-0.2,1.2-0.7,1.6C93.7,96.9,93.1,97.1,92.5,97.1"/>
</svg>
