<?xml version="1.0" encoding="utf-8"?>
<!-- Generator: Adobe Illustrator 27.2.0, SVG Export Plug-In . SVG Version: 6.00 Build 0)  -->
<svg version="1.1" id="Ebene_1" xmlns="http://www.w3.org/2000/svg" xmlns:xlink="http://www.w3.org/1999/xlink" x="0px" y="0px"
	 viewBox="0 0 180 180" style="enable-background:new 0 0 180 180;" xml:space="preserve">
<style type="text/css">
	.st0{fill:#0069B3;}
</style>
<g>
	<path class="st0" d="M98.1,111.4c-2.2,0-4.1,1.8-4.1,4c0,2.2,1.8,4,4.1,4c2.2,0,4.1-1.8,4.1-4C102.2,113.2,100.3,111.4,98.1,111.4z
		"/>
	<polygon class="st0" points="60.5,111 72,122.8 75.1,119.8 63.6,108.1 	"/>
	<path class="st0" d="M115.5,56.9H80.7c-2.2,0-3.9,1.8-3.9,3.9v22.9c-1.1,0.4-2.1,1.4-2.4,2.6l-3.9,15l-5.8,5.7L76,118.6l0.7-0.7
		v1.3c0,2.2,1.8,3.9,3.9,3.9h34.9c2.2,0,3.9-1.8,3.9-3.9V60.8C119.5,58.6,117.7,56.9,115.5,56.9z M67.2,107l4.8-4.7l4.1-15.5
		c0.3-1.1,1.4-1.7,2.4-1.4c1,0.3,1.7,1.3,1.4,2.4l-1.8,6.8l19.6-9.8c0.9-0.4,2-0.1,2.4,0.8s0.1,2-0.8,2.4l-11,5.5l1.7,0.8
		c0.4,0.2,0.7,0.5,0.8,0.8c0.2,0.4,0.3,0.9,0.1,1.4c-0.2,0.5-0.5,0.8-0.9,1.1L87,99.2l2.5,0.6c0.5,0.1,1,0.5,1.2,1
		c0.4,0.9,0.1,2-0.8,2.4l-1.5,0.7l1.4,0.9c0.3,0.2,0.5,0.4,0.6,0.7c0.2,0.4,0.3,0.9,0.1,1.4c-0.2,0.5-0.5,0.8-0.9,1.1l-10.9,5.4
		L76,116L67.2,107z M95.9,91.9c1.7,0.9,3.8,0.9,5.7,0c3.1-1.6,4.4-5.4,2.9-8.6c-1.6-3.1-5.4-4.4-8.6-2.9c-1.9,0.9-3.1,2.7-3.4,4.7
		l-0.8,0.4c0.2-2.3,1.6-4.5,3.9-5.7c3.5-1.7,7.7-0.3,9.5,3.2c1.7,3.5,0.3,7.7-3.2,9.5c-2.2,1.1-4.8,0.9-6.8-0.3L95.9,91.9z
		 M92.8,93.4l0.7-0.3c2.6,2.1,6.2,2.6,9.4,1c4.3-2.2,6.1-7.4,3.9-11.8c-2.2-4.3-7.4-6.1-11.8-3.9C92,80,90.2,83,90.2,86.3l-0.7,0.3
		c-0.1-3.6,1.8-7.1,5.2-8.8c4.7-2.3,10.4-0.4,12.7,4.2c2.3,4.7,0.4,10.4-4.2,12.7C99.7,96.5,95.6,95.8,92.8,93.4z M81.8,90.6
		L81,91.1l0.7-2.8c0-0.2,0.1-0.4,0.1-0.6V90.6z M117.5,117.9c0,1.5-1.2,2.8-2.8,2.8h-33c-1.5,0-2.8-1.2-2.8-2.8v-2.2l0.7-0.7
		l10.7-5.3H114v-47H81.8v24c-0.2-1.5-1.3-2.8-2.8-3.2c0,0-0.1,0-0.1,0V62.5c0-1.5,1.3-2.8,2.8-2.8h33c1.5,0,2.8,1.2,2.8,2.8V117.9z"
		/>
</g>
</svg>
