<?xml version="1.0" encoding="utf-8"?>
<!-- Generator: Adobe Illustrator 27.2.0, SVG Export Plug-In . SVG Version: 6.00 Build 0)  -->
<svg version="1.1" id="Ebene_1" xmlns="http://www.w3.org/2000/svg" xmlns:xlink="http://www.w3.org/1999/xlink" x="0px" y="0px"
	 viewBox="0 0 180 180" style="enable-background:new 0 0 180 180;" xml:space="preserve">
<style type="text/css">
	.st0{fill:#0069B3;}
</style>
<g>
	<polygon class="st0" points="79.5,113.2 78.4,122.8 101.7,122.8 100.6,113.2 	"/>
	<path class="st0" d="M127.7,103.3H52.3V59.7h75.4V103.3z M125.2,57.2H54.8c-2.6,0-4.7,2.2-4.7,4.8v42.4c0,2.6,2.1,4.8,4.7,4.8h70.4
		c2.6,0,4.7-2.2,4.7-4.8V62C129.9,59.4,127.8,57.2,125.2,57.2"/>
	<polygon class="st0" points="104.5,97.6 97.9,87.6 107.7,86.2 86.4,77.4 89.8,100.3 93.4,91 99.9,101 	"/>
	<path class="st0" d="M85.3,89.5c-2.2-0.6-4.2-1.8-5.7-3.7c-3.6-4.6-2.8-11.3,1.8-14.9c4.6-3.6,11.3-2.8,14.9,1.8
		c1.5,1.9,2.2,4.3,2.2,6.6l1.1,0.5c0.1-2.7-0.7-5.5-2.5-7.7c-4-5.1-11.4-6-16.5-2c-5.1,4-6,11.4-2,16.5c1.8,2.3,4.2,3.7,6.8,4.2
		L85.3,89.5z"/>
	<path class="st0" d="M85.9,93.3c-3.6-0.5-6.9-2.3-9.3-5.4c-5-6.3-3.8-15.5,2.5-20.4c6.3-5,15.5-3.8,20.4,2.5
		c2.5,3.2,3.4,7.2,2.9,11l1.1,0.5c0.7-4.2-0.3-8.6-3.1-12.1c-5.3-6.8-15.2-8-22.1-2.7c-6.8,5.3-8,15.2-2.7,22.1
		c2.7,3.4,6.5,5.4,10.4,5.9L85.9,93.3z"/>
</g>
</svg>
