<?xml version="1.0" encoding="utf-8"?>
<!-- Generator: Adobe Illustrator 27.2.0, SVG Export Plug-In . SVG Version: 6.00 Build 0)  -->
<svg version="1.1" id="Ebene_1" xmlns="http://www.w3.org/2000/svg" xmlns:xlink="http://www.w3.org/1999/xlink" x="0px" y="0px"
	 viewBox="0 0 180 180" style="enable-background:new 0 0 180 180;" xml:space="preserve">
<style type="text/css">
	.st0{fill:#0069B3;}
</style>
<g>
	<polygon class="st0" points="79.4,113.8 78.6,120.4 95.7,120.4 94.9,113.8 	"/>
	<path class="st0" d="M98.4,89.7c7.2-6.6,24.3-29.6,23.7-30.2c-0.7-0.6-23.1,17.7-29.4,25.1c-0.9,1.1-1.1,1.8-2.3,3.8
		c0.8,0.5,2.5,1.7,3.7,3.8C96.3,91,97.3,90.7,98.4,89.7"/>
	<path class="st0" d="M89.1,90.3c-2.7-0.3-5.2,1.5-6.7,5.6c-1.5,4.2-9.1,9.1-9.7,9c3.7,0.4,18.1,0.2,19.9-11.1
		C91.3,91.2,89.1,90.3,89.1,90.3"/>
	<path class="st0" d="M113,74.9c-0.9,1.2-1.9,2.4-2.8,3.5h0.1c1.3,0,2.3,0.9,2.3,2.1v24.8c0,1.2-1,2.1-2.3,2.1h-46
		c-1.3,0-2.3-0.9-2.3-2.1V80.5c0-1.2,1-2.1,2.3-2.1h0.1h18.8h2.4h11c1.2-1.1,2.5-2.3,3.8-3.5H85.6h-1.4H63.3h-0.8h-1.1
		c-1.9,0-3.5,1.5-3.5,3.3v29.4c0,1.8,1.6,3.3,3.5,3.3H113c1.9,0,3.5-1.5,3.5-3.3V78.2C116.4,76.4,114.9,75,113,74.9"/>
</g>
</svg>
