<?xml version="1.0" encoding="utf-8"?>
<!-- Generator: Adobe Illustrator 27.2.0, SVG Export Plug-In . SVG Version: 6.00 Build 0)  -->
<svg version="1.1" id="Ebene_1" xmlns="http://www.w3.org/2000/svg" xmlns:xlink="http://www.w3.org/1999/xlink" x="0px" y="0px"
	 viewBox="0 0 180 180" style="enable-background:new 0 0 180 180;" xml:space="preserve">
<style type="text/css">
	.st0{fill:#0069B4;}
</style>
<g>
	<path class="st0" d="M119.9,100.8c-0.1-0.8-1.2-1.4-2.5-1.4H62.5c-1.3,0-2.3,0.6-2.5,1.4l-2.5,14.1c-0.2,0.9,1,1.8,2.5,1.8h60
		c1.5,0,2.6-0.8,2.5-1.8L119.9,100.8z M97.8,113.7H80.5c-0.4,0-0.8-0.3-0.7-0.7l0.7-5.2c0-0.3,0.3-0.5,0.7-0.5H97
		c0.4,0,0.7,0.2,0.7,0.5l0.7,5.2C98.5,113.4,98.2,113.7,97.8,113.7z"/>
	<path class="st0" d="M63.5,97.7h53c2,0,3.5-1.4,3.5-3.2V66.5c0-1.7-1.6-3.2-3.5-3.2h-53c-2,0-3.6,1.4-3.6,3.2v28.1
		C60,96.3,61.6,97.7,63.5,97.7z M61.7,64.9h56.7v28.9H61.7V64.9z"/>
</g>
</svg>
