<?xml version="1.0" encoding="utf-8"?>
<!-- Generator: Adobe Illustrator 27.3.1, SVG Export Plug-In . SVG Version: 6.00 Build 0)  -->
<svg version="1.1" id="Ebene_1" xmlns="http://www.w3.org/2000/svg" xmlns:xlink="http://www.w3.org/1999/xlink" x="0px" y="0px"
	 viewBox="0 0 180 180" style="enable-background:new 0 0 180 180;" xml:space="preserve">
<style type="text/css">
	.st0{fill:#0069B3;}
</style>
<g>
	<circle class="st0" cx="117.9" cy="63.1" r="8.2"/>
	<path class="st0" d="M90.5,86.7c-2-2-5.3-2-7.4,0c-2,2-2,5.3,0,7.4l10,10l-11.6,5.2c-2.6,1.2-3.8,4.3-2.6,6.9
		c1.2,2.6,4.3,3.8,6.9,2.6l18.4-8.2c0.1,0,0.2-0.1,0.3-0.2c0.5-0.2,0.9-0.5,1.3-0.9c2-2,2-5.3,0-7.4L90.5,86.7z"/>
	<path class="st0" d="M87.3,76.1l7.2-7.2l4.5,4.6v-1.7c0-3.3,2.6-5.9,5.9-5.9c0.5,0,1,0.1,1.5,0.2l-7.9-8.2c0,0-0.1-0.1-0.1-0.1
		c0,0,0-0.1-0.1-0.1c-2-2-5.3-2-7.4,0l-11,11c-2,2-2,5.3,0,7.4C81.9,78.1,85.2,78.1,87.3,76.1z"/>
	<path class="st0" d="M121.1,82.2h-10.8v-9.9c0-2.9-2.3-5.2-5.2-5.2s-5.2,2.3-5.2,5.2V87c0,2.9,2.3,5.2,5.2,5.2c0.1,0,0.1,0,0.2,0
		c0.1,0,0.1,0,0.2,0h15.7c2.8,0,5-2.2,5-5S123.8,82.2,121.1,82.2z"/>
	<path class="st0" d="M82.5,94.5c-1.8-1.8-2.1-4.5-1-6.6l-26.7,21.6c-2.2,1.8-2.6,5.1-0.8,7.3c1.8,2.2,5.1,2.6,7.3,0.8l24.5-19.8
		L82.5,94.5z"/>
</g>
</svg>
