<?xml version="1.0" encoding="utf-8"?>
<!-- Generator: Adobe Illustrator 27.2.0, SVG Export Plug-In . SVG Version: 6.00 Build 0)  -->
<svg version="1.1" id="Ebene_1" xmlns="http://www.w3.org/2000/svg" xmlns:xlink="http://www.w3.org/1999/xlink" x="0px" y="0px"
	 viewBox="0 0 180 180" style="enable-background:new 0 0 180 180;" xml:space="preserve">
<style type="text/css">
	.st0{fill:#0069B3;}
</style>
<path class="st0" d="M81.7,60.1c-3.5,0-7,1.2-9.8,3.5c-3.4,2.7-5.5,6.6-6,10.9c-0.5,4.3,0.6,8.6,3.3,12.1c2.6,3.5,6.4,5.6,10.7,6.2
	c4.2,0.5,8.4-0.6,11.8-3.3c3.4-2.7,5.5-6.6,6-10.9c0.5-4.3-0.6-8.6-3.3-12.1c-2.6-3.5-6.4-5.6-10.7-6.2C83,60.1,82.3,60.1,81.7,60.1
	 M81.7,97.1c-0.8,0-1.7-0.1-2.5-0.2c-5.3-0.7-10.1-3.4-13.4-7.8c-3.3-4.3-4.8-9.7-4.1-15.2c0.7-5.5,3.4-10.3,7.6-13.7
	c4.2-3.4,9.5-4.9,14.8-4.2c5.3,0.7,10.1,3.4,13.4,7.8c3.3,4.3,4.8,9.7,4.1,15.2c-0.7,5.5-3.3,10.3-7.6,13.7
	C90.5,95.6,86.2,97.1,81.7,97.1"/>
<polygon class="st0" points="114.5,124.6 119.4,120.7 98.2,92.9 93.3,96.8 "/>
</svg>
