<?xml version="1.0" encoding="utf-8"?>
<!-- Generator: Adobe Illustrator 27.2.0, SVG Export Plug-In . SVG Version: 6.00 Build 0)  -->
<svg version="1.1" id="Ebene_1" xmlns="http://www.w3.org/2000/svg" xmlns:xlink="http://www.w3.org/1999/xlink" x="0px" y="0px"
	 viewBox="0 0 180 180" style="enable-background:new 0 0 180 180;" xml:space="preserve">
<style type="text/css">
	.st0{fill:#0069B3;}
</style>
<g>
	<rect x="46.4" y="88.2" class="st0" width="17" height="6"/>
	<rect x="56.2" y="80" class="st0" width="17" height="6"/>
	<rect x="76" y="80" class="st0" width="17" height="6"/>
	<rect x="66.1" y="71.9" class="st0" width="17" height="6"/>
	<polygon class="st0" points="85.8,88.2 85.8,91 95.8,88.2 	"/>
	<path class="st0" d="M78.2,102.5c0,4.2,3.5,7.6,7.7,7.6s7.7-3.4,7.7-7.6c0-4.2-3.5-7.6-7.7-7.6S78.2,98.3,78.2,102.5"/>
	<path class="st0" d="M86.6,93.8L86.6,93.8c4-0.5,7.9,1.9,9,5.8c1.1,3.9-0.9,8-4.5,9.6l0,0.1l36.7-10.5c4.3-1.2,6.8-5.7,5.5-9.9
		c-1.2-4.3-5.8-6.7-10.1-5.5L86.6,93.8z"/>
	<path class="st0" d="M96,76.4c1.6,1.4,3.5,1.7,5.3,2c2,0.3,3.6,1.2,4.4,3.2c0.3,0.7,0.3,1.4,0.5,2.2c-2-0.2-3.7-0.9-5.2-1.8
		c1.3,1.4,3,2.2,5,2.8c-1,0.8-2.1,1.1-3.3,1c-1.1-0.1-2.1-0.5-3-1.2c-2.1-1.6-3-3.9-3.5-6.3C96.2,77.8,96.1,77.2,96,76.4"/>
	<path class="st0" d="M123.8,70.2c-1.6,1.5-2.5,3.4-2.9,5.5c-0.3,1.3-0.5,2.5-0.7,3.8c-0.4,2-1.4,3.7-3.4,4.7c-1.4,0.7-3,0.9-4.6,1
		c-0.6,0-1.1,0-1.7,0c0,0-0.1,0-0.1,0.1c-0.6,1.2-1,2.5-1.3,3.9c-0.2,1-0.8,1.2-1.7,0.6c0,0-0.1,0-0.1-0.1c0-0.1,0-0.1-0.1-0.2
		c0,0,0-0.1,0-0.1c0-0.1,0-0.1,0-0.2c0.3-2,1.1-3.9,2.1-5.7c2.2-3.7,5.2-6.7,8.7-9.3c0.1-0.1,0.3-0.2,0.4-0.3c-5,1.6-9,4.5-11.4,9.3
		c0,0.1-0.2,0.1-0.2,0c-0.6-1.4-0.8-2.8-0.5-4.3c0.4-2.6,2-4.4,4.1-5.7c3.6-2.2,7.6-3,11.8-3.2C123.4,69.8,123.8,70.1,123.8,70.2
		C123.8,70.1,123.9,70.1,123.8,70.2"/>
	<polygon class="st0" points="83.1,91 83.1,88.2 66.1,88.2 66.1,94.1 72,94.1 	"/>
</g>
</svg>
