<?xml version="1.0" encoding="utf-8"?>
<!-- Generator: Adobe Illustrator 27.2.0, SVG Export Plug-In . SVG Version: 6.00 Build 0)  -->
<svg version="1.1" id="Ebene_1" xmlns="http://www.w3.org/2000/svg" xmlns:xlink="http://www.w3.org/1999/xlink" x="0px" y="0px"
	 viewBox="0 0 180 180" style="enable-background:new 0 0 180 180;" xml:space="preserve">
<style type="text/css">
	.st0{fill:#0069B3;}
</style>
<g>
	<rect x="110.9" y="81.8" class="st0" width="24.4" height="8.6"/>
	<rect x="56.6" y="65" class="st0" width="34.2" height="12"/>
	<polygon class="st0" points="70.9,87.1 70.9,81.4 50.8,81.4 	"/>
	<path class="st0" d="M97.3,90.1l1.1,0.3h8.5v-8.6h-6.6c0.2-1,0.3-2.1,0.4-3.1h20.4v-8.6H100c-0.3-1.1-0.6-2.1-0.9-3.1h7.8v-8.6
		H94.1c-0.6-0.7-1.3-1.4-2-2.1c-5.2-5-12.1-7.7-19.3-7.7c-7.8,0-15,3.1-20.4,8.7c-5.2,5.4-7.9,12.5-7.7,20
		c0.2,7.5,3.3,14.4,8.8,19.6c5.2,5,12.1,7.7,19.3,7.7c5.5,0,10.8-1.6,15.3-4.5l33.2,31.3l8-8.4L96.3,91.9
		C96.7,91.3,97,90.7,97.3,90.1z M72.7,99.4c-5.9,0-11.5-2.2-15.8-6.3c-4.4-4.2-7-9.9-7.1-16c-0.2-6.1,2.1-11.9,6.3-16.3
		c4.4-4.6,10.3-7.1,16.6-7.1c5.9,0,11.5,2.2,15.8,6.3c9.2,8.7,9.6,23.2,0.9,32.3C85,96.9,79.1,99.4,72.7,99.4z"/>
	<path class="st0" d="M76.5,81.4v5.6L86.6,90c0,0,0.1-0.1,0.1-0.1c2.3-2.4,3.8-5.4,4.5-8.4H76.5z"/>
	<path class="st0" d="M76.5,58.3v2.3h6C80.6,59.5,78.6,58.7,76.5,58.3z"/>
</g>
</svg>
