<?xml version="1.0" encoding="utf-8"?>
<!-- Generator: Adobe Illustrator 27.2.0, SVG Export Plug-In . SVG Version: 6.00 Build 0)  -->
<svg version="1.1" id="Ebene_1" xmlns="http://www.w3.org/2000/svg" xmlns:xlink="http://www.w3.org/1999/xlink" x="0px" y="0px"
	 viewBox="0 0 180 180" style="enable-background:new 0 0 180 180;" xml:space="preserve">
<style type="text/css">
	.st0{fill:#0069B3;}
</style>
<g>
	<path class="st0" d="M81.2,101.2c0.9,0.4,1.7,0.8,2.3,1.3l1.2-3.1l0.8,0.3l0.4-1.1l-6.5-2.5L79,97.2l0.8,0.3l-1.2,3.1
		C79.3,100.7,80.2,100.9,81.2,101.2"/>
	<path class="st0" d="M82,96.3l1.9,0.7c1.2,0.5,2.7-0.1,3.1-1.4l5.5-14.2c-1.7-1.3-2.8-3.3-2.8-5.6c0-3.8,3.1-6.9,7-6.9
		c0.2,0,0.5,0,0.7,0l1.6-4.1c0.4-1,0.1-2.1-0.7-2.7l3-7.7c0.3-0.7-0.1-1.5-0.8-1.8l-0.8-0.3c-0.7-0.3-1.5,0.1-1.8,0.8l-3,7.7
		c-1,0-2,0.5-2.4,1.5l-12,30.7C80.1,94.4,80.7,95.8,82,96.3"/>
	<path class="st0" d="M96.7,79.5c-2,0-3.6-1.6-3.6-3.6c0-2,1.6-3.6,3.6-3.6c2,0,3.6,1.6,3.6,3.6C100.3,77.9,98.7,79.5,96.7,79.5
		 M96.7,70.1c-3.3,0-5.9,2.6-5.9,5.8c0,3.2,2.6,5.8,5.9,5.8c3.3,0,5.9-2.6,5.9-5.8C102.6,72.7,100,70.1,96.7,70.1"/>
	<path class="st0" d="M86.1,106.9l0.8,0.3l-1.3,3.3l-0.8-0.3c0-0.3-0.2-0.7-0.6-0.8l-8.1-3.1c-0.5-0.2-1,0-1.2,0.5
		c-0.2,0.5,0,1,0.5,1.2l8.2,3.1c0.3,0.1,0.6,0.1,0.9-0.1l0.9,0.3l-1.2,3.2h0l-1.2,3.1c0.3,0,0.6,0,0.9,0c5.4,0,10.4-1.6,14.5-4.5
		c-1.6-0.9-2.8-2.6-2.8-4.6c0-0.2,0-0.4,0-0.6c-1.3,1.3-2.8,2.4-4.4,3.4l1.5-3.8l-5-1.9l-0.3,0.7l-0.8-0.3l0.3-0.7l-12.4-4.8
		l-0.9,2.3l12.4,4.8L86.1,106.9z"/>
	<path class="st0" d="M98.3,82.6c2.2,3.2,3.5,7,3.5,11c0,3.6-1,7.1-2.9,10.1c0.5-0.2,1.1-0.3,1.7-0.3c2,0,3.7,1.1,4.6,2.6
		c2.6-4,4.1-8.8,4.1-13.9c0-6-2.1-11.6-5.6-15.9C103.5,79.4,101.3,81.9,98.3,82.6"/>
	<path class="st0" d="M100.6,111.3c-1.5,0-2.7-1.2-2.7-2.7c0-1.5,1.2-2.7,2.7-2.7c1.5,0,2.7,1.2,2.7,2.7
		C103.3,110.1,102.1,111.3,100.6,111.3 M100.6,104.3c-2.4,0-4.4,1.9-4.4,4.3c0,2.4,2,4.3,4.4,4.3c2.4,0,4.4-1.9,4.4-4.3
		C105,106.2,103,104.3,100.6,104.3"/>
	<path class="st0" d="M112.8,121.9h-8.9l4.8-12.2c0.4-1.1-0.1-2.3-1.2-2.7l-1.4-0.5c0.3,0.7,0.4,1.4,0.4,2.2c0,3.2-2.6,5.9-5.9,5.9
		c-0.7,0-1.4-0.1-2.1-0.4l-3.1,7.8H67.2c-1,0-1.8,0.8-1.8,1.8v2.2c0,1,0.8,1.8,1.8,1.8h45.6c1,0,1.8-0.8,1.8-1.8v-2.2
		C114.6,122.7,113.8,121.9,112.8,121.9"/>
</g>
</svg>
