<?xml version="1.0" encoding="utf-8"?>
<!-- Generator: Adobe Illustrator 27.2.0, SVG Export Plug-In . SVG Version: 6.00 Build 0)  -->
<svg version="1.1" id="Ebene_1" xmlns="http://www.w3.org/2000/svg" xmlns:xlink="http://www.w3.org/1999/xlink" x="0px" y="0px"
	 viewBox="0 0 180 180" style="enable-background:new 0 0 180 180;" xml:space="preserve">
<style type="text/css">
	.st0{fill:#0069B3;}
</style>
<g>
	<polygon class="st0" points="69,78.9 69,94.4 67.3,82.9 67.3,82.9 63.4,87.3 66.7,110.5 66.7,110.5 69,107.9 69,118.1 76.6,124.6 
		76.6,124.6 76.6,85.4 69.1,78.9 	"/>
	<polygon class="st0" points="77.2,71.1 77.2,71 69.6,77.6 69.6,77.7 77.2,84.2 77.2,84.2 77.3,84.2 84.8,77.7 	"/>
	<polygon class="st0" points="88.3,65.1 88.4,65.1 95.9,58.6 88.3,52 88.3,51.9 80.7,58.5 80.7,58.6 88.3,65.1 	"/>
	<polygon class="st0" points="57.7,84.3 57.6,84.3 61,107.4 66,110.6 66,110.6 62.7,87.4 	"/>
	<polygon class="st0" points="62.9,86.7 62.9,86.7 63,86.7 66.9,82.2 61.8,79 61.8,78.9 57.9,83.4 57.9,83.5 	"/>
	<polygon class="st0" points="122.3,97.5 115.5,100.4 106.6,128.1 106.7,128.1 113.5,125.2 122.4,97.6 	"/>
	<polygon class="st0" points="110.8,93.9 110.8,93.8 101.9,121.5 105.8,127.8 105.8,127.8 114.7,100.1 	"/>
	<polygon class="st0" points="115.3,99.4 115.4,99.4 115.4,99.4 122.2,96.5 122.2,96.5 118.3,90.1 118.3,90.2 111.5,93.1 	"/>
	<polygon class="st0" points="90.3,71.4 90.1,71.4 85.4,97 85.4,78.9 85.3,78.9 77.8,85.4 77.8,124.6 77.8,124.6 83.4,119.8 
		89.4,127 89.5,127 98.1,80.7 	"/>
	<polygon class="st0" points="110.1,75 99.5,81 91,127.3 91,127.3 101.7,121.3 110.2,75.1 	"/>
	<polygon class="st0" points="91.2,69.9 91.1,70 99,79.4 99,79.4 99.1,79.4 109.8,73.5 101.9,64 101.9,63.9 	"/>
	<polygon class="st0" points="88.9,69 96.5,64.7 96.5,59.8 96.4,59.8 88.9,66.3 	"/>
	<polygon class="st0" points="87.7,66.3 80.2,59.8 80.1,59.8 80.1,70.9 87.7,77.4 	"/>
</g>
</svg>
