<?xml version="1.0" encoding="utf-8"?>
<!-- Generator: Adobe Illustrator 27.2.0, SVG Export Plug-In . SVG Version: 6.00 Build 0)  -->
<svg version="1.1" id="Ebene_1" xmlns="http://www.w3.org/2000/svg" xmlns:xlink="http://www.w3.org/1999/xlink" x="0px" y="0px"
	 viewBox="0 0 180 180" style="enable-background:new 0 0 180 180;" xml:space="preserve">
<style type="text/css">
	.st0{fill:#0069B4;}
</style>
<path class="st0" d="M117,101.6c1.4,0.6,3,0,3.6-1.4c0.6-1.4,0-3-1.4-3.7c-1.1-0.5-2.3-0.2-3.1,0.6l-8.7-4c0.5-1.4,0.8-2.9,0.8-4.4
	c0-3.1-1.1-6-2.9-8.2l8.6-8.7c1.3,0.6,2.8,0.4,3.8-0.7c1.3-1.3,1.3-3.5,0-4.8c-1.3-1.3-3.5-1.3-4.8,0c-1.2,1.2-1.2,3-0.4,4.3
	l-8.5,8.6c-2.3-2.2-5.4-3.5-8.8-3.5c0,0-0.1,0-0.1,0V56c1.5-0.4,2.7-1.8,2.7-3.5c0-2-1.6-3.6-3.6-3.6c-2,0-3.6,1.6-3.6,3.6
	c0,1.7,1.1,3.1,2.7,3.5v19.9c-2.7,0.4-5.1,1.6-7,3.4l-9.1-9.1c1.8-2.4,1.6-5.9-0.6-8c-2.4-2.4-6.3-2.4-8.7,0c-2.4,2.4-2.4,6.4,0,8.8
	c2.2,2.2,5.6,2.4,8.1,0.6l9.1,9.2c-1.8,2.2-2.8,5.1-2.8,8.1c0,0.4,0,0.8,0.1,1.2l-15.5,2c-0.6-1.8-2.4-3.1-4.3-2.8
	c-2.2,0.3-3.7,2.3-3.5,4.5c0.3,2.2,2.3,3.8,4.5,3.5c1.8-0.2,3.1-1.6,3.4-3.3l15.6-2c0.8,3.4,2.8,6.2,5.6,8L78,115.9
	c-3.7-2-8.3-0.9-10.6,2.7c-2.4,3.8-1.3,8.8,2.4,11.2c3.8,2.4,8.7,1.3,11.2-2.5c2.2-3.4,1.5-7.9-1.5-10.5l10.3-16.2
	c1.7,0.8,3.5,1.2,5.4,1.2c2.2,0,4.2-0.5,6-1.5l12.3,13.8c-0.9,1.3-0.8,3.1,0.3,4.4c1.3,1.5,3.6,1.6,5.1,0.3c1.5-1.3,1.6-3.6,0.3-5.1
	c-1.1-1.2-2.9-1.5-4.3-0.8l-12.1-13.5c1.6-1.2,3-2.7,3.9-4.5l8.7,4C115.4,100,116,101.2,117,101.6"/>
</svg>
