<?xml version="1.0" encoding="utf-8"?>
<!-- Generator: Adobe Illustrator 27.2.0, SVG Export Plug-In . SVG Version: 6.00 Build 0)  -->
<svg version="1.1" id="Ebene_1" xmlns="http://www.w3.org/2000/svg" xmlns:xlink="http://www.w3.org/1999/xlink" x="0px" y="0px"
	 viewBox="0 0 180 180" style="enable-background:new 0 0 180 180;" xml:space="preserve">
<style type="text/css">
	.st0{fill:#0069B3;}
</style>
<path class="st0" d="M100,60.8v4.8c10.7,4.1,18.3,14.4,18.3,26.5c0,15.6-12.7,28.4-28.4,28.4c-15.6,0-28.4-12.7-28.4-28.4
	c0-12.3,7.9-22.8,18.9-26.7v-4.8C67,64.7,57.1,77.3,57.1,92.2c0,18.1,14.8,32.9,32.9,32.9s32.9-14.8,32.9-32.9
	C122.9,77.5,113.3,65.1,100,60.8"/>
<path class="st0" d="M90.3,94.1c1.6,0,3-1.3,3-3V55.4c0-1.6-1.3-3-3-3c-1.6,0-3,1.3-3,3v35.7C87.3,92.8,88.6,94.1,90.3,94.1"/>
</svg>
