<?xml version="1.0" encoding="utf-8"?>
<!-- Generator: Adobe Illustrator 27.2.0, SVG Export Plug-In . SVG Version: 6.00 Build 0)  -->
<svg version="1.1" id="Ebene_1" xmlns="http://www.w3.org/2000/svg" xmlns:xlink="http://www.w3.org/1999/xlink" x="0px" y="0px"
	 viewBox="0 0 180 180" style="enable-background:new 0 0 180 180;" xml:space="preserve">
<style type="text/css">
	.st0{fill:#0069B3;}
</style>
<g>
	<polygon class="st0" points="79.5,113.2 78.4,122.8 101.7,122.8 100.6,113.2 	"/>
	<path class="st0" d="M85.7,75.7c-2.6-0.3-5-0.6-7.4-0.9c-2.2-0.3-4.5-0.6-6.7-0.8c-3.9-0.4-6.6,2.5-5.9,6.5
		c0.6,3.6,2.2,4.9,5.7,4.9c2.5,0,5.1,0,7.6,0c2.3,0,4.3-0.7,5.3-3.1c0.1-0.2,0.4-0.4,0.7-0.4c0.6-0.1,1.2,0,1.9,0
		c-0.3,2.2-1.4,3.9-3.2,4.9c-1.2,0.6-2.7,1.1-4.1,1.2c-2.9,0.2-5.8,0.1-8.7,0.1c-4,0-6.7-2.4-7.6-6.5c-1.1-5.6,2.6-10.3,7.8-10
		c1.9,0.1,3.8,0.4,5.7,0.6c1.4,0.2,2.9,0.3,4.3,0.6C82.9,72.9,84.5,73.9,85.7,75.7"/>
	<path class="st0" d="M78.4,98.6c0.6-1.8,1.1-3.5,1.8-5.1c1.2-3,3.6-4.3,6.7-4.5c0.6,0,1.2,0,1.8,0c2.5-0.1,4.4-2,4.4-4.5
		c0-2.4-1.9-4.5-4.3-4.6c-1.7-0.1-3.4,0-5,0c-1.7,0-3-0.8-3.8-2.2c0.1-0.1,0.1-0.2,0.2-0.2c3,0,5.9-0.2,8.9,0.1
		c5.1,0.4,7.9,5.4,5.9,10c-1.2,2.7-3.3,3.9-6.1,4c-5,0.2-5.4,0.5-7.1,5.3C81,98.6,80,99.2,78.4,98.6"/>
	<path class="st0" d="M111.8,91.3c-1.5-0.2-2.2-0.9-2.3-2.4c0-1.4,0-2.9,0-4.3c0-2.4-1.6-4.3-3.9-4.6c-0.9-0.1-2-0.1-2.9,0.1
		c-2.4,0.4-3.8,2.5-3.6,4.9c0.2,2.2,2.2,3.9,4.4,4c0.4,0,0.9,0,1.3,0c1.2,0.2,1.9,0.9,2.1,2.2c-6.2,1.3-10.4-2-10.1-7.3
		c0.2-3.3,2.9-6,6.2-6.3c1.2-0.1,2.5,0,3.7,0.2c2.7,0.5,4.9,2.8,5.1,5.6C111.9,86,111.8,88.7,111.8,91.3"/>
	<path class="st0" d="M114.5,73.5c1.6,0.3,2.3,1,2.3,2.3c0,5.1,0,10.3,0,15.4c-1.5,0.1-2.3-0.8-2.3-2.4c0-3,0-6,0-9V73.5z"/>
	<path class="st0" d="M127.7,103.3H52.3V59.7h75.4V103.3z M125.2,57.2H54.8c-2.6,0-4.7,2.2-4.7,4.8v42.4c0,2.6,2.1,4.8,4.7,4.8h70.4
		c2.6,0,4.7-2.2,4.7-4.8V62C129.9,59.4,127.8,57.2,125.2,57.2"/>
</g>
</svg>
