<?xml version="1.0" encoding="utf-8"?>
<!-- Generator: Adobe Illustrator 27.2.0, SVG Export Plug-In . SVG Version: 6.00 Build 0)  -->
<svg version="1.1" id="Ebene_1" xmlns="http://www.w3.org/2000/svg" xmlns:xlink="http://www.w3.org/1999/xlink" x="0px" y="0px"
	 viewBox="0 0 180 180" style="enable-background:new 0 0 180 180;" xml:space="preserve">
<style type="text/css">
	.st0{fill:#0E69B1;}
</style>
<g>
	<path class="st0" d="M111.2,120.9H68.8V59.1h27.8v14.5h14.5V120.9z M99.4,60.2L110,70.8H99.4V60.2z M113.9,70.8L99.4,56.4v0h0h0
		H66.1v67.3h47.7L113.9,70.8L113.9,70.8z"/>
	<path class="st0" d="M76.2,91.6H73v-6.1h3.2c1.9,0,3,1.1,3,3C79.3,90.4,78.1,91.6,76.2,91.6 M76.6,83.6h-5c-0.5,0-0.7,0.2-0.7,0.7
		v14.2c0,0.5,0.2,0.7,0.7,0.7h0.7c0.5,0,0.7-0.2,0.7-0.7v-5.1h3.6c2.9,0,4.9-2,4.9-5C81.5,85.6,79.4,83.6,76.6,83.6"/>
	<path class="st0" d="M89.1,97.4h-2.9V85.5h2.9c3.5,0,5.9,2.1,5.9,5.9C95,95.3,92.7,97.4,89.1,97.4 M89.3,83.6h-4.5
		c-0.5,0-0.7,0.2-0.7,0.7v14.2c0,0.5,0.2,0.7,0.7,0.7h4.5c4.8,0,8-2.9,8-7.9C97.3,86.5,94.1,83.6,89.3,83.6"/>
	<path class="st0" d="M101.1,99.3h0.7c0.5,0,0.7-0.2,0.7-0.7v-6h4.8c0.5,0,0.7-0.2,0.7-0.7v-0.4c0-0.5-0.2-0.7-0.7-0.7h-4.8v-5.2
		h5.7c0.5,0,0.7-0.3,0.7-0.7v-0.4c0-0.5-0.3-0.7-0.7-0.7h-7.2c-0.5,0-0.7,0.2-0.7,0.7v14.2C100.3,99.1,100.6,99.3,101.1,99.3"/>
</g>
</svg>
