<?xml version="1.0" encoding="utf-8"?>
<!-- Generator: Adobe Illustrator 27.2.0, SVG Export Plug-In . SVG Version: 6.00 Build 0)  -->
<svg version="1.1" id="Ebene_1" xmlns="http://www.w3.org/2000/svg" xmlns:xlink="http://www.w3.org/1999/xlink" x="0px" y="0px"
	 viewBox="0 0 180 180" style="enable-background:new 0 0 180 180;" xml:space="preserve">
<style type="text/css">
	.st0{fill:#0069B3;}
</style>
<g>
	<rect x="75.6" y="103.8" class="st0" width="36.7" height="4.2"/>
	<rect x="75.6" y="111.8" class="st0" width="36.7" height="4.2"/>
	<path class="st0" d="M71.9,122.5h44.7V57.5H71.9V122.5z M119.3,125.2H69.2V54.8h50.1V125.2z"/>
	<path class="st0" d="M84.2,90.1c-5.1-5.3-4.9-13.8,0.5-18.9c2.5-2.4,5.8-3.7,9.3-3.7c3.7,0,7.2,1.5,9.8,4.2c2.5,2.6,3.8,6,3.7,9.6
		c-0.1,3.6-1.6,6.9-4.2,9.3c-0.3,0.3-0.6,0.5-0.9,0.8c-1.6-1-4.8-1.8-8.4-1.8c-3.6,0-6.7,0.7-8.4,1.8C85.1,91,84.6,90.6,84.2,90.1
		 M106,69.6c-3.2-3.3-7.4-5.1-12-5.1c-4.3,0-8.3,1.6-11.4,4.5c-5.9,5.5-6.8,14.3-2.5,20.8L60.7,108l4.7,4.9L85,94.6
		c2.7,1.7,5.7,2.6,9,2.6c4.3,0,8.3-1.6,11.4-4.5c3.2-3,5-7.1,5.2-11.5C110.7,77,109,72.8,106,69.6"/>
	<path class="st0" d="M99.9,80.7c0-3.5-2.6-6.3-5.9-6.3c-3.3,0-5.9,2.8-5.9,6.3c0,3.5,2.6,6.3,5.9,6.3C97.2,87,99.9,84.2,99.9,80.7"
		/>
</g>
</svg>
