<?xml version="1.0" encoding="utf-8"?>
<!-- Generator: Adobe Illustrator 27.2.0, SVG Export Plug-In . SVG Version: 6.00 Build 0)  -->
<svg version="1.1" id="Ebene_1" xmlns="http://www.w3.org/2000/svg" xmlns:xlink="http://www.w3.org/1999/xlink" x="0px" y="0px"
	 viewBox="0 0 180 180" style="enable-background:new 0 0 180 180;" xml:space="preserve">
<style type="text/css">
	.st0{fill:#0069B3;}
</style>
<g>
	<path class="st0" d="M78.9,70.5c-6.1,0-11.1,5.4-11.1,12c0,6.6,4.9,12,11.1,12c6.1,0,11.1-5.4,11.1-12C90,75.9,85,70.5,78.9,70.5z"
		/>
	<path class="st0" d="M78.9,54.6c-15.5,0-28.1,12.6-28.1,28.1c0,1,0.1,2.1,0.2,3.1c0,0.3,0.1,0.6,0.1,1c0.1,0.7,0.2,1.4,0.4,2
		c0.1,0.4,0.2,0.7,0.3,1.1c0.2,0.6,0.3,1.2,0.5,1.9c0.1,0.3,0.2,0.7,0.4,1c0.2,0.6,0.5,1.2,0.8,1.8c0.1,0.3,0.3,0.6,0.4,0.9
		c0.3,0.6,0.7,1.2,1,1.8c0.1,0.2,0.3,0.5,0.4,0.7c0.4,0.7,0.9,1.3,1.4,2c0.1,0.1,0.2,0.2,0.3,0.4c5.2,6.4,13.1,10.5,21.9,10.5
		c8.9,0,16.7-4.1,21.9-10.5c0.1-0.1,0.2-0.2,0.3-0.4c0.5-0.6,1-1.3,1.4-2c0.1-0.2,0.3-0.5,0.4-0.7c0.4-0.6,0.7-1.2,1-1.8
		c0.2-0.3,0.3-0.6,0.4-0.9c0.3-0.6,0.5-1.2,0.8-1.8c0.1-0.3,0.3-0.7,0.4-1c0.2-0.6,0.4-1.2,0.5-1.9c0.1-0.4,0.2-0.7,0.3-1.1
		c0.2-0.7,0.3-1.4,0.4-2c0-0.3,0.1-0.6,0.1-1c0.1-1,0.2-2,0.2-3.1C107.1,67.2,94.4,54.6,78.9,54.6z M104.6,85.6
		c0,0.3-0.1,0.6-0.1,0.9c-0.1,0.7-0.2,1.3-0.3,1.9c-0.1,0.3-0.2,0.6-0.2,0.9c-0.2,0.6-0.3,1.2-0.5,1.8c-0.1,0.3-0.2,0.6-0.3,0.8
		c-0.2,0.6-0.5,1.2-0.8,1.8c-0.1,0.2-0.2,0.5-0.3,0.7c-0.3,0.7-0.7,1.3-1.1,2c-0.1,0.1-0.2,0.3-0.2,0.4c-1.5,2.4-3.5,4.5-5.7,6.2
		c-3-2.1-9-3.5-16-3.5c-7,0-13,1.4-16,3.5c-2.2-1.7-4.1-3.9-5.7-6.2c-0.1-0.1-0.2-0.2-0.2-0.4c-0.4-0.6-0.8-1.3-1.1-2
		c-0.1-0.2-0.2-0.5-0.3-0.7c-0.3-0.6-0.5-1.2-0.8-1.8c-0.1-0.3-0.2-0.6-0.3-0.8c-0.2-0.6-0.4-1.2-0.5-1.8c-0.1-0.3-0.2-0.6-0.2-0.9
		c-0.1-0.6-0.2-1.3-0.3-1.9c0-0.3-0.1-0.6-0.1-0.9c-0.1-0.9-0.2-1.9-0.2-2.9c0-14.2,11.6-25.8,25.8-25.8c14.2,0,25.8,11.6,25.8,25.8
		C104.8,83.7,104.7,84.7,104.6,85.6z"/>
</g>
<path class="st0" d="M100.1,136.2c4-2.6,7.9-5.9,11.7-9.7c3.8-3.9,7.5-8.3,11-13.4c3.5-5,6.4-9.9,8.7-14.8c2.3-4.8,3.9-9.5,5-14.2
	c-2.6-5.3-5.5-9.1-8.6-11.2l-1.4-1c-1.8-1.3-3.3-1.7-4.7-1.4c-1.3,0.3-2.7,1.6-4.2,3.7c-4.4,6.3-4.3,11,0.2,14.2l1.9,1.3
	c2.3,1.6,3.2,3.8,2.6,6.6c-0.7,3.1-2.8,7.2-6.3,12.2c-3.5,5-6.5,8.3-9.2,10c-1.5,1-2.7,1.5-3.7,1.5c-1,0-2.2-0.6-3.7-1.6l-2-1.4
	c-4.4-3.1-8.8-1.6-13.2,4.6c-1.5,2.2-2.2,4-2,5.4c0.2,1.4,1.3,2.8,3.2,4.2l1.2,0.9C90,134.4,94.5,135.8,100.1,136.2"/>
</svg>
