<?xml version="1.0" encoding="utf-8"?>
<!-- Generator: Adobe Illustrator 27.2.0, SVG Export Plug-In . SVG Version: 6.00 Build 0)  -->
<svg version="1.1" id="Ebene_1" xmlns="http://www.w3.org/2000/svg" xmlns:xlink="http://www.w3.org/1999/xlink" x="0px" y="0px"
	 viewBox="0 0 180 180" style="enable-background:new 0 0 180 180;" xml:space="preserve">
<style type="text/css">
	.st0{fill:#0069B3;}
</style>
<g>
	<path class="st0" d="M84.1,112.5c0.9,0.4,1.9,0.8,2.7,1.1c3.8,0.9,7.6,1.5,11.4,1.3c2.4-0.1,5.2-0.3,7.5-1.2c1.8-0.6,2.9-1.1,4-1.9
		c1.3-0.9,1.6-2.5,1-4c-0.5-1.2-0.9-1.4-2.6-1.9c-0.7-0.2-2.9-0.8-2.8-0.8c2.6-1.2,5.2-2.6,8.1-3c0.6-0.1,1.3,0.2,1.9,0.2
		c0.3,0,0.5,0,0.8-0.1c2.2-0.7,4.4-1.4,6.7-1.9c0.7-0.2,1.4-0.1,2.1,0c0.9,0.1,1.4,0.7,1.5,1.4c0.1,0.8-0.3,1.4-1,1.8
		c-2,1.3-4,2.6-5.9,4c-1.7,1.3-3.4,2.7-5,4.1c-2.9,2.7-6.4,4.4-10,5.9c-2.2,0.9-4.3,2-6.3,3.3c-2.9,1.8-6,2.2-9.2,0.9
		c-2.8-1.1-5.6-2.3-8.4-3.4c-1.1-0.4-4.6-2-5.1-2.2c-5.3-1.7-10.6-1.8-16-0.4c-0.8,0.2-1.6,0.4-2.4,0.6c-1.5,0.3-2.8-0.6-3-2.2
		c-0.1-0.5,0-1.1-0.1-1.6c0-2-0.1-4.1-0.1-6.1c-0.1-2.7,1.6-4.5,4.3-4.8c4.8-0.6,9.7-1.3,14.5-2c3.7-0.5,7.4-0.8,11,0.2
		c1.1,0.3,2.2,0.9,3.3,1.5c0.4,0.2,0.8,0.6,1,1c0.6,1.5,1.9,1.9,3.3,2.2c1.9,0.4,3.8,0.7,5.7,0.7c3.2,0,6.2,0.6,9.2,1.5
		c0.5,0.2,0.9,0.2,1.4,0.4c1,0.4,1.5,1.2,1.5,2.2c0,0.9-0.6,1.5-1.4,1.8c-0.9,0.3-1.8,0.6-2.7,0.7c-6,0.5-12.1,0.9-18.1,0.7
		c-0.8,0-1.6-0.1-2.4-0.2C84.1,112.4,84.1,112.4,84.1,112.5"/>
	<path class="st0" d="M96.8,90.4c-7,1.1-13.6-3.8-14.7-10.8c-1.1-7,3.8-13.6,10.8-14.7c7-1.1,13.6,3.8,14.7,10.8
		C108.7,82.7,103.9,89.3,96.8,90.4 M110.6,75.2c-0.2-1.3,1.2-2.7,3.5-3.6c-0.5-1.5-1.1-2.9-1.8-4.2c-2.1,1.1-4.1,1.2-5,0.1
		c-0.8-1-0.3-3,1.2-4.8c-1.1-1-2.3-1.9-3.6-2.7c-1.3,2-3,3.1-4.3,2.6c-1.3-0.5-1.7-2.4-1.4-4.8c-1.4-0.3-2.9-0.5-4.4-0.5
		c-0.1,2.4-1,4.2-2.4,4.4c-1.3,0.2-2.7-1.3-3.6-3.5c-1.4,0.4-2.8,1-4.1,1.8c1.1,2.1,1.2,4.2,0.1,5c-1.1,0.8-3,0.3-4.9-1.3
		c-1,1.1-1.9,2.3-2.7,3.6c2,1.3,3.1,3,2.6,4.3c-0.5,1.3-2.5,1.7-4.8,1.3c-0.3,1.4-0.5,2.9-0.5,4.5c2.4,0.1,4.2,1,4.4,2.4
		c0.2,1.3-1.2,2.7-3.5,3.6c0.4,1.4,1,2.8,1.8,4.1c2.1-1.1,4.1-1.2,5-0.1c0.9,1.1,0.3,3-1.2,4.8c1.1,1,2.3,1.9,3.6,2.7
		c1.3-2,3-3.1,4.3-2.6c1.3,0.5,1.7,2.5,1.4,4.8c1.4,0.3,2.9,0.5,4.4,0.5c0.1-2.4,1-4.2,2.4-4.4c1.3-0.2,2.7,1.2,3.6,3.5
		c1.4-0.4,2.8-1,4-1.7c-1.1-2.1-1.2-4.1-0.1-5c1.1-0.9,3-0.3,4.9,1.2c1-1.1,1.9-2.3,2.7-3.6c-2-1.3-3.1-3-2.6-4.2
		c0.5-1.3,2.4-1.7,4.8-1.4c0.3-1.5,0.5-3,0.5-4.5C112.6,77.5,110.8,76.6,110.6,75.2"/>
</g>
</svg>
