<?xml version="1.0" encoding="utf-8"?>
<!-- Generator: Adobe Illustrator 27.2.0, SVG Export Plug-In . SVG Version: 6.00 Build 0)  -->
<svg version="1.1" id="Ebene_1" xmlns="http://www.w3.org/2000/svg" xmlns:xlink="http://www.w3.org/1999/xlink" x="0px" y="0px"
	 viewBox="0 0 180 180" style="enable-background:new 0 0 180 180;" xml:space="preserve">
<style type="text/css">
	.st0{fill:#0569B0;}
</style>
<g>
	<path class="st0" d="M103.3,63.4c-0.3-0.3-0.6-0.4-1-0.2c-4.7,2.3-9,5.3-12.8,8.9c-3.7,3.5-7,7.5-9.9,11.7
		c-0.2,0.3-0.6,0.6-0.9,0.6c-3.2,0.4-6.5,0.7-9.7,1c-1,0.1-1.7,0.5-2.2,1.4c-0.4,0.7-0.9,1.4-1.4,2.1c-2,2.9-3.9,5.9-6,9
		c0.9,0.8,1.7,1.6,2.5,2.4c0.4,0.5,0.8,0.5,1.4,0.2c3-1.4,6-2.7,8.9-4.1c0.3-0.1,0.6-0.2,1-0.4c-0.5,1.3-0.9,2.3-1.3,3.4
		c-0.2,0.5-0.1,0.8,0.2,1.2c2.4,2.4,4.8,4.8,7.2,7.2c0.4,0.4,0.7,0.5,1.3,0.2c1-0.4,2-0.8,3.3-1.3c-0.2,0.6-0.4,1-0.5,1.4
		c-1.3,2.9-2.7,5.9-4,8.8c-0.1,0.2-0.2,0.6-0.1,0.8c0.9,1,1.9,1.9,2.9,2.9c4-2.6,7.9-5.2,11.8-7.8c0.2-0.1,0.4-0.5,0.4-0.8
		c0.4-3.4,0.8-6.9,1.1-10.3c0.1-0.5,0.3-0.8,0.7-1.2c2.9-2.3,5.9-4.4,8.6-6.8c5-4.4,9-9.6,11.9-15.6c0.2-0.5,0.3-0.8-0.1-1.2
		C112.1,72.3,107.7,67.8,103.3,63.4z M100.1,86.2c-3.6,0-6.3-2.9-6.3-6.4c0-3.6,2.8-6.4,6.5-6.4c3.4,0,6.3,2.9,6.3,6.4
		C106.6,83.4,103.7,86.3,100.1,86.2z"/>
	<path class="st0" d="M71.3,101.9c-0.2-0.2-0.5-0.3-0.8-0.3c-2.2,0.2-5.4,2.9-6,5c1-0.3,2-0.5,2.9-0.8c-3.1,2.7-4.7,5.1-4.7,7.4
		c0.9-0.6,1.9-1.3,2.8-1.9c0,0.1,0.1,0.1,0.1,0.2c-2,2.5-2.8,5.4-3.2,8.6c4.2-1.4,7.7-3.4,10.6-6.7c0.1,0.1,0.1,0.1,0.2,0.2
		c-1.1,1.6-2.2,3.2-3.3,4.9c0,0.1,0.1,0.1,0.1,0.2c1.4-0.8,2.9-1.6,4.2-2.5c2.1-1.5,3.7-3.4,4.7-5.8c0.1-0.4,0.2-0.6-0.1-1
		C76.3,107,73.8,104.4,71.3,101.9z"/>
	<path class="st0" d="M120.5,60.8c0-1.2-0.1-1.3-1.4-1.3c-1.9,0.1-3.8,0.1-5.7,0.3c-2.7,0.3-5.3,1.1-7.8,2
		c4.2,4.2,8.4,8.4,12.6,12.5c0-0.1,0.1-0.2,0.2-0.4C119.9,69.8,120.7,65.4,120.5,60.8z"/>
</g>
</svg>
