<?xml version="1.0" encoding="utf-8"?>
<!-- Generator: Adobe Illustrator 27.2.0, SVG Export Plug-In . SVG Version: 6.00 Build 0)  -->
<svg version="1.1" id="Ebene_1" xmlns="http://www.w3.org/2000/svg" xmlns:xlink="http://www.w3.org/1999/xlink" x="0px" y="0px"
	 viewBox="0 0 180 180" style="enable-background:new 0 0 180 180;" xml:space="preserve">
<style type="text/css">
	.st0{fill:#0069B3;}
</style>
<path class="st0" d="M85.4,58.4c3.4,5.7,6.7,11.4,10.1,17.1c0.2,0.4,0.2,0.5-0.2,0.7c-1.6,0.9-3.3,1.8-4.9,2.7
	c-0.2,0.1-0.3,0.2-0.6,0.3c6.4,1.7,12.6,3.3,18.9,5c1.7-6.1,3.4-12.1,5.1-18.3c-2.1,1.1-4,2.2-6,3.3c-0.1-0.2-0.3-0.4-0.4-0.6
	c-2-3.3-3.9-6.7-6-10c-1-1.6-2.5-2.5-4.4-2.5c-4.3-0.1-8.7,0-13,0c-0.5,0-0.9,0.1-1.4,0.2c0,0,0,0.1,0,0.1
	C84,56.5,84.8,57.3,85.4,58.4"/>
<path class="st0" d="M123.1,104.2c-6.7,0-13.4,0.1-20.1,0.1c-0.5,0-0.6-0.2-0.5-0.6c0-1.2,0-2.4,0-3.6c0-0.8,0-1.6,0-2.4
	c-0.1,0-0.1,0-0.2,0c-4.5,4.5-9.1,8.9-13.7,13.4c4.7,4.4,9.3,8.8,14,13.3v-0.8c0-1.7,0-3.5,0-5.2c0-0.7,0-0.7,0.7-0.7
	c3.9,0,7.9-0.1,11.8-0.1c2,0,3.5-0.9,4.5-2.5c2.2-3.6,4.3-7.2,6.4-10.9c0.2-0.4,0.4-0.9,0.6-1.3c0,0-0.1-0.1-0.1-0.1
	C125.6,104,124.4,104.2,123.1,104.2"/>
<path class="st0" d="M63,113.2c3.4-5.6,6.8-11.3,10.1-16.9c0.2-0.4,0.4-0.4,0.8-0.2c1.6,0.9,3.2,1.8,4.7,2.7
	c0.2,0.1,0.4,0.2,0.7,0.4C77.7,93,76,87,74.3,80.8c-6.3,1.6-12.5,3.3-18.9,4.9c2.1,1.2,4,2.3,6,3.4c-0.1,0.2-0.2,0.4-0.3,0.6
	c-2,3.3-4,6.7-6,10c-0.9,1.6-1,3.3,0,4.9c2.1,3.7,4.3,7.3,6.5,11c0.2,0.4,0.6,0.7,0.9,1.1c0,0,0.1,0,0.1-0.1
	C62,115.4,62.4,114.3,63,113.2"/>
<path class="st0" d="M69,104.5c-0.4,0-0.5,0.2-0.7,0.4c-1.7,2.8-3.4,5.6-5,8.4c-0.3,0.5-0.5,1-0.6,1.6c-0.3,1.2,0.3,2.3,1.5,2.7
	c0.6,0.2,1.3,0.3,1.9,0.3c6.1,0,12.1,0,18.2,0c0.2,0,0.3,0,0.5,0v-13.4c-0.2,0-0.3,0-0.5,0C79.1,104.5,74.1,104.5,69,104.5"/>
<path class="st0" d="M104.7,90.8c2.6,4.3,5.2,8.6,7.8,12.8c0.2,0.3,0.4,0.4,0.7,0.3c2.4,0,4.7,0,7.1,0c1.3,0,2.6,0,3.9-0.1
	c1.4-0.1,2.4-1,2.5-2.2c0.1-0.8-0.2-1.5-0.6-2.2c-3.1-5.2-6.3-10.4-9.4-15.6c-0.1-0.1-0.1-0.2-0.2-0.3c-4,2.3-8,4.5-11.9,6.8
	C104.6,90.7,104.6,90.8,104.7,90.8"/>
<path class="st0" d="M82.5,80.8c2.6-4.3,5.2-8.7,7.8-13c0.1-0.2,0.1-0.5-0.1-0.7c-1.7-2.9-3.3-5.7-5-8.6c-0.3-0.6-0.8-1.1-1.4-1.5
	c-0.9-0.7-2-0.6-2.8,0.1c-0.4,0.4-0.9,0.8-1.1,1.2c-2.5,4.2-5,8.3-7.5,12.5c-0.7,1.1-1.3,2.2-2,3.4c4,2.3,8,4.5,12,6.8
	C82.4,80.9,82.4,80.8,82.5,80.8"/>
</svg>
