<?xml version="1.0" encoding="utf-8"?>
<!-- Generator: Adobe Illustrator 27.2.0, SVG Export Plug-In . SVG Version: 6.00 Build 0)  -->
<svg version="1.1" id="Ebene_1" xmlns="http://www.w3.org/2000/svg" xmlns:xlink="http://www.w3.org/1999/xlink" x="0px" y="0px"
	 viewBox="0 0 180 180" style="enable-background:new 0 0 180 180;" xml:space="preserve">
<style type="text/css">
	.st0{fill:#0069B3;}
</style>
<g>
	<path class="st0" d="M109.3,117.5H86.1c2.1-2.1,3.3-5,3.3-8.2c0-6.4-5.1-11.7-11.4-11.7s-11.4,5.2-11.4,11.7c0,3.2,1.3,6.1,3.3,8.2
		H59.1v6.9h40.4v0h9.9c1.6,0,2.8-1.3,2.8-2.9v-1.1C112.2,118.8,110.9,117.5,109.3,117.5z M70,109.2c0-4.6,3.6-8.2,8.1-8.2
		s8.1,3.7,8.1,8.2c0,4.6-3.6,8.2-8.1,8.2S70,113.8,70,109.2z"/>
	<path class="st0" d="M87.6,67.9l13.1,9.5l4.5-6.6l-13.2-9.5C92,64.4,90.2,66.9,87.6,67.9z"/>
	<polygon class="st0" points="110.1,82 112.3,78.7 112.3,78.7 114.2,76 129.3,83.7 129.9,82.8 116.4,72.9 114.7,71.7 109.8,76.2 
		105.3,72.9 102.7,76.7 107.2,80 104.7,86.2 106.4,87.4 106.4,87.4 120,97.2 120.6,96.3 108.5,84.3 110,82 	"/>
	<path class="st0" d="M66.8,77.4L82.6,68c-2.7-1-4.6-3.7-4.6-6.8c0-0.4,0-0.8,0.1-1.3l-15.8,9.3C65,71,66.8,73.9,66.8,77.4z"/>
	<path class="st0" d="M75.9,95.9l-9.6-15.4c-1.2,3.8-4.7,6.5-8.8,6.5c-0.4,0-0.7,0-1.1-0.1l10,16C68.2,99.3,71.7,96.6,75.9,95.9z"/>
	<path class="st0" d="M64.9,77.4c0-4.2-3.3-7.6-7.4-7.6c-4.1,0-7.4,3.4-7.4,7.6s3.3,7.6,7.4,7.6C61.6,85,64.9,81.6,64.9,77.4z
		 M51.9,77.4c0-3.2,2.5-5.7,5.6-5.7c3.1,0,5.6,2.6,5.6,5.7c0,3.2-2.5,5.7-5.6,5.7C54.4,83.2,51.9,80.6,51.9,77.4z"/>
	<path class="st0" d="M85,66.8c3,0,5.5-2.5,5.5-5.6c0-3.1-2.4-5.6-5.5-5.6s-5.5,2.5-5.5,5.6C79.6,64.3,82,66.8,85,66.8z M85,57.3
		c2.1,0,3.9,1.8,3.9,4c0,2.2-1.7,4-3.9,4c-2.1,0-3.9-1.8-3.9-4C81.2,59,82.9,57.3,85,57.3z"/>
	<path class="st0" d="M85.1,63.7c1.3,0,2.4-1.1,2.4-2.5c0-1.4-1.1-2.5-2.4-2.5c-1.3,0-2.4,1.1-2.4,2.5
		C82.7,62.5,83.8,63.7,85.1,63.7z"/>
	<path class="st0" d="M60.7,77.4c0-1.8-1.4-3.2-3.1-3.2c-1.7,0-3.1,1.4-3.1,3.2c0,1.8,1.4,3.2,3.1,3.2
		C59.3,80.7,60.7,79.2,60.7,77.4z"/>
	<path class="st0" d="M78,113.3c2.2,0,3.9-1.8,3.9-4c0-2.2-1.8-4-3.9-4s-3.9,1.8-3.9,4C74,111.5,75.8,113.3,78,113.3z"/>
</g>
</svg>
