<?xml version="1.0" encoding="utf-8"?>
<!-- Generator: Adobe Illustrator 27.2.0, SVG Export Plug-In . SVG Version: 6.00 Build 0)  -->
<svg version="1.1" id="Ebene_1" xmlns="http://www.w3.org/2000/svg" xmlns:xlink="http://www.w3.org/1999/xlink" x="0px" y="0px"
	 viewBox="0 0 180 180" style="enable-background:new 0 0 180 180;" xml:space="preserve">
<style type="text/css">
	.st0{fill:#0069B4;}
</style>
<g>
	<path class="st0" d="M102,83.6c-8,0-16,0-24,0c-1.9,0-2.3,0.5-2.3,2.4c0,8,0,16,0,24c0,2,0.5,2.6,2.6,2.6c7.8,0,15.6,0,23.5,0
		c2,0,2.6-0.5,2.6-2.6c0-3.9,0-7.9,0-11.8c0-4.1,0-8.1,0-12.2C104.3,84.1,103.9,83.6,102,83.6z"/>
	<path class="st0" d="M72.2,83.6c-1.4,0-2.8,0-4.2,0c-1.4,0-2,0.7-2,2.1c0,7.4,0,14.7,0,22.1c0,1.5,0.8,2.2,2.3,2.2
		c1.2,0,2.4,0,3.6,0c2,0,2.4-0.4,2.4-2.5c0-3.5,0-7.1,0-10.6c0-3.6,0-7.3,0-10.9C74.4,84.4,73.7,83.6,72.2,83.6z"/>
	<path class="st0" d="M111.8,83.6c-1.3,0-2.5,0-3.8,0c-1.9,0-2.3,0.5-2.4,2.4c0,3.6,0,7.2,0,10.8c0,3.6,0,7.2,0,10.8
		c0,1.9,0.5,2.3,2.4,2.4c1.3,0,2.5,0,3.8,0c1.5,0,2.1-0.7,2.1-2.1c0-7.4,0-14.7,0-22.1C114,84.3,113.2,83.6,111.8,83.6z"/>
	<path class="st0" d="M85.5,113.6c-1.4,0-2.8,0-4.2,0c-1.3,0-2.1,0.3-2.1,1c0,2.3,0,4.6,0,6.9c0,0.6,0.7,1,2,1c1.4,0,2.8,0,4.2,0
		c1.5,0,2.2-0.3,2.2-1.1c0-1.1,0-2.2,0-3.4c0-1.1,0-2.2,0-3.4C87.6,113.9,86.9,113.6,85.5,113.6z"/>
	<path class="st0" d="M99.8,113.6c-1.4,0-2.8,0-4.2,0c-1.3,0-2,0.3-2,0.9c0,2.3,0,4.7,0,7c0,0.7,0.8,1,2.1,1c1.3,0,2.7,0,4,0
		c1.6,0,2.2-0.4,2.2-1.1c0-1.1,0-2.2,0-3.3c0,0,0,0,0,0c0-1.2,0-2.3,0-3.5C102,114,101.3,113.6,99.8,113.6z"/>
	<path class="st0" d="M83.4,123.5c-3.7-0.3-7.1,3.1-7.1,6.9c0,0.4,0.6,1,0.9,1c4,0.1,8,0,12,0C89.8,127.5,86.9,123.7,83.4,123.5z"/>
	<path class="st0" d="M97.9,123.5c-3.7-0.3-6.9,2.7-7.1,6.7c0,0.4,0.5,1.3,0.8,1.3c4,0.1,8,0.1,12.1,0.1
		C104,127.3,101.4,123.8,97.9,123.5z"/>
	<path class="st0" d="M93.5,64.4c0.2-1.7-0.4-3-1.8-3.8c-1-0.5-1-1.2-1.1-2.1c-0.1-3.3-0.3-6.7-0.5-10c-0.1,0-0.2,0-0.4,0
		c-0.2,3.3-0.4,6.7-0.5,10c0,1-0.2,1.7-1.2,2.2c-1.3,0.8-1.9,2.1-1.6,3.7C88.9,64.4,91.2,64.4,93.5,64.4z"/>
	<path class="st0" d="M110.1,78.9c-0.1-2-1.8-3.4-4.3-3.4c0,2.3,0,4.7,0,7.1C108.5,82.3,110.2,80.9,110.1,78.9z"/>
	<path class="st0" d="M74.3,82.6c0-2.3,0-4.7,0-7.1C71.7,75.6,70,77,70,79C69.9,81,71.6,82.4,74.3,82.6z"/>
	<path class="st0" d="M77.6,82.7c4.1,0,8.2,0,12.3,0c4.2,0,8.3,0,12.5,0c1.4,0,1.9-0.5,1.8-1.9c-0.3-4.2-1.6-8-4.4-11.1
		c-3.3-3.6-7.4-5.3-12.4-4.3C80.4,67,75.9,74,75.7,81.3C75.7,82.6,76.6,82.7,77.6,82.7z M95.1,74.7c2.5,0,2.5,0,2.5,2.8
		c0,3.2,0.3,2.8-3.3,2.9c-2.3,0-2.3,0-2.3-3.1C92,74.7,92,74.7,95.1,74.7z M85.7,74.8c2.3,0,2.3,0,2.3,2.8c0,2.7,0,2.7-2.7,2.7
		c-2.9,0-2.9,0-2.9-2.8C82.4,74.8,82.4,74.8,85.7,74.8z"/>
	<path class="st0" d="M93.2,75.9c0,1.1,0,2.2,0,3.3c1.2-1.1,2.3-2,3.7-3.3C95.4,75.9,94.3,75.9,93.2,75.9z"/>
	<path class="st0" d="M87.1,76.1c-3.7-0.7-4-0.5-3.6,2.9C84.6,78,85.8,77.1,87.1,76.1z"/>
</g>
</svg>
