<?xml version="1.0" encoding="utf-8"?>
<!-- Generator: Adobe Illustrator 27.2.0, SVG Export Plug-In . SVG Version: 6.00 Build 0)  -->
<svg version="1.1" id="Ebene_1" xmlns="http://www.w3.org/2000/svg" xmlns:xlink="http://www.w3.org/1999/xlink" x="0px" y="0px"
	 viewBox="0 0 180 180" style="enable-background:new 0 0 180 180;" xml:space="preserve">
<style type="text/css">
	.st0{fill:#0069B4;}
</style>
<g>
	<path class="st0" d="M120.9,74.5l1-1c0.5-0.5,0.5-1.3,0-1.8l-6.4-6.5c-0.5-0.5-1.3-0.5-1.7,0l-1,1c1.4,1.3,2.8,2.6,4.2,4.1
		C118.4,71.6,119.7,73.1,120.9,74.5"/>
	<path class="st0" d="M108.7,69.4c-0.3,0.3-0.3,0.8,0,1l5.8,5.9c0.3,0.3,0.7,0.3,1,0l1-1c5.3,5.6,9.9,11.1,13.5,16.1
		c-1.4-5.7-6.7-14.1-14.5-22c-7.8-7.9-16-13.4-21.6-14.8c4.9,3.7,10.3,8.4,15.8,13.7L108.7,69.4z"/>
	<path class="st0" d="M63.6,75.4l1,1c0.3,0.3,0.7,0.3,1,0l5.8-5.9c0.3-0.3,0.3-0.8,0-1l-1-1c5.5-5.4,10.9-10.1,15.8-13.7
		c-4.6,1.2-10.9,5.1-17.3,10.8l-0.3-0.3c-0.5-0.5-1.3-0.5-1.7,0l-6.4,6.5c-0.5,0.5-0.5,1.3,0,1.8l0.3,0.3c-5.6,6.5-9.5,13-10.6,17.7
		C53.7,86.5,58.3,81,63.6,75.4"/>
	<path class="st0" d="M93,95.4c7-6.8,13.8-13,20.1-18.2l-5.2-5.3c-5.1,6.4-11.2,13.3-17.9,20.4c-6.7-7.1-12.7-14-17.9-20.4l-5.2,5.3
		c6.3,5.2,13.1,11.4,20.1,18.2c-0.6,0.6-1.2,1.3-1.8,1.9c-8.7,8.9-17.3,16.8-25.2,23.3c-0.1,1.2,0.3,2.5,1.3,3.4
		c1.2,1.2,2.9,1.6,4.4,1.1c6.2-7.6,13.5-15.9,21.7-24.2c0.9-0.9,1.7-1.7,2.6-2.6c0.9,0.9,1.7,1.7,2.6,2.6
		c8.2,8.3,15.6,16.6,21.7,24.2c1.5,0.5,3.2,0.1,4.4-1.1c0.9-0.9,1.4-2.2,1.3-3.4c-7.9-6.5-16.5-14.4-25.2-23.3
		C94.2,96.6,93.6,96,93,95.4"/>
</g>
</svg>
