<?xml version="1.0" encoding="utf-8"?>
<!-- Generator: Adobe Illustrator 27.2.0, SVG Export Plug-In . SVG Version: 6.00 Build 0)  -->
<svg version="1.1" id="Ebene_1" xmlns="http://www.w3.org/2000/svg" xmlns:xlink="http://www.w3.org/1999/xlink" x="0px" y="0px"
	 viewBox="0 0 180 180" style="enable-background:new 0 0 180 180;" xml:space="preserve">
<style type="text/css">
	.st0{fill:#0069B4;}
</style>
<g>
	<path class="st0" d="M89.5,83.2c-7,0-12.8-5.7-12.8-12.7c0-7,5.7-12.7,12.8-12.7s12.8,5.7,12.8,12.7
		C102.3,77.5,96.6,83.2,89.5,83.2 M113.7,69.8c0-12.6-10.6-22.9-23.7-22.9c-13.1,0-23.7,10.3-23.7,22.9c0,2,0.4,4,0.9,5.8H67
		l0.8,1.9c0.2,0.6,0.4,1.2,0.7,1.8L90,133.1l21.5-53.9c0.3-0.6,0.5-1.2,0.7-1.8l0.8-1.9h-0.1C113.3,73.7,113.7,71.8,113.7,69.8"/>
</g>
</svg>
