<?xml version="1.0" encoding="utf-8"?>
<!-- Generator: Adobe Illustrator 27.2.0, SVG Export Plug-In . SVG Version: 6.00 Build 0)  -->
<svg version="1.1" id="Ebene_1" xmlns="http://www.w3.org/2000/svg" xmlns:xlink="http://www.w3.org/1999/xlink" x="0px" y="0px"
	 viewBox="0 0 180 180" style="enable-background:new 0 0 180 180;" xml:space="preserve">
<style type="text/css">
	.st0{fill:#0069B3;}
</style>
<path class="st0" d="M121.9,62.8c-1.6-1.4-3.6-2.1-6-2c-3.3,0.1-6.8,1.7-10.4,4.6L89.3,78.8c-1.2,1-1.8,1.8-1.8,2.5
	c0,0.3,0.1,0.7,0.3,1L74,93.8c-5.9,4.9-10.7,10.4-14.5,16.4l-2.9,4.7c-0.7,1.2-1.1,2-1.1,2.5c0.1,1.3,0.7,2,2,1.9
	c0.3,0,0.7-0.1,1.1-0.3l0.8-0.4l5.4-2.1c6.8-2.6,13.7-6.9,20.8-12.8l11.8-9.8c0.5,0.5,1.1,0.7,1.6,0.7c0.4,0,0.8-0.2,1.3-0.6
	c0.2-0.1,0.4-0.3,0.6-0.5l16.6-13.8c4.8-4,7.1-7.7,7-11.2C124.4,66.1,123.5,64.2,121.9,62.8z M113.5,77.3l-7.8,6.2
	c-0.1,1.4-0.9,2.2-2.4,2.2c-1.6,0.1-2.4-0.7-2.4-2.3c-0.1-1.6,0.7-2.5,2.4-2.5c0.2,0,0.5,0.1,0.9,0.2l6.4-5c3.5-2.8,5.6-5.5,6.2-8.2
	l2.4,3C118.7,72.6,116.8,74.7,113.5,77.3z"/>
</svg>
