<?xml version="1.0" encoding="utf-8"?>
<!-- Generator: Adobe Illustrator 27.2.0, SVG Export Plug-In . SVG Version: 6.00 Build 0)  -->
<svg version="1.1" id="Ebene_1" xmlns="http://www.w3.org/2000/svg" xmlns:xlink="http://www.w3.org/1999/xlink" x="0px" y="0px"
	 viewBox="0 0 180 180" style="enable-background:new 0 0 180 180;" xml:space="preserve">
<style type="text/css">
	.st0{fill:#0069B3;}
</style>
<g>
	<g>
		<polygon class="st0" points="114,74.3 90,67.3 66,74.3 90,82.3 107.4,76.5 106.6,87.6 106.6,87.7 109.8,87.7 108.9,76 		"/>
		<path class="st0" d="M77.2,79.6v13.8v0c0,1.2,5.7,2.3,12.8,2.3s12.8-1,12.8-2.3h0V79.6L90,84.1L77.2,79.6z"/>
	</g>
	<polygon class="st0" points="79.4,113.2 78.3,122.8 101.7,122.8 100.5,113.2 	"/>
	<path class="st0" d="M127.7,103.3H52.3V59.7h75.4V103.3z M125.2,57.2H54.8c-2.6,0-4.7,2.2-4.7,4.8v42.4c0,2.6,2.1,4.8,4.7,4.8h70.4
		c2.6,0,4.7-2.2,4.7-4.8V62C129.9,59.4,127.8,57.2,125.2,57.2"/>
</g>
</svg>
