<?xml version="1.0" encoding="utf-8"?>
<!-- Generator: Adobe Illustrator 27.2.0, SVG Export Plug-In . SVG Version: 6.00 Build 0)  -->
<svg version="1.1" id="Ebene_1" xmlns="http://www.w3.org/2000/svg" xmlns:xlink="http://www.w3.org/1999/xlink" x="0px" y="0px"
	 viewBox="0 0 180 180" style="enable-background:new 0 0 180 180;" xml:space="preserve">
<style type="text/css">
	.st0{fill:#0069B3;}
</style>
<g>
	<g>
		<polygon class="st0" points="111.3,77.3 89.7,70.9 68.2,77.3 89.7,84.4 105.3,79.2 104.6,89.2 104.6,89.3 107.5,89.3 106.7,78.8 
					"/>
		<path class="st0" d="M78.2,82v12.4v0c0,1.1,5.1,2,11.5,2c6.3,0,11.5-0.9,11.5-2h0V82l-11.5,4L78.2,82z"/>
	</g>
	<g>
		<path class="st0" d="M60.8,107.4c-2.7-1.2-4.5-3.9-4.5-6.9V66.2c0-4.2,3.4-7.6,7.6-7.6h52.3c4.2,0,7.6,3.4,7.6,7.6v34.2
			c0,4.2-3.4,7.6-7.6,7.6H74.1l-13.3,13.3V107.4z M63.8,62.5c-2.1,0-3.7,1.7-3.7,3.7v34.2c0,1.8,1.2,3.3,3,3.7l1.5,0.3v7.7l7.9-7.9
			h43.7c2.1,0,3.7-1.7,3.7-3.7V66.2c0-2.1-1.7-3.7-3.7-3.7H63.8z"/>
	</g>
</g>
</svg>
