<?xml version="1.0" encoding="utf-8"?>
<!-- Generator: Adobe Illustrator 27.2.0, SVG Export Plug-In . SVG Version: 6.00 Build 0)  -->
<svg version="1.1" id="Ebene_1" xmlns="http://www.w3.org/2000/svg" xmlns:xlink="http://www.w3.org/1999/xlink" x="0px" y="0px"
	 viewBox="0 0 180 180" style="enable-background:new 0 0 180 180;" xml:space="preserve">
<style type="text/css">
	.st0{fill:#0069B3;}
</style>
<g>
	<path class="st0" d="M80,128.2c4.3-3.1,8.5-6.8,12.5-11.3c4-4.5,8-9.7,11.8-15.6c3.7-5.8,6.8-11.6,9.3-17.2
		c2.4-5.6,4.2-11.1,5.3-16.5c-2.8-6.2-5.8-10.5-9.1-13.1l-1.5-1.2c-1.9-1.5-3.6-2-5-1.6c-1.4,0.4-2.9,1.8-4.5,4.3
		c-4.7,7.3-4.6,12.8,0.2,16.5l2,1.5c2.5,1.9,3.4,4.5,2.8,7.7c-0.7,3.6-2.9,8.4-6.7,14.2c-3.7,5.8-7,9.7-9.8,11.7
		c-1.6,1.2-2.9,1.7-3.9,1.7c-1,0-2.3-0.7-3.9-1.9l-2.1-1.6c-4.7-3.6-9.4-1.8-14,5.4c-1.6,2.5-2.4,4.6-2.2,6.3
		c0.2,1.6,1.3,3.3,3.4,4.9l1.3,1C69.3,126.1,74,127.7,80,128.2"/>
</g>
</svg>
