<?xml version="1.0" encoding="utf-8"?>
<!-- Generator: Adobe Illustrator 27.2.0, SVG Export Plug-In . SVG Version: 6.00 Build 0)  -->
<svg version="1.1" id="Ebene_1" xmlns="http://www.w3.org/2000/svg" xmlns:xlink="http://www.w3.org/1999/xlink" x="0px" y="0px"
	 viewBox="0 0 180 180" style="enable-background:new 0 0 180 180;" xml:space="preserve">
<style type="text/css">
	.st0{fill:#0069B3;}
</style>
<g>
	<path class="st0" d="M86.9,71.8c-0.2-0.8-1-1.2-1.8-1l-0.3,0.1c-0.3-0.2-0.6-0.4-1-0.6c-1.8-0.7-3.7-0.5-5.5,0
		c-3.1,0.9-6.3,1.9-9.4,2.9c-0.5,0.1-0.8,0.2-1.3,0c-4.2-2-8.5-4-12.7-6c-0.2-0.1-0.3-0.2-0.5-0.1c-0.8,0.2-1.6,0.5-2.4,0.7
		c2.7,2.8,5.3,5.5,8,8.3c-2,0.6-3.8,1.2-5.7,1.8c-0.1,0-0.3,0-0.5,0c-1.4-0.5-2.9-1-4.3-1.5c-0.6-0.2-1.2-0.4-1.8-0.6
		c-0.4-0.1-0.8-0.1-1.1,0.3c-0.3,0.4,0,0.8,0.3,1.1c0.1,0.1,0.2,0.2,0.2,0.3c1.7,1.7,3.4,3.4,5,5.2c0.9,1,2,1.2,3.3,0.8
		c8-2.6,16.1-5.1,24.1-7.6c1.1-0.3,2.2-0.7,3.3-1l3.3-1C86.7,73.4,87.1,72.6,86.9,71.8"/>
	<path class="st0" d="M133.1,99.6c-1-1.4-2.3-2.5-3.6-3.7c-2.3-2.1-4.7-3.8-7.4-5.2c-4.7-2.4-9.7-3.6-14.9-3.6c-1.6,0-3.1,0-4.7,0v0
		h-38v8.2c0.3,0.6,0.8,1,1.5,1h1.2c0,0,0.1-0.1,0.1-0.1c3.3-2.4,7-3.4,10.8-3.4V90h1.6v2.9c0.8,0,1.5,0.1,2.3,0.2
		c3.6,0.5,6.9,1.6,10.1,3.2c0.8-0.1,1.4-0.8,1.4-1.7V90h1.6v4.6c0,0.9,0.7,1.7,1.7,1.7h10.5c0.9,0,1.7-0.8,1.7-1.7v-4.6
		c1.6,0.1,3.2,0.3,4.7,0.6c0.3,0.1,0.4,0.2,0.3,0.4c0,0.9,0,1.8,0,2.7c0,1.6,0.9,2.5,2.5,2.5c2.8,0,5.7,0,8.5,0c0.4,0,0.7,0.1,1,0.3
		c0.9,0.8,1.8,1.6,2.8,2.4h-24.9h-1.4h-4.8c1,0.3,1.9,0.6,2.9,0.9c1.1,0.4,2.2,0.7,3.3,1c2.5,0.6,3.6,2.3,4,4.5h1
		c0.5,0.9,1.5,1.6,2.6,1.6c1.1,0,2.1-0.6,2.6-1.6h2.6c0.5,0.9,1.5,1.6,2.6,1.6c1.1,0,2.1-0.6,2.6-1.6c0,0,0,0,0,0c0.3,0,0.6,0,0.9,0
		h1c0.3,0,0.6,0,0.9,0c0.5,0,1,0,1.4-0.1c1.5-0.2,2.9-0.7,4.2-1.3c1-0.5,1.9-1,2.6-1.8C133.9,101.1,133.8,100.5,133.1,99.6"/>
	<path class="st0" d="M93.1,108.5c0-2.1,1.6-3.8,3.6-3.8c2,0,3.6,1.7,3.6,3.8c0,2.1-1.6,3.7-3.6,3.7
		C94.7,112.3,93.1,110.6,93.1,108.5"/>
	<path class="st0" d="M93.3,100.5h-0.8c-3.5,0-6.9,0-10.4,0c-1.1,0-1.2,0-1.2-1.2c0-0.9,0-1.9,0-2.8c0-0.7,0.2-0.9,0.9-0.8
		c4,0.5,7.7,1.8,11,4c0.2,0.2,0.4,0.4,0.6,0.6C93.4,100.3,93.4,100.4,93.3,100.5 M80.1,99.4c0,0.7-0.3,1.1-1.1,1.1
		c-1.6,0-3.2,0-4.8,0c-1.6,0-3.2,0-4.8,0c-0.3,0-0.6-0.2-0.9-0.3c0.1-0.3,0.2-0.7,0.4-0.8c3-2.5,6.3-3.8,10.2-3.8
		c0.6,0,0.9,0.2,0.9,0.9C80.1,97.3,80.1,98.4,80.1,99.4 M105,106.2c-0.3-2.3-1.2-4.1-3.6-4.6c-1-0.2-1.9-0.5-2.9-0.8
		c-1.6-0.6-3.4-1-4.8-1.8c-3.6-2.2-7.3-3.6-11.4-4.2c-4.6-0.7-9,0-12.9,2.8c-0.8,0.6-1.6,1-2.4,1.4c0.2,0.5,0.4,0.9,0.6,1.4
		c0.2,0.4,0.4,0.8,0.5,1.2c0,0,0,0.1,0.1,0.1c0.3-0.1,0.7-0.2,1-0.2c0.6-0.1,1.3-0.1,1.9,0c0.7,0.1,1.3,0.3,1.9,0.7
		c1.2,0.7,2,1.6,2.6,2.9c0.3,0.6,0.4,1.3,0.5,2c0,0.5,0,1-0.1,1.5c-0.1,0.5-0.2,0.9-0.4,1.3c2.3,0,4.7,0,7,0h8.6
		c1.1,0,1.1,0,1.1-1.2c0-1.8,0.8-3.2,2.4-4c1.6-0.9,3.2-0.8,4.6,0.3c1.4,1,2,2.4,1.9,4.1c0,0.3-0.2,0.8,0.4,0.8c0.7,0,1.4,0.1,2.1,0
		c0.7-0.1,1.3-0.6,1.3-1.4C105.1,107.6,105.1,106.9,105,106.2"/>
	<path class="st0" d="M54.7,107.3c1,0,2,0,3,0c0.2,0,0.2,0,0.2-0.2c-0.1-0.6-0.3-1.1-0.5-1.6c-0.2-0.4-0.5-0.7-0.8-1
		c-0.1-0.1-0.1,0-0.1,0c-0.5,0.8-1,1.6-1.5,2.3c-0.1,0.1-0.2,0.3-0.3,0.4C54.6,107.3,54.6,107.3,54.7,107.3 M58.1,101.8
		C58.1,101.8,58.1,101.8,58.1,101.8c-0.4,0.6-0.8,1.2-1.2,1.8c-0.1,0.2-0.1,0.2,0.1,0.3c0.6,0.6,1.1,1.2,1.4,2
		c0.2,0.4,0.3,0.9,0.3,1.3c0,0.1,0,0.1,0.1,0.1c0.6,0,1.2,0,1.8,0c0,0,0,0,0.1,0C59.8,105.5,59,103.6,58.1,101.8 M61.8,106.7
		c0.3-0.5,0.6-0.9,0.9-1.4c0.5-0.7,0.9-1.5,1.4-2.2c0.2-0.4,0.5-0.8,0.7-1.1c0.1-0.2,0.2-0.3,0.3-0.5c0.1-0.1,0-0.1-0.1-0.1
		c-0.6,0-1.3,0-1.9,0c-1.4,0-2.7,0-4.1,0c-0.1,0-0.1,0-0.1,0.1c0.3,0.7,0.7,1.5,1,2.2c0.2,0.5,0.4,1,0.7,1.4
		c0.3,0.6,0.5,1.2,0.8,1.8c0,0,0,0.1,0.1,0.1C61.6,107,61.7,106.9,61.8,106.7 M55,103.7c-0.5-0.2-1-0.2-1.5-0.2
		c-0.4,0-0.8,0.1-1.2,0.3c-0.5,0.2-1,0.5-1.4,0.9c-0.3,0.3-0.6,0.7-0.8,1.1c-0.2,0.4-0.3,0.8-0.4,1.2c-0.1,0.5-0.1,0.9,0,1.4
		c0.1,0.8,0.4,1.5,0.9,2c0.4,0.5,1,1,1.6,1.2c0.5,0.2,0.9,0.3,1.4,0.3c0.4,0,0.9,0,1.3-0.2c0.9-0.3,1.6-0.8,2.1-1.5
		c0.3-0.4,0.6-0.9,0.7-1.5c0-0.2,0.1-0.4,0.1-0.6c0-0.1,0-0.1-0.1-0.1c0,0-0.1,0-0.1,0c-1.3,0-2.6,0-3.9,0c-0.2,0-0.3-0.1-0.4-0.2
		c-0.1-0.2-0.1-0.3,0-0.5c0.3-0.5,0.7-1.1,1-1.6c0.4-0.6,0.8-1.2,1.2-1.8c0,0,0,0,0-0.1C55.4,103.9,55.2,103.8,55,103.7 M68.1,104.4
		c0.2,0.5,0.4,0.9,0.6,1.4c0.2,0.4,0.3,0.8,0.5,1.2c0.1,0.2,0.2,0.4,0.3,0.7c0.1,0.3-0.1,0.6-0.4,0.6c-0.2,0-0.3-0.1-0.4-0.3
		c-0.3-0.6-0.6-1.3-0.8-1.9c-0.2-0.5-0.4-1-0.7-1.5c-0.1-0.1-0.1-0.2-0.2-0.4c0-0.1-0.1-0.1-0.1,0c-0.6,0.4-1.1,0.9-1.4,1.6
		c-0.4,0.7-0.6,1.5-0.5,2.4c0.1,1,0.4,1.9,1.1,2.6c0.4,0.4,0.8,0.7,1.3,1c0.5,0.2,1,0.3,1.5,0.4c0.4,0,0.7,0,1.1-0.1
		c0.6-0.1,1.2-0.4,1.7-0.8c0.5-0.4,0.9-1,1.2-1.6c0.3-0.7,0.4-1.4,0.3-2.2c-0.1-1-0.6-1.9-1.3-2.6c-0.4-0.4-0.9-0.7-1.4-0.9
		c-0.6-0.2-1.2-0.3-1.8-0.2c-0.3,0-0.5,0.1-0.8,0.2c0,0-0.1,0-0.1,0.1C68,104,68.1,104.2,68.1,104.4 M66,101.8
		c-0.2,0.3-0.4,0.6-0.6,0.9c-0.4,0.6-0.8,1.2-1.2,1.8c-0.4,0.6-0.8,1.3-1.2,1.9c-0.3,0.5-0.7,1-1,1.6c-0.1,0.2-0.2,0.3-0.4,0.3
		c-0.9,0-1.9,0-2.8,0c-0.1,0-0.1,0-0.1,0.1c0,0.2-0.1,0.4-0.1,0.5c-0.1,0.5-0.2,0.9-0.5,1.3c-0.4,0.8-1,1.4-1.7,1.9
		c-0.4,0.2-0.7,0.4-1.1,0.6c-0.4,0.1-0.8,0.2-1.2,0.2c-0.5,0-0.9,0-1.4-0.1c-0.4-0.1-0.8-0.2-1.2-0.4c-0.4-0.2-0.7-0.4-1-0.7
		c-0.6-0.5-1.1-1.2-1.4-1.9c-0.2-0.6-0.4-1.1-0.4-1.8c0-0.5,0-1,0.1-1.4c0.1-0.5,0.3-0.9,0.5-1.3c0.3-0.6,0.8-1.1,1.3-1.6
		c0.8-0.6,1.7-1,2.7-1.1c0.4,0,0.8,0,1.2,0.1c0.5,0.1,1,0.2,1.4,0.5c0.1,0,0.1,0,0.2,0c0.5-0.8,1-1.5,1.5-2.3c0-0.1,0-0.1,0-0.2
		c-0.2-0.4-0.4-0.9-0.6-1.3c-0.1-0.1-0.1-0.2-0.3-0.2c-0.4,0-0.8,0-1.2,0c-0.3,0-0.4-0.2-0.4-0.4c0-0.3,0.2-0.4,0.4-0.4
		c1.2,0,2.3,0,3.5,0c0.3,0,0.5,0.3,0.4,0.5c-0.1,0.2-0.2,0.3-0.4,0.3c-0.3,0-0.7,0-1,0c-0.1,0-0.1,0-0.1,0.1
		c0.2,0.4,0.3,0.7,0.5,1.1c0,0.1,0.1,0.1,0.1,0.1c2.3,0,4.5,0,6.8,0c0,0,0.1,0,0.1,0c-0.1-0.1-0.1-0.3-0.2-0.4
		c-0.2-0.4-0.4-0.8-0.5-1.2c-0.2-0.6-0.8-1-1.4-1c-0.6,0-1.1,0-1.7,0c-0.3,0-0.5-0.1-0.5-0.4c0-0.2,0.1-0.5,0.5-0.5
		c0.6,0,1.2,0,1.7,0c0.2,0,0.5,0,0.7,0.1c0.6,0.2,1,0.5,1.3,1.1c0.2,0.4,0.4,0.8,0.5,1.2c0.2,0.4,0.3,0.8,0.5,1.2
		c0.2,0.4,0.3,0.8,0.5,1.2c0.1,0.3,0.3,0.7,0.4,1c0,0,0,0.1,0.1,0.1c0.3-0.1,0.5-0.2,0.8-0.2c0.5-0.1,1.1-0.1,1.6,0
		c0.6,0.1,1.1,0.3,1.6,0.6c1,0.6,1.7,1.4,2.2,2.4c0.2,0.5,0.4,1.1,0.4,1.7c0,0.4,0,0.9-0.1,1.3c-0.1,0.4-0.2,0.8-0.3,1.1
		c-0.2,0.5-0.5,0.9-0.8,1.3c-0.4,0.5-0.9,0.9-1.5,1.2c-0.4,0.2-0.8,0.4-1.2,0.5c-0.4,0.1-0.8,0.1-1.1,0.1c-0.5,0-1-0.1-1.4-0.2
		c-0.4-0.1-0.7-0.3-1.1-0.5c-0.6-0.4-1.1-0.8-1.5-1.4c-0.3-0.5-0.6-1-0.8-1.6c-0.1-0.4-0.2-0.8-0.2-1.3c0-0.6,0-1.1,0.2-1.7
		c0.1-0.4,0.2-0.7,0.4-1c0.4-0.8,1-1.4,1.8-1.9c0.1-0.1,0.1-0.1,0.1-0.2c-0.2-0.4-0.3-0.7-0.5-1.1C66.1,102,66.1,101.9,66,101.8
		C66,101.8,66,101.8,66,101.8"/>
</g>
</svg>
