<?xml version="1.0" encoding="utf-8"?>
<!-- Generator: Adobe Illustrator 27.2.0, SVG Export Plug-In . SVG Version: 6.00 Build 0)  -->
<svg version="1.1" id="Ebene_1" xmlns="http://www.w3.org/2000/svg" xmlns:xlink="http://www.w3.org/1999/xlink" x="0px" y="0px"
	 viewBox="0 0 180 180" style="enable-background:new 0 0 180 180;" xml:space="preserve">
<style type="text/css">
	.st0{fill:#0569B0;}
</style>
<g>
	<path class="st0" d="M126.5,94.2L126.5,94.2c0.2-18.8-14-34.5-32.4-36.6l0.1-3.8l0.8,0c0.4,0,0.7-0.3,0.7-0.7
		c0-0.4-0.3-0.7-0.7-0.7l-0.8,0l0-1.1c0-0.7-0.6-1.3-1.3-1.4l-4.3-0.1c-0.7,0-1.3,0.6-1.4,1.3l0,1.1l-0.8,0c-0.4,0-0.7,0.3-0.7,0.7
		c0,0.4,0.3,0.7,0.7,0.7l0.8,0l-0.1,3.8C68.7,59,54,74.2,53.6,93l-0.1,0c-0.3,20.1,15.7,36.7,35.9,37.1c20,0.3,36.6-15.6,37.1-35.6
		l0,0c0,0,0-0.1,0-0.1C126.5,94.3,126.5,94.3,126.5,94.2z M89.5,126.2c-18-0.3-32.3-15-32.3-32.9l0,0c0.5-18,15.3-32.3,33.4-32
		c18,0.3,32.3,15,32.3,32.9C122.4,112.2,107.5,126.5,89.5,126.2z"/>
	<path class="st0" d="M68.6,91.7c0-1-0.8-1.9-1.8-1.9l-4.5-0.1c-1,0-1.9,0.8-1.9,1.8c0,1,0.8,1.9,1.8,1.9l4.5,0.1
		C67.8,93.5,68.6,92.7,68.6,91.7z"/>
	<path class="st0" d="M67.5,75.7c-0.9-0.5-2-0.2-2.5,0.6c-0.5,0.9-0.2,2,0.6,2.5l3.8,2.3c0.9,0.5,2,0.2,2.5-0.6
		c0.5-0.9,0.2-2-0.6-2.5L67.5,75.7z"/>
	<path class="st0" d="M78.9,66.5c-0.5-0.9-1.6-1.2-2.5-0.7c-0.9,0.5-1.2,1.6-0.7,2.5l2.2,3.9c0.5,0.9,1.6,1.2,2.5,0.7
		c0.9-0.5,1.2-1.6,0.7-2.5L78.9,66.5z"/>
	<path class="st0" d="M111.6,92.4c0,1,0.8,1.9,1.8,1.9l4.5,0.1c1,0,1.9-0.8,1.9-1.8c0-1-0.8-1.9-1.8-1.9l-4.5-0.1
		C112.4,90.6,111.6,91.4,111.6,92.4z"/>
	<path class="st0" d="M109.3,78.7c-0.9,0.5-1.2,1.6-0.7,2.5c0.5,0.9,1.6,1.2,2.5,0.7l3.9-2.2c0.9-0.5,1.2-1.6,0.7-2.5
		c-0.5-0.9-1.6-1.2-2.5-0.7L109.3,78.7z"/>
	<path class="st0" d="M103,72.7l2.3-3.8c0.5-0.9,0.2-2-0.6-2.5c-0.9-0.5-2-0.2-2.5,0.6l-2.3,3.8c-0.5,0.9-0.2,2,0.6,2.5
		C101.3,73.8,102.5,73.5,103,72.7z"/>
	<path class="st0" d="M77,112.2l-2.3,3.8c-0.5,0.9-0.2,2,0.6,2.5c0.9,0.5,2,0.2,2.5-0.6l2.3-3.8c0.5-0.9,0.2-2-0.6-2.5
		C78.7,111,77.6,111.3,77,112.2z"/>
	<path class="st0" d="M110.7,102.9c-0.9-0.5-2-0.2-2.5,0.6c-0.5,0.9-0.2,2,0.6,2.5l3.8,2.3c0.9,0.5,2,0.2,2.5-0.6
		c0.5-0.9,0.2-2-0.6-2.5L110.7,102.9z"/>
	<path class="st0" d="M102.9,112.6c-0.5-0.9-1.6-1.2-2.5-0.7c-0.9,0.5-1.2,1.6-0.7,2.5l2.2,3.9c0.5,0.9,1.6,1.2,2.5,0.7
		c0.9-0.5,1.2-1.6,0.7-2.5L102.9,112.6z"/>
	<path class="st0" d="M90.4,70.6c1,0,1.9-0.8,1.9-1.8l0.1-4.5c0-1-0.8-1.9-1.8-1.9c-1,0-1.9,0.8-1.9,1.8l-0.1,4.5
		C88.6,69.8,89.4,70.6,90.4,70.6z"/>
	<path class="st0" d="M89.6,116.3c-1,0-1.9,0.8-1.9,1.8l-0.1,4.5c0,1,0.8,1.9,1.8,1.9c1,0,1.9-0.8,1.9-1.8l0.1-4.5
		C91.5,117.1,90.6,116.3,89.6,116.3z"/>
	<path class="st0" d="M87.8,89.6c-0.1,0.1-0.2,0.2-0.2,0.3c-0.1,0.1-0.1,0.1-0.2,0.2c-0.1,0.2-0.2,0.4-0.3,0.6c0,0-0.1,0.1-0.1,0.1
		c0,0.1,0,0.1,0,0.2c0,0.1,0,0.2,0,0.3c0,0,0,0,0,0L83,113.6l8.4-20.8L107.2,77l-19,12.3C88.1,89.4,87.9,89.5,87.8,89.6z"/>
	<path class="st0" d="M69.1,102.2l-3.9,2.2c-0.9,0.5-1.2,1.6-0.7,2.5c0.5,0.9,1.6,1.2,2.5,0.7l3.9-2.2c0.9-0.5,1.2-1.6,0.7-2.5
		C71.1,102,70,101.7,69.1,102.2z"/>
</g>
</svg>
