<?xml version="1.0" encoding="utf-8"?>
<!-- Generator: Adobe Illustrator 27.2.0, SVG Export Plug-In . SVG Version: 6.00 Build 0)  -->
<svg version="1.1" id="Ebene_1" xmlns="http://www.w3.org/2000/svg" xmlns:xlink="http://www.w3.org/1999/xlink" x="0px" y="0px"
	 viewBox="0 0 180 180" style="enable-background:new 0 0 180 180;" xml:space="preserve">
<style type="text/css">
	.st0{fill:#0069B3;}
</style>
<g>
	<path class="st0" d="M102.2,98.7l-1,2.6c13.8,2,24,7.4,24,13.6c0,7.8-16.1,14.4-35.2,14.4l0,0l0,0c0,0,0,0,0,0
		c-19.1,0-35.2-6.6-35.2-14.4c0-6.2,10.2-11.6,24-13.6l-1-2.6c-15.2,2.2-25.9,8.5-25.9,16.2c0,9.6,16.7,17.1,38.1,17.1
		c21.4,0,38.1-7.5,38.1-17.1C128.1,107.2,117.4,100.9,102.2,98.7z"/>
	<path class="st0" d="M89.6,77.3c-5.7,0-10.3-4.6-10.3-10.2c0-5.7,4.6-10.2,10.3-10.2c5.7,0,10.3,4.6,10.3,10.2
		C99.9,72.7,95.3,77.3,89.6,77.3 M109.1,66.5c0-10.2-8.5-18.4-19.1-18.4c-10.5,0-19.1,8.3-19.1,18.4c0,1.6,0.3,3.2,0.7,4.7h-0.1
		l0.6,1.5c0.2,0.5,0.3,1,0.6,1.4L90,117.5l17.3-43.4c0.2-0.5,0.4-0.9,0.6-1.4l0.6-1.5h-0.1C108.8,69.7,109.1,68.2,109.1,66.5"/>
</g>
</svg>
