<?xml version="1.0" encoding="utf-8"?>
<!-- Generator: Adobe Illustrator 27.2.0, SVG Export Plug-In . SVG Version: 6.00 Build 0)  -->
<svg version="1.1" id="Ebene_1" xmlns="http://www.w3.org/2000/svg" xmlns:xlink="http://www.w3.org/1999/xlink" x="0px" y="0px"
	 viewBox="0 0 180 180" style="enable-background:new 0 0 180 180;" xml:space="preserve">
<style type="text/css">
	.st0{fill:#0069B3;}
</style>
<path class="st0" d="M43.4,90.3c0,4.7,3.7,8.4,8.2,8.4c4.5,0,8.2-3.8,8.2-8.4c0-4.7-3.7-8.4-8.2-8.4C47.1,81.8,43.4,85.6,43.4,90.3"
	/>
<path class="st0" d="M82.3,90.3c0,4.7,3.7,8.4,8.2,8.4c4.5,0,8.2-3.8,8.2-8.4c0-4.7-3.7-8.4-8.2-8.4C86,81.8,82.3,85.6,82.3,90.3"/>
<path class="st0" d="M121.2,90.3c0,4.7,3.7,8.4,8.2,8.4c4.5,0,8.2-3.8,8.2-8.4c0-4.7-3.7-8.4-8.2-8.4
	C124.9,81.8,121.2,85.6,121.2,90.3"/>
</svg>
