<?xml version="1.0" encoding="utf-8"?>
<!-- Generator: Adobe Illustrator 27.2.0, SVG Export Plug-In . SVG Version: 6.00 Build 0)  -->
<svg version="1.1" id="Ebene_1" xmlns="http://www.w3.org/2000/svg" xmlns:xlink="http://www.w3.org/1999/xlink" x="0px" y="0px"
	 viewBox="0 0 180 180" style="enable-background:new 0 0 180 180;" xml:space="preserve">
<style type="text/css">
	.st0{fill:#0069B4;}
</style>
<g>
	<path class="st0" d="M129.9,84l-10.7,3.1c-0.4,0.1-0.7,0.5-0.7,0.9v6.5v6.7v6.5c0,0.4,0.3,0.8,0.7,0.9l10.7,3.1
		c0.6,0.2,1.2-0.3,1.2-0.9v-9.6v-6.7v-9.6C131.1,84.3,130.5,83.9,129.9,84z"/>
	<path class="st0" d="M51.2,74.7l-8.4-1.6c-0.5-0.1-0.9,0.1-0.9,0.4v4.8v3.4v4.8c0,0.3,0.5,0.5,0.9,0.4l8.4-1.6
		c0.3-0.1,0.5-0.2,0.5-0.4v-3.3v-3.4v-3.3C51.7,74.9,51.5,74.7,51.2,74.7z"/>
	<path class="st0" d="M137.2,84H133c-0.5,0-1,0.4-1,1v25.9c0,0.5,0.4,1,1,1h4.2c0.5,0,1-0.4,1-1V84.9C138.1,84.4,137.7,84,137.2,84z
		"/>
	<path class="st0" d="M65.2,84C65.3,84,65.3,84,65.2,84l4.7,0c0.2,0,0.4-0.2,0.4-0.4v-4c0-0.1-0.1-0.3-0.2-0.3l-4.6-3.1
		c-0.1-0.1-0.2-0.1-0.3,0c0,0-0.1,0-0.1,0H54c-0.6,0-1,0.5-1,1V83c0,0.6,0.5,1,1,1h11.2C65.2,84,65.2,84,65.2,84z"/>
	<path class="st0" d="M116.6,87.3h-14.8c-0.6,0-1.1,0.5-1.1,1.1v19c0,0.6,0.5,1.1,1.1,1.1h14.8c0.6,0,1.1-0.5,1.1-1.1v-19
		C117.7,87.8,117.2,87.3,116.6,87.3z"/>
	<path class="st0" d="M98.1,85.2h-0.6l-0.3-4.3l5.8-7.4h7.1c1.5,0,2.7-1.2,2.7-2.7c0-1.5-1.2-2.7-2.7-2.7h-8.4
		c-1.5,0-2.7,1.2-2.7,2.7c0,0.7,0.3,1.3,0.7,1.8l-2.8,3.3l-0.1-0.9c-0.1-1.2-1-2.1-2.2-2.1H78.8c-0.9,0-1.7,0.5-2,1.3L72,85.2H58.2
		c-1,0-1.8,0.8-1.8,1.8v22.9c0,1,0.8,1.8,1.8,1.8h39.9c1,0,1.8-0.8,1.8-1.8V87C99.9,86,99.1,85.2,98.1,85.2z M75.5,85.2l3.5-8.1
		c0.3-0.6,0.8-1,1.4-1h11.2c0.8,0,1.5,0.6,1.6,1.5l0.5,7.6H75.5z"/>
</g>
</svg>
