<?xml version="1.0" encoding="utf-8"?>
<!-- Generator: Adobe Illustrator 27.2.0, SVG Export Plug-In . SVG Version: 6.00 Build 0)  -->
<svg version="1.1" id="Ebene_1" xmlns="http://www.w3.org/2000/svg" xmlns:xlink="http://www.w3.org/1999/xlink" x="0px" y="0px"
	 viewBox="0 0 180 180" style="enable-background:new 0 0 180 180;" xml:space="preserve">
<style type="text/css">
	.st0{fill:#0069B4;}
</style>
<g>
	<path class="st0" d="M115.4,122.2l-5.9-30c-4.7,5.7-11.8,9.3-19.8,9.3c-7.7,0-14.7-3.4-19.4-8.8l-5.8,29.6c-0.3,1.7,1,3.2,2.7,3.2
		h14.7h16.1h14.7C114.5,125.4,115.7,123.9,115.4,122.2z"/>
	<path class="st0" d="M89.8,97.1c11.7,0,21.3-9.5,21.3-21.3c0-11.7-9.5-21.3-21.3-21.3s-21.3,9.5-21.3,21.3
		C68.5,87.6,78,97.1,89.8,97.1z M89.8,63.5c6.8,0,12.3,5.5,12.3,12.3c0,6.8-5.5,12.3-12.3,12.3c-6.8,0-12.3-5.5-12.3-12.3
		C77.5,69,83,63.5,89.8,63.5z"/>
	<path class="st0" d="M89.8,82.9c3.9,0,7.1-3.2,7.1-7.1c0-3.9-3.2-7.1-7.1-7.1c-3.9,0-7.1,3.2-7.1,7.1
		C82.7,79.7,85.8,82.9,89.8,82.9z"/>
</g>
</svg>
