<?xml version="1.0" encoding="utf-8"?>
<!-- Generator: Adobe Illustrator 27.2.0, SVG Export Plug-In . SVG Version: 6.00 Build 0)  -->
<svg version="1.1" id="Ebene_1" xmlns="http://www.w3.org/2000/svg" xmlns:xlink="http://www.w3.org/1999/xlink" x="0px" y="0px"
	 viewBox="0 0 180 180" style="enable-background:new 0 0 180 180;" xml:space="preserve">
<style type="text/css">
	.st0{fill:#0069B3;}
</style>
<path class="st0" d="M103.4,86.5c0.2,0.9,1.4,1.5,2,2.3c0.6,0.7,0.8,1.4,0.8,2.2c-0.9-0.6-1.8-1.2-2.9-1.9c-0.2-2.4-2.7-3.8-3.9-6.1
	c1-0.3,1.5,0.5,2.2,0.9C101.4,85.2,103,85.3,103.4,86.5 M88.9,65.4c-0.3,0.9-0.5,1.8-0.7,2.7c-1,0.2-2,0.4-3.4,0.7
	c0.9-0.7,1.4-1.1,2-1.5c0-1.7-0.1-2.6-0.5-3.1c0.5-0.9,0.9-1.9,1.4-2.8c0.2,0.1,0.4,0.3,0.8,0.5c-0.1,0.2-0.3,0.4-0.4,0.7
	c-0.5,0.6-0.5,1.2,0.1,1.8c0.6,0.5,1.2,0.5,1.8,0c0.2-0.2,0.5-0.4,0.8-0.7C91,65.5,89.5,64.9,88.9,65.4 M95.2,58
	c-0.2,0.5-0.4,0.9-0.9,2.1c-0.4-0.7-0.7-1.2-0.9-1.6c0.2,1.1,0.5,1.9,0,2.6c-0.7-0.1-1.3-0.2-2-0.2c0-0.1,0.1-0.1,0.1-0.1
	c0.5-0.3,1-0.5,1.4-0.8c-0.2-0.3-0.3-0.6-0.4-0.6c-1.2-0.3-2.6-0.2-3.8-0.7c-0.1-0.1-0.3-0.1-0.5-0.1c-0.9,0.1-1.8,0.4-2.5,1.1
	c-0.6,0.6-1.5,1.1-1.4,2c0,1.3-1,1.7-1.6,2.3c-1.3,1.3-1.4,1.8,0,3c0.6-0.3,1.2-0.5,1.9-0.8c0.1,0.7,0.2,1.2,0.3,2
	c-0.5-0.6-0.7-0.9-1.2-1.6c-0.1,1.2-0.1,2-0.2,2.9c-0.5,0.4-1.2,0.7-1.5,1.3c-0.5,1-1.7,1.3-2,2.4c-0.2-0.1-0.4-0.2-0.7-0.3
	c-0.1,0.4-0.2,0.7-0.2,1.1c-0.3,0-0.5-0.6-0.9,0c0.6,0.7,1.1,1.5,1.7,2.2c-0.4,0.9-1,1.5-1.8,1.1c-0.8-0.4-1.4,0-2,0.2
	c0,1.4,0.1,2.6,0.1,3.8c2,1.5,3-0.5,4.4-1.3c0-0.4-0.1-0.8-0.1-1.2c1.4-0.6,1.4-0.6,2-2.3c0.3,0.1,0.6,0.2,0.9,0.3
	c0.4-0.4,0.9-0.8,1.2-1c1.4,0.8,2.8,1.6,4.5,2.6c-1,0.2-1.6,0.3-2.8,0.6c0.9,0.4,1.2,0.6,1.6,0.7c1.1-0.6,1.8-1.4,1.7-2.8
	c-0.4-0.2-0.8-0.4-1.2-0.5c-0.9-0.3-1.7-0.6-2-2c0.9,0.6,1.6,1.4,2.2,1.4c1,0,1.3,0.6,1.7,1.2c0.3,0.4,0.4,0.9,0.7,1.3
	c0.3,0.3,0.8,0.4,1.2,0.6c0.1,0.1,0.2,0.3,0.2,0.3c0.4-0.5,0.7-1,1-1.4c-0.7-0.5-1-1,0.1-1.3c0.4,0.5,0.8,0.9,1.1,1.4
	c0.5,1,1.5,1.1,2.2,0.9c0.4-0.1,0.7-0.5,1.3-0.2c0.3,0.1,0.8-0.4,1.3-0.6c0.1,1.2,0.9,2.2-0.2,3.3c-1.8,0.1-3.7,1.4-5.8,0.2
	c-0.3-0.2-0.8,0.1-1.2,0.2c-0.1,0-0.3,0.2-0.4,0.3c0,0.5,0.1,1,0.1,1.5c-1.4-0.1-2.6-0.7-3.7-0.7c-1.2-0.1-1.6-0.8-1.9-1.4
	c-0.7-1.5-0.5-1.6-1.8-0.8c-0.3,0.2-0.6,0.4-0.9,0.4c-0.5,0-1-0.3-1.4-0.2c-0.4,0.1-0.8,0.6-1.2,0.7c-1,0.3-1.8,1.3-3,1.2
	c-0.2,0.7-1.6,0.4-1.3,1.5c-1,0.7-0.4,1.9-1.1,2.8c-0.5,0.6-1.3,1.3-1.4,2c-0.1,1-0.9,1.6-1.2,2.5c-0.2,0.5-0.2,1.1-0.3,1.7
	c0.4,0.1,0.7,0.1,1.2,0.2c0.1,1.6,0.2,3.2,0.3,4.6c0.8,0.9,1.9,0.9,2.1,1.9c0,0.2,3.2,1.7,3.3,1.7c1.4-0.5,3-0.3,4.4-1.3
	c0.6-0.4,1.8-0.7,2.3-0.4c0.9,0.6,1.8,0.3,2.7,0.2c0.3,1.3,0.5,2.6,0.8,3.8c1.4,0.5,1.5,2,2.4,2.8c0.6,0.6,0.5,1.1,0.4,1.8
	c-0.1,0.9-0.8,2.2-0.1,2.8c1.1,0.9,1.5,2.2,2,3.3c0.6,1.3,2.1,2,2,3.6c0.6-0.1,1-0.3,1.5-0.3c2-0.2,2.8-1.9,4-3.1
	c-0.4-1.3,0.7-1.9,1.3-2.7c0.6-0.8-0.1-1.5,0-2c0.5-0.6,0.9-1,1.3-1.4c0.5-0.6,1.5-0.8,1.3-1.9c-0.2-0.8,0.3-1.6,0-2.5
	c-0.3-0.9-0.4-1.9-0.6-2.7c0.9-1.4,1.5-3,2.6-4c1.9-1.7,2.5-3.6,2.6-6c-1.3,0-2,1.6-3.3,1c0.4-1.6,0.4-1.7,1.3-2.2
	c2.2-1.3,4.1-2.8,5.1-5.2c-0.1-0.3-0.1-0.7-0.2-1c-0.3-0.5-0.7-1-1.1-1.5c-0.2,0.3-0.3,0.4-0.5,0.6c-0.2-0.3-0.4-0.6-0.7-1
	c-0.1,0.6-0.1,0.9-0.2,1.2c-1.4-0.9-3.4-0.9-3.9-3c1.6-0.1,2.6,2.3,4.4,1.2c1.5,0.8,3,0.5,4.4,0.1c0.8,0.9,1.4,1.6,2,2.3
	c0.3-0.3,0.4-0.5,0.6-0.8c0.8,2.6,1.6,5,2.4,7.4c0.4,0.1,0.8,0.1,1,0.3c0.2,0.3,0.3,0.7,0.5,1.1c0.9-1.4-1.2-1.9-0.5-3.4
	c0.4-0.8-0.5-2,0.3-3.2c0.4-0.7,0.3-1.6,0.5-2.5c-2.7-13-12.9-23-25.8-25.7c-0.3,0.4-0.6,0.8-0.8,1.2C95.7,58.2,95.5,58.1,95.2,58"
	/>
<path class="st0" d="M70.4,112.9c-0.2-0.4-0.7-1.1-0.6-1.3c0.7-1-0.1-1.8-0.1-2.7c-1.1-0.7-2.1-1.3-3.4-1.5
	c-1.8-0.3-3.7-0.8-4.5-2.8c-0.2-0.4-0.6-1-1-1c-1.1,0-2-0.7-2.4-1.3c-0.1-0.1-0.2-0.3-0.3-0.4c2.6,6.5,7.2,12,13,15.7
	c0.3-0.2,0.5-0.3,0.7-0.5C71.9,115.5,71.1,114.2,70.4,112.9"/>
<path class="st0" d="M65.7,68.9c0.6-0.9,0.9-1.6,1.4-2.1c1.6-1.8,3.4-3.2,5.8-3.9c0.1-0.9,1.2-0.5,1.6-1.1c0.7-1.3,2-2.1,3-3.1
	c-4.5,1.7-8.5,4.3-11.9,7.5c-0.2,0.5-0.3,0.9-0.5,1.4C65.1,67.8,65.5,68.3,65.7,68.9"/>
<path class="st0" d="M60.9,72.6c0-0.2,0-0.3,0-0.5c-0.7,1-1.3,2.1-1.8,3.2C60.2,74.8,60.9,73.9,60.9,72.6"/>
<path class="st0" d="M57.5,79.3c0.1-0.2,0.2-0.5,0.2-0.7C57.7,78.8,57.6,79,57.5,79.3"/>
<path class="st0" d="M108,106.9c-0.1,0-0.3,0.2-0.3,0.3c0.1,1.6-1.2,2.9-0.6,4.7c0.5-0.1,0.9-0.2,1.2-0.3c0.4-1,0.8-2,1.3-3
	c0.6-1.1,1.4-2.4,0.6-3.9C109.4,105.5,109.3,106.8,108,106.9"/>
<path class="st0" d="M78.5,71c0,0-0.4,0.3-0.7,0.6c0.9,1.2,1.8,0.4,2.6,0.4c0.1-0.4,0.3-0.8,0.4-1.1c-0.6-0.9-2.2-1.1-1.8-2.7
	c-0.4-0.1-0.7-0.9-1.1-0.1c0,0.1-0.5-0.1-0.6-0.1C76.3,69.6,78.7,69.4,78.5,71"/>
<path class="st0" d="M74.6,64.9c0.3-0.4,1.5-0.4,0.7-1.5c-0.9,0.4-2.1-0.1-2.7,1.4C73.3,65.4,74.1,65.7,74.6,64.9"/>
<path class="st0" d="M75.7,70.9c-0.1,0.5,0.2,1,0.4,1.9c0.7-1,1.2-1.6,1.9-2.7C76.2,70.3,75.8,70.4,75.7,70.9"/>
</svg>
