<?xml version="1.0" encoding="utf-8"?>
<!-- Generator: Adobe Illustrator 27.2.0, SVG Export Plug-In . SVG Version: 6.00 Build 0)  -->
<svg version="1.1" id="Ebene_1" xmlns="http://www.w3.org/2000/svg" xmlns:xlink="http://www.w3.org/1999/xlink" x="0px" y="0px"
	 viewBox="0 0 180 180" style="enable-background:new 0 0 180 180;" xml:space="preserve">
<style type="text/css">
	.st0{fill:#0069B3;}
</style>
<g>
	<path class="st0" d="M70.6,79.6c-0.9,0-1.6-0.7-1.6-1.6c0-0.9,0.7-1.6,1.6-1.6c0.9,0,1.6,0.7,1.6,1.6
		C72.2,78.9,71.5,79.6,70.6,79.6 M91.7,83.1l-17.9-7.9c-0.2-0.1-0.3-0.2-0.4-0.4l-5.9-18c-0.1-0.3-0.4-0.5-0.6-0.5
		c-0.4,0-0.7,0.3-0.7,0.7l1.8,18.8c0,0.2-0.1,0.4-0.2,0.5L54.5,90.1c-0.6,0.6,0.2,1.4,0.9,1l12.5-8.4l-1.7,29l9,0l-2.1-31.4
		l18.2,3.9C92,84.5,92.4,83.4,91.7,83.1"/>
	<polygon class="st0" points="87.1,88 80.9,104.1 91.2,104.1 97.5,88 	"/>
	<polygon class="st0" points="101.2,88 95,104.1 105.4,104.1 111.6,88 	"/>
	<polygon class="st0" points="115.3,88 109,104.1 119.4,104.1 125.7,88 	"/>
	<polygon class="st0" points="79.5,107.6 73.2,123.7 83.6,123.7 89.8,107.6 	"/>
	<polygon class="st0" points="93.6,107.6 87.3,123.7 97.7,123.7 104,107.6 	"/>
	<polygon class="st0" points="107.6,107.6 101.4,123.7 111.8,123.7 118,107.6 	"/>
	<rect x="114.2" y="108" class="st0" width="2.4" height="12.4"/>
	<rect x="100.2" y="108" class="st0" width="2.4" height="12.4"/>
	<rect x="86.1" y="108" class="st0" width="2.4" height="12.4"/>
</g>
</svg>
