<?xml version="1.0" encoding="utf-8"?>
<!-- Generator: Adobe Illustrator 27.2.0, SVG Export Plug-In . SVG Version: 6.00 Build 0)  -->
<svg version="1.1" id="Ebene_1" xmlns="http://www.w3.org/2000/svg" xmlns:xlink="http://www.w3.org/1999/xlink" x="0px" y="0px"
	 viewBox="0 0 180 180" style="enable-background:new 0 0 180 180;" xml:space="preserve">
<style type="text/css">
	.st0{fill:#0069B3;}
</style>
<path class="st0" d="M90,109.7c-2.3,0-4.2,1.9-4.2,4.2s1.9,4.2,4.2,4.2c2.3,0,4.2-1.9,4.2-4.2S92.3,109.7,90,109.7 M90,121.6
	c-4.2,0-7.7-3.4-7.7-7.7c0-4.2,3.4-7.7,7.7-7.7c4.2,0,7.7,3.4,7.7,7.7C97.7,118.2,94.2,121.6,90,121.6"/>
<path class="st0" d="M70.6,102.8c5.3-4.3,12-6.9,19.4-6.9c7.3,0,14.1,2.6,19.4,6.9l2-4.3c-5.9-4.5-13.3-7.3-21.3-7.3
	c-8,0-15.4,2.7-21.3,7.3L70.6,102.8z"/>
<path class="st0" d="M65,90.6c7.1-5,15.7-7.9,25-7.9s17.9,2.9,25,7.9l2-4.3c-7.7-5.2-17-8.2-27-8.2s-19.3,3-27,8.2L65,90.6z"/>
<path class="st0" d="M59.4,78.5c8.8-5.7,19.3-9,30.6-9s21.7,3.3,30.6,9l2-4.2c-9.4-5.9-20.6-9.4-32.5-9.4s-23.1,3.4-32.5,9.4
	L59.4,78.5z"/>
</svg>
