<?xml version="1.0" encoding="utf-8"?>
<!-- Generator: Adobe Illustrator 27.2.0, SVG Export Plug-In . SVG Version: 6.00 Build 0)  -->
<svg version="1.1" id="Ebene_1" xmlns="http://www.w3.org/2000/svg" xmlns:xlink="http://www.w3.org/1999/xlink" x="0px" y="0px"
	 viewBox="0 0 180 180" style="enable-background:new 0 0 180 180;" xml:space="preserve">
<style type="text/css">
	.st0{fill:#0069B3;}
</style>
<path class="st0" d="M82.2,99.8V80.2L99.3,90L82.2,99.8z M118.5,75.3c-0.6-3.1-3.2-5.3-6.3-6c-4.6-1-13.2-1.7-22.4-1.7
	c-9.2,0-17.9,0.7-22.6,1.7c-3.1,0.7-5.7,2.8-6.3,6c-0.6,3.5-1.1,8.4-1.1,14.7s0.6,11.2,1.3,14.7c0.6,3.1,3.2,5.3,6.3,6
	c4.9,1,13.3,1.7,22.6,1.7s17.7-0.7,22.6-1.7c3.1-0.7,5.7-2.8,6.3-6c0.6-3.5,1.3-8.6,1.4-14.7C119.9,83.7,119.2,78.8,118.5,75.3"/>
</svg>
