<?xml version="1.0" encoding="utf-8"?>
<!-- Generator: Adobe Illustrator 27.2.0, SVG Export Plug-In . SVG Version: 6.00 Build 0)  -->
<svg version="1.1" id="Ebene_1" xmlns="http://www.w3.org/2000/svg" xmlns:xlink="http://www.w3.org/1999/xlink" x="0px" y="0px"
	 viewBox="0 0 180 180" style="enable-background:new 0 0 180 180;" xml:space="preserve">
<style type="text/css">
	.st0{fill:#0069B3;}
</style>
<path class="st0" d="M70.8,117.7c-9.5,1.4-18.3-5.1-19.8-14.6c-1.4-9.5,5.1-18.4,14.6-19.8S84,88.5,85.4,97.9
	C86.8,107.4,80.3,116.3,70.8,117.7 M89.4,97.3c-0.3-1.8,1.7-3.7,4.7-4.8c-0.6-2-1.4-3.9-2.4-5.6c-2.9,1.4-5.5,1.6-6.7,0.2
	c-1.1-1.4-0.4-4,1.6-6.4c-1.5-1.4-3.1-2.6-4.9-3.6c-1.8,2.7-4,4.2-5.7,3.5c-1.7-0.7-2.3-3.3-1.8-6.4c-1.9-0.4-3.9-0.7-5.9-0.7
	c-0.2,3.2-1.4,5.6-3.2,5.9c-1.8,0.3-3.7-1.7-4.8-4.7c-1.9,0.6-3.8,1.4-5.5,2.4c1.4,2.9,1.6,5.6,0.2,6.7c-1.4,1.1-4,0.4-6.5-1.7
	c-1.4,1.5-2.6,3.1-3.6,4.9c2.7,1.8,4.2,4.1,3.5,5.8c-0.7,1.7-3.3,2.4-6.5,1.8c-0.4,2-0.7,4-0.7,6c3.2,0.2,5.6,1.4,5.9,3.2
	c0.3,1.8-1.7,3.7-4.7,4.8c0.6,1.9,1.4,3.8,2.4,5.5c2.9-1.4,5.6-1.6,6.7-0.2c1.2,1.4,0.4,4-1.7,6.5c1.5,1.4,3.1,2.6,4.9,3.6
	c1.8-2.7,4-4.2,5.7-3.5c1.7,0.7,2.3,3.3,1.8,6.5c1.9,0.4,3.9,0.7,6,0.7c0.2-3.2,1.4-5.6,3.2-5.9c1.8-0.3,3.7,1.7,4.8,4.7
	c1.9-0.6,3.7-1.4,5.4-2.3c-1.5-2.9-1.6-5.6-0.2-6.7c1.4-1.1,4.1-0.4,6.5,1.7c1.4-1.5,2.6-3.1,3.6-4.8c-2.7-1.8-4.1-4-3.5-5.7
	c0.7-1.7,3.3-2.3,6.4-1.8c0.5-2,0.7-4,0.7-6.1C92,100.4,89.6,99.2,89.4,97.3"/>
<path class="st0" d="M115.8,90c-8.8,1-16.7-5.3-17.7-14.1c-1-8.8,5.3-16.7,14.1-17.7s16.7,5.3,17.7,14.1C130.8,81,124.5,89,115.8,90
	 M133.5,71.9c-0.2-1.7,1.7-3.3,4.5-4.3c-0.5-1.9-1.2-3.6-2.1-5.2c-2.7,1.2-5.1,1.3-6.1-0.1c-1-1.3-0.2-3.7,1.7-5.9
	c-1.3-1.3-2.8-2.5-4.4-3.4c-1.7,2.4-3.8,3.7-5.4,3c-1.5-0.7-2-3.1-1.5-6c-1.7-0.5-3.5-0.7-5.4-0.8c-0.3,2.9-1.5,5.1-3.1,5.3
	c-1.7,0.2-3.3-1.7-4.3-4.5c-1.8,0.5-3.5,1.2-5.1,2c1.2,2.7,1.3,5.2-0.1,6.2c-1.3,1-3.7,0.2-5.9-1.8c-1.3,1.3-2.5,2.8-3.5,4.3
	c2.4,1.7,3.8,3.9,3.1,5.4c-0.7,1.5-3.1,2.1-6,1.4c-0.5,1.8-0.8,3.6-0.8,5.5c2.9,0.3,5.1,1.5,5.3,3.1c0.2,1.7-1.7,3.3-4.5,4.3
	c0.5,1.8,1.2,3.5,2,5.1c2.7-1.2,5.2-1.3,6.2,0.1c1,1.4,0.2,3.7-1.7,5.9c1.3,1.3,2.8,2.5,4.3,3.4c1.7-2.4,3.8-3.7,5.4-3.1
	c1.5,0.7,2,3.1,1.5,6c1.8,0.5,3.6,0.7,5.4,0.8c0.3-2.9,1.5-5.1,3.1-5.3c1.7-0.2,3.3,1.7,4.3,4.5c1.8-0.5,3.5-1.1,5.1-2
	c-1.2-2.7-1.3-5.2,0.1-6.2c1.4-1,3.7-0.2,6,1.8c1.3-1.3,2.5-2.8,3.5-4.3c-2.4-1.7-3.7-3.8-3-5.4c0.7-1.5,3.1-2,6-1.5
	c0.5-1.8,0.8-3.7,0.8-5.6C135.9,74.7,133.7,73.5,133.5,71.9"/>
</svg>
