<?xml version="1.0" encoding="utf-8"?>
<!-- Generator: Adobe Illustrator 27.2.0, SVG Export Plug-In . SVG Version: 6.00 Build 0)  -->
<svg version="1.1" id="Ebene_1" xmlns="http://www.w3.org/2000/svg" xmlns:xlink="http://www.w3.org/1999/xlink" x="0px" y="0px"
	 viewBox="0 0 180 180" style="enable-background:new 0 0 180 180;" xml:space="preserve">
<style type="text/css">
	.st0{fill:#0069B3;}
</style>
<g>
	<path class="st0" d="M97.1,108.5l-2.1-7.2c0.6-1.1,1.1-2.3,1.5-3.6l6.6-3.6v-2l-6.6-3.5c-0.4-1.3-0.9-2.5-1.5-3.6l2.1-7.1l-1.4-1.4
		l-7.1,2.1c-1.1-0.6-2.3-1.1-3.5-1.5l-3.6-6.6h-2l-3.6,6.6c-1.2,0.4-2.4,0.9-3.6,1.5l-7.2-2.1L63.8,78l2.1,7.2
		c-0.6,1.1-1.1,2.3-1.5,3.6l-6.6,3.5v2l6.6,3.6c0.4,1.2,0.8,2.4,1.5,3.5l-2.2,7.2l1.4,1.4l7.2-2.1c1.1,0.6,2.3,1.1,3.6,1.5l3.5,6.5
		h2l3.5-6.5c1.3-0.4,2.5-0.9,3.6-1.5l7.2,2.1L97.1,108.5z M80.4,102.3c-5,0-9-4.1-9-9c0-5,4.1-9,9-9c5,0,9,4.1,9,9
		C89.5,98.2,85.4,102.3,80.4,102.3z"/>
	<path class="st0" d="M116.7,116.6l-0.3-1.1l-4.3-1.2c-0.4-0.7-0.8-1.3-1.4-1.9l0.3-4.4l-1-0.6l-3.8,2.2c-0.7-0.2-1.5-0.3-2.3-0.4
		l-3-3.3l-1.1,0.3l-1.2,4.3c-0.7,0.4-1.3,0.8-1.9,1.3l-4.4-0.3l-0.6,1l2.2,3.9c-0.2,0.7-0.3,1.5-0.4,2.3l-3.3,3l0.3,1.1l4.3,1.2
		c0.4,0.7,0.8,1.3,1.3,1.8l-0.3,4.5l1,0.6l3.9-2.2c0.7,0.2,1.5,0.3,2.3,0.4l2.9,3.3l1.1-0.3l1.2-4.3c0.7-0.4,1.3-0.8,1.9-1.4
		l4.4,0.3l0.6-1l-2.2-3.9c0.2-0.7,0.3-1.5,0.4-2.3L116.7,116.6z M104.7,124.4c-2.9,0.7-5.8-1.1-6.5-4c-0.7-2.9,1.1-5.8,4-6.5
		c2.9-0.7,5.8,1.1,6.5,4C109.4,120.8,107.6,123.7,104.7,124.4z"/>
	<path class="st0" d="M117.7,64.6c-0.1-1-0.2-2.1-0.5-3.1l2.9-5.1l-0.8-1.3l-5.9,0.4c-0.8-0.7-1.6-1.3-2.5-1.8l-1.6-5.7l-1.5-0.3
		l-3.9,4.5c-1,0.1-2,0.2-3,0.5l-5.2-2.9l-1.3,0.8l0.4,5.9c-0.7,0.8-1.3,1.6-1.8,2.5l-5.7,1.6l-0.3,1.5l4.5,3.9c0.1,1,0.2,2,0.5,3
		L89,74.2l0.8,1.3l5.9-0.4c0.8,0.7,1.6,1.3,2.5,1.8l1.6,5.7l1.5,0.3l3.9-4.4c1-0.1,2.1-0.2,3-0.5l5.2,2.9l1.3-0.8l-0.4-5.9
		c0.7-0.8,1.3-1.6,1.8-2.5l5.7-1.6l0.3-1.5L117.7,64.6z M109.3,66.4c-0.6,2.6-3.2,4.3-5.8,3.7c-2.6-0.6-4.3-3.2-3.7-5.8
		c0.6-2.6,3.2-4.3,5.8-3.7C108.2,61.2,109.9,63.8,109.3,66.4z"/>
</g>
</svg>
