<?xml version="1.0" encoding="utf-8"?>
<!-- Generator: Adobe Illustrator 27.2.0, SVG Export Plug-In . SVG Version: 6.00 Build 0)  -->
<svg version="1.1" id="Ebene_1" xmlns="http://www.w3.org/2000/svg" xmlns:xlink="http://www.w3.org/1999/xlink" x="0px" y="0px"
	 viewBox="0 0 180 180" style="enable-background:new 0 0 180 180;" xml:space="preserve">
<style type="text/css">
	.st0{fill:#0069B3;}
</style>
<path class="st0" d="M128.6,88.4H124c-0.7-17.7-14.9-31.9-32.6-32.6v-5.6h-2.9v5.6c-17.7,0.7-31.9,14.9-32.6,32.6h-4.6v2.9h4.6
	c0.7,17.7,14.9,31.9,32.6,32.6v3.5h2.9v-3.5c17.7-0.7,31.9-14.9,32.6-32.6h4.6V88.4z M121.1,88.4h-11.5c-0.7-9.7-8.5-17.5-18.2-18.2
	V58.7C107.5,59.4,120.4,72.3,121.1,88.4z M88.5,88.4H73.2c0.7-8.1,7.2-14.6,15.3-15.3V88.4z M88.5,91.3v15.3
	c-8.1-0.7-14.6-7.2-15.3-15.3H88.5z M91.4,91.3h15.3c-0.7,8.1-7.2,14.6-15.3,15.3V91.3z M91.4,88.4V73.1c8.1,0.7,14.6,7.2,15.3,15.3
	H91.4z M88.5,58.7v11.5c-9.7,0.7-17.5,8.5-18.2,18.2H58.8C59.6,72.3,72.5,59.4,88.5,58.7z M58.8,91.3h11.5
	c0.7,9.7,8.5,17.5,18.2,18.2V121C72.5,120.3,59.6,107.4,58.8,91.3z M91.4,121v-11.5c9.7-0.7,17.5-8.5,18.2-18.2h11.5
	C120.4,107.4,107.5,120.3,91.4,121z"/>
</svg>
