<?xml version="1.0" encoding="UTF-8" standalone="no"?>
<!-- Generator: Adobe Illustrator 27.3.1, SVG Export Plug-In . SVG Version: 6.00 Build 0)  -->

<svg
   version="1.1"
   id="Ebene_1"
   x="0px"
   y="0px"
   viewBox="0 0 80 80.000001"
   xml:space="preserve"
   sodipodi:docname="favicon.svg"
   width="80"
   height="80"
   inkscape:export-filename="../3e1b8715/favicon.ico.png"
   inkscape:export-xdpi="57.599998"
   inkscape:export-ydpi="57.599998"
   inkscape:version="1.2.2 (732a01da63, 2022-12-09, custom)"
   xmlns:inkscape="http://www.inkscape.org/namespaces/inkscape"
   xmlns:sodipodi="http://sodipodi.sourceforge.net/DTD/sodipodi-0.dtd"
   xmlns="http://www.w3.org/2000/svg"
   xmlns:svg="http://www.w3.org/2000/svg"><defs
   id="defs25" /><sodipodi:namedview
   id="namedview23"
   pagecolor="#ffffff"
   bordercolor="#000000"
   borderopacity="0.25"
   inkscape:showpageshadow="2"
   inkscape:pageopacity="0.0"
   inkscape:pagecheckerboard="0"
   inkscape:deskcolor="#d1d1d1"
   showgrid="false"
   inkscape:zoom="1.3111111"
   inkscape:cx="-135"
   inkscape:cy="34.70339"
   inkscape:window-width="1920"
   inkscape:window-height="1136"
   inkscape:window-x="0"
   inkscape:window-y="0"
   inkscape:window-maximized="1"
   inkscape:current-layer="Ebene_1" />
<style
   type="text/css"
   id="style18">
	.st0{fill:#0069B3;}
</style>
<path
   class="st0"
   d="m 67.165983,18.403615 4,4 7.8,15.7 -15.7,-7.9 -3.8,-3.8 -15.4,15.9 25,24.2 c 0.6,0.6 0.7,1.6 0.1,2.2 -1.1,1.2 -2.2,2.4 -3.5,3.5 -0.6,0.6 -1.6,0.5 -2.2,-0.1 l -24,-25 -24,24.9 c -0.6,0.6 -1.6,0.7 -2.2,0.1 -1.2,-1.1 -2.4,-2.2 -3.5000002,-3.5 -0.6,-0.6 -0.5,-1.6 0.1,-2.2 l 25.0000002,-24.1 -16.6,-17.1 c -3,3.4 -5.5,7.1 -7.5,11.2 l -8.6000002,-7.5 c 5.5,-10.1 13.8000002,-18.3 23.8000002,-23.8000001 l 7.5,8.6000001 c -4.1,2 -7.9,4.5 -11.2,7.5 l 17.2,16.6 15.9,-15.4 -9,-9 7.9,-7.9000001 9.2,9.2000001 1.1,-1.1 3.7,3.7 z"
   id="path20" />
</svg>
